<svg xmlns="http://www.w3.org/2000/svg" width="72.391" height="74.674" viewBox="0 0 72.391 74.674">
  <g id="cavity" transform="translate(-0.207 0.001)">
    <path id="Path_10187" data-name="Path 10187" d="M104.05,53.995c-2.882.215-15.1,3.272-18.136,4.054a26.456,26.456,0,0,1-3.6-2.093A9.368,9.368,0,0,0,77.987,54a16.545,16.545,0,0,0-2.581,0c-.039,0-.079,0-.118.008A16.518,16.518,0,0,0,60.263,72.232c.2,1.82.5,4.006.942,6.49,0,.013,0,.026.007.039A112.576,112.576,0,0,0,76,117.5a2.793,2.793,0,0,0,5.083-.762l1.188-4.6a28.332,28.332,0,0,1,6.983-12.518l.4-.413a1.262,1.262,0,0,1,1.779-.037l.479.459a28.279,28.279,0,0,1,7.7,12.872l1.207,4.356a2.756,2.756,0,0,0,2.3,2.018,2.917,2.917,0,0,0,.407.029,2.752,2.752,0,0,0,2.364-1.332,111.551,111.551,0,0,0,15.776-45.356,16.489,16.489,0,0,0-17.608-18.22Zm-37.164,7a13.62,13.62,0,0,1,7.641-3.984l1.609,4.007a4.293,4.293,0,0,1-2.6,5.663l-.007,0a7.133,7.133,0,0,0-4.8,5.856l-.008.061a4.288,4.288,0,0,1-3.11,3.577l-1.835.507c-.29-1.784-.5-3.383-.652-4.765a13.526,13.526,0,0,1,3.757-10.926ZM118.794,71.9a108.6,108.6,0,0,1-15.258,43.983l-1.152-4.155A31.161,31.161,0,0,0,93.9,97.545l-.479-.459a4.149,4.149,0,0,0-5.851.124l-.4.413a31.211,31.211,0,0,0-7.7,13.795l-1.135,4.4A109.723,109.723,0,0,1,64.287,79.531l2.1-.581a7.164,7.164,0,0,0,5.2-5.98l.008-.061a4.266,4.266,0,0,1,2.874-3.5l.006,0a7.175,7.175,0,0,0,4.341-9.464l-1.235-3.074.183.011a7.547,7.547,0,0,1,2.964,1.483c3.279,2.167,8.233,5.44,19.522,4.029a1.441,1.441,0,0,0-.358-2.861,32.838,32.838,0,0,1-8.413.1c4.87-1.19,11.079-2.629,12.789-2.757A13.605,13.605,0,0,1,118.794,71.9Zm0,0" transform="translate(-49.157 -44.229)" fill="#f15a4f"/>
    <path id="Path_10188" data-name="Path 10188" d="M30.886,23.19a1.442,1.442,0,0,0,.216-2.027l-5.718-7.08a1.441,1.441,0,1,0-2.243,1.81l5.718,7.082a1.441,1.441,0,0,0,2.027.216Zm0,0" transform="translate(-18.528 -11.093)" fill="#f15a4f"/>
    <path id="Path_10189" data-name="Path 10189" d="M7.721,57.676,2.443,54.223A1.441,1.441,0,1,0,.865,56.635l5.278,3.454a1.442,1.442,0,1,0,1.579-2.413Zm0,0" transform="translate(0 -44.257)" fill="#f15a4f"/>
    <path id="Path_10190" data-name="Path 10190" d="M69.49,7.844a1.442,1.442,0,1,0,2.691-1.035L69.915.921a1.442,1.442,0,0,0-2.691,1.035Zm0,0" transform="translate(-54.863 0)" fill="#f15a4f"/>
  </g>
</svg>
