<svg xmlns="http://www.w3.org/2000/svg" width="20.213" height="18.516" viewBox="0 0 20.213 18.516">
  <path id="fi-rr-eye-crossed" d="M19.591,8.088A13.357,13.357,0,0,0,16.753,4.8L19.11,2.44A.842.842,0,1,0,17.919,1.25L15.356,3.817A10.148,10.148,0,0,0,10.1,2.394,11.152,11.152,0,0,0,.613,8.088a4.132,4.132,0,0,0,0,4.346,13.357,13.357,0,0,0,2.838,3.291L1.094,18.082a.842.842,0,1,0,1.191,1.191L4.854,16.7A10.148,10.148,0,0,0,10.1,18.129a11.152,11.152,0,0,0,9.489-5.694A4.132,4.132,0,0,0,19.591,8.088ZM2.048,11.553a2.457,2.457,0,0,1,0-2.583A9.53,9.53,0,0,1,10.1,4.078a8.5,8.5,0,0,1,4.012.981L12.42,6.753a4.2,4.2,0,0,0-5.826,5.826L4.649,14.524a11.553,11.553,0,0,1-2.6-2.971Zm10.58-1.291A2.526,2.526,0,0,1,10.1,12.787a2.484,2.484,0,0,1-1.082-.253l3.355-3.355A2.484,2.484,0,0,1,12.628,10.261Zm-5.051,0A2.526,2.526,0,0,1,10.1,7.736a2.484,2.484,0,0,1,1.082.253L7.829,11.343a2.484,2.484,0,0,1-.253-1.082Zm10.58,1.291A9.53,9.53,0,0,1,10.1,16.445a8.5,8.5,0,0,1-4.012-.981l1.695-1.695A4.2,4.2,0,0,0,13.61,7.943L15.555,6a11.553,11.553,0,0,1,2.6,2.971,2.457,2.457,0,0,1,0,2.583Z" transform="translate(0.004 -1.003)" fill="#707070"/>
</svg>
