<svg xmlns="http://www.w3.org/2000/svg" width="68.613" height="92.478" viewBox="0 0 68.613 92.478">
  <g id="gallery" transform="translate(-9 -1)">
    <path id="Path_10171" data-name="Path 10171" d="M77.613,50.222a34.342,34.342,0,0,0-19.1-30.743,11.385,11.385,0,0,0,1.2-5.055C59.714,7.022,52.353,1,43.306,1S26.9,7.022,26.9,14.424A11.391,11.391,0,0,0,28.1,19.479,34.341,34.341,0,0,0,9,50.222a28.983,28.983,0,0,0,1.492,9.191l1.56,4.681A8.175,8.175,0,0,0,18.7,77.071H19.99A30.035,30.035,0,0,0,37.012,92.388a18.713,18.713,0,0,0,12.589,0A30.035,30.035,0,0,0,66.623,77.071h1.295a8.175,8.175,0,0,0,6.644-12.977l1.56-4.681A28.983,28.983,0,0,0,77.613,50.222Zm-47.731-35.8c0-5.756,6.023-10.441,13.424-10.441S56.731,8.668,56.731,14.424a8.326,8.326,0,0,1-.956,3.847,34.177,34.177,0,0,0-24.935,0A8.31,8.31,0,0,1,29.882,14.424ZM18.7,74.088a5.207,5.207,0,0,1-1.727-10.125l.07,1.468a30.257,30.257,0,0,0,1.7,8.657ZM48.6,89.579a15.824,15.824,0,0,1-10.581,0,27.077,27.077,0,0,1-18-24.292L19.528,55A36.833,36.833,0,0,0,43.306,37.119,36.833,36.833,0,0,0,67.085,55l-.491,10.292a27.077,27.077,0,0,1-18,24.292Zm19.32-15.492h-.04a30.256,30.256,0,0,0,1.7-8.651l.07-1.468a5.207,5.207,0,0,1-1.727,10.119Zm5.37-15.618-1.137,3.408a8.148,8.148,0,0,0-2.364-.99l.251-5.265,2.178.439.6-2.925-4.084-.825A33.823,33.823,0,0,1,44.664,33.2a1.492,1.492,0,0,0-2.715,0A33.823,33.823,0,0,1,17.885,52.311l-4.081.822.589,2.925,2.178-.439.251,5.265a8.146,8.146,0,0,0-2.364.99l-1.132-3.405a26.045,26.045,0,0,1-1.342-8.247,31.323,31.323,0,0,1,62.647,0,26.045,26.045,0,0,1-1.342,8.247Z" transform="translate(0)" fill="#f15a4f"/>
    <path id="Path_10172" data-name="Path 10172" d="M27.375,48.239a7.049,7.049,0,0,0,5.878-3.146L34.583,43.1,32.1,41.445l-1.329,1.993a4.081,4.081,0,0,1-6.793,0L22.65,41.445,20.168,43.1,21.5,45.093A7.049,7.049,0,0,0,27.375,48.239Z" transform="translate(5.49 19.882)" fill="#f15a4f"/>
    <path id="Path_10173" data-name="Path 10173" d="M47.254,45.093,48.583,43.1,46.1,41.445l-1.329,1.993a4.081,4.081,0,0,1-6.793,0L36.65,41.445,34.168,43.1,35.5,45.093a7.066,7.066,0,0,0,11.757,0Z" transform="translate(12.372 19.882)" fill="#f15a4f"/>
    <path id="Path_10174" data-name="Path 10174" d="M31.4,49.293,29.293,51.4l.436.437a5.094,5.094,0,0,0,7.2,0l.437-.437-2.109-2.109-.437.437a2.158,2.158,0,0,1-2.983,0Z" transform="translate(9.976 23.74)" fill="#f15a4f"/>
    <path id="Path_10175" data-name="Path 10175" d="M28,54H39.933v2.983H28Z" transform="translate(9.34 26.054)" fill="#f15a4f"/>
    <path id="Path_10176" data-name="Path 10176" d="M20,48h2.983v2.983H20Z" transform="translate(5.407 23.104)" fill="#f15a4f"/>
    <path id="Path_10177" data-name="Path 10177" d="M24,50h2.983v2.983H24Z" transform="translate(7.374 24.088)" fill="#f15a4f"/>
    <path id="Path_10178" data-name="Path 10178" d="M45,39h2.983v2.983H45Z" transform="translate(17.697 18.68)" fill="#f15a4f"/>
    <path id="Path_10179" data-name="Path 10179" d="M30,30h2.983v2.983H30Z" transform="translate(10.323 14.256)" fill="#f15a4f"/>
    <path id="Path_10180" data-name="Path 10180" d="M39,36h2.983v2.983H39Z" transform="translate(14.748 17.205)" fill="#f15a4f"/>
    <path id="Path_10181" data-name="Path 10181" d="M18,39h2.983v2.983H18Z" transform="translate(4.424 18.68)" fill="#f15a4f"/>
    <path id="Path_10182" data-name="Path 10182" d="M29,36h2.983v2.983H29Z" transform="translate(9.832 17.205)" fill="#f15a4f"/>
    <path id="Path_10183" data-name="Path 10183" d="M40,52h2.983v2.983H40Z" transform="translate(15.239 25.071)" fill="#f15a4f"/>
    <path id="Path_10184" data-name="Path 10184" d="M34,46h2.983v2.983H34Z" transform="translate(12.29 22.121)" fill="#f15a4f"/>
    <path id="Path_10185" data-name="Path 10185" d="M27,57h2.983v2.983H27Z" transform="translate(8.849 27.529)" fill="#f15a4f"/>
    <path id="Path_10186" data-name="Path 10186" d="M42,47h2.983v2.983H42Z" transform="translate(16.222 22.613)" fill="#f15a4f"/>
  </g>
</svg>
