<svg xmlns="http://www.w3.org/2000/svg" width="18.55" height="21.747" viewBox="0 0 18.55 21.747">
  <g id="Group_3517" data-name="Group 3517" transform="translate(0.15 0.15)" opacity="0.6">
    <g id="Group_134" data-name="Group 134" transform="translate(0)">
      <g id="Group_133" data-name="Group 133">
        <path id="Path_316" data-name="Path 316" d="M68.335,8.8h-.684V5.279a5.745,5.745,0,0,0-11.452,0V8.8h-.684a2.619,2.619,0,0,0-2.715,2.5v7.639a2.619,2.619,0,0,0,2.715,2.5h12.82a2.619,2.619,0,0,0,2.715-2.5V11.306a2.622,2.622,0,0,0-2.715-2.5ZM57.828,5.279a4.11,4.11,0,0,1,8.195,0V8.8H57.828ZM69.423,18.937a1.052,1.052,0,0,1-1.087,1H55.515a1.052,1.052,0,0,1-1.087-1V11.306a1.052,1.052,0,0,1,1.087-1h12.82a1.052,1.052,0,0,1,1.087,1v7.631Z" transform="translate(-52.8 -0.006)" fill="#292929" stroke="#d9d9d9" stroke-width="0.3"/>
      </g>
    </g>
  </g>
</svg>
