<svg xmlns="http://www.w3.org/2000/svg" width="96.5" height="96.503" viewBox="0 0 96.5 96.503">
  <g id="Group_3568" data-name="Group 3568" transform="translate(-74.25 -708.016)">
    <g id="Group_8320" data-name="Group 8320" transform="translate(-297.734 336.04)">
      <path id="Path_10437" data-name="Path 10437" d="M476.274,444.2a47.654,47.654,0,0,1-5.651-1.814c-9.371-4.268-14.4-11.613-14.731-21.9-.225-6.886-.05-13.786-.041-20.68a3.435,3.435,0,0,1,3.689-3.709q4.955-.02,9.911,0a3.448,3.448,0,1,1-.016,6.886c-2.118.018-4.237.011-6.356.018a1.5,1.5,0,0,0-.289.081c-.015.316-.046.662-.046,1.008,0,5.314-.013,10.628,0,15.942a17.224,17.224,0,0,0,34.421,1.14c.183-5.919.043-11.848.044-17.772a2.531,2.531,0,0,0-.09-.415c-2.245,0-4.5.029-6.747-.008a3.429,3.429,0,0,1-3.238-4.73,3.235,3.235,0,0,1,3.089-2.138q5.278-.059,10.558,0a3.328,3.328,0,0,1,3.311,3.309c.026,7.4.224,14.8-.065,22.187a23.86,23.86,0,0,1-19.66,22.287c-.786.139-.984.423-.955,1.174a16.587,16.587,0,0,0,4.217,10.8,8.092,8.092,0,0,0,5.81,2.473,20.574,20.574,0,0,0,14.512-5.262,35.2,35.2,0,0,0,10.234-15.432c3.676-10.222,4.638-20.63.826-30.98-5.722-15.537-16.94-24.721-33.294-27.39a39.975,39.975,0,0,0-23.887,3.709,5.036,5.036,0,0,1-2.461.5,3.279,3.279,0,0,1-2.849-2.825,3.435,3.435,0,0,1,1.934-3.64,45.346,45.346,0,0,1,13.34-4.37c14.223-2.2,27.135.966,38.389,9.992a46.168,46.168,0,0,1,17.635,31.7,52.974,52.974,0,0,1-9.11,37.1,30.22,30.22,0,0,1-16.951,12.562,23.339,23.339,0,0,1-12.233.518c-6.1-1.559-9.737-5.73-11.44-11.6C477.259,450.078,476.863,447.113,476.274,444.2Z" transform="translate(-59.728)" fill="#f15a4f"/>
      <path id="Path_10438" data-name="Path 10438" d="M403.052,488.457a13.76,13.76,0,0,1-27.456,1.312,13.226,13.226,0,0,1,2.948-9.941,1.155,1.155,0,0,0,.043-1.582,48.224,48.224,0,0,1,6.859-57.725,3.443,3.443,0,1,1,4.953,4.759,41.447,41.447,0,0,0-6.1,49.113,1.15,1.15,0,0,0,1.567.712A13.677,13.677,0,0,1,403.052,488.457Zm-6.937-.034a6.893,6.893,0,1,0-6.945,6.87A6.9,6.9,0,0,0,396.115,488.422Z" transform="translate(0 -33.708)" fill="#f15a4f"/>
    </g>
  </g>
</svg>
