<svg xmlns="http://www.w3.org/2000/svg" width="74.444" height="71.411" viewBox="0 0 74.444 71.411">
  <g id="Group_40649" data-name="Group 40649" transform="translate(-348 -363.643)">
    <path id="Path_10245" data-name="Path 10245" d="M348,538.764a2.078,2.078,0,0,1,2-1.013q14.283.032,28.567.013c.121,0,.242,0,.363,0a1.509,1.509,0,0,1,1.636,1.478,1.46,1.46,0,0,1-1.66,1.427q-9.05.007-18.1,0h-9.848v6.9a12.093,12.093,0,0,1,5.358.64,23.711,23.711,0,0,1,2.439,1.11,9.578,9.578,0,0,0,9.329-.051,12.688,12.688,0,0,1,12.753-.049,9.691,9.691,0,0,0,9.533.015,12.861,12.861,0,0,1,12.954.1,8.989,8.989,0,0,0,8.848.127,14.879,14.879,0,0,1,7.317-1.954v-6.709c-2,0-4.007-.081-6,.048a3.431,3.431,0,0,0-1.788,1.011,5.522,5.522,0,0,1-7.9,0,4.343,4.343,0,0,0-3.094-1.2c-2.835.012-5.67.006-8.5,0-1.1,0-1.73-.51-1.75-1.4-.02-.912.646-1.5,1.749-1.5q4.325-.011,8.65,0a6.894,6.894,0,0,1,4.871,1.929,2.592,2.592,0,0,0,4.029-.021,6.8,6.8,0,0,1,4.734-1.9c2.083-.024,4.168.008,6.251-.015a1.885,1.885,0,0,1,1.708,1.007v29.81a1.947,1.947,0,0,1-2.151.905,9.531,9.531,0,0,0-5.967,1.109,12.782,12.782,0,0,1-13.015-.053,9.062,9.062,0,0,0-9.049-.022,12.982,12.982,0,0,1-13.213.019,9.152,9.152,0,0,0-9.176.045,12.639,12.639,0,0,1-12.942,0,9.079,9.079,0,0,0-6.668-.975A1.811,1.811,0,0,1,348,568.72Zm2.966,11.773v15.99a12.979,12.979,0,0,1,7.667,1.647,9.514,9.514,0,0,0,9.575-.023,12.516,12.516,0,0,1,12.554-.02,9.733,9.733,0,0,0,9.714.014,12.585,12.585,0,0,1,12.623.03,9.453,9.453,0,0,0,9.5.021,13.573,13.573,0,0,1,4.714-1.6c.714-.093,1.437-.109,2.178-.161V550.528a8.854,8.854,0,0,0-5.123,1.106,12.761,12.761,0,0,1-13.016.007,11.022,11.022,0,0,0-3.428-1.082,9.978,9.978,0,0,0-6.282,1.3,12.3,12.3,0,0,1-11.975.025,10.18,10.18,0,0,0-10.377.043,11.9,11.9,0,0,1-7.081,1.416,13.763,13.763,0,0,1-5.343-1.731A9.2,9.2,0,0,0,350.966,550.537Z" transform="translate(0 -140.355)" fill="#f15a4f"/>
    <path id="Path_10246" data-name="Path 10246" d="M348,696.891a1.811,1.811,0,0,0,2.262.881,9.079,9.079,0,0,1,6.668.975,12.639,12.639,0,0,0,12.942,0,9.152,9.152,0,0,1,9.176-.045,12.983,12.983,0,0,0,13.213-.019,9.063,9.063,0,0,1,9.049.022,12.782,12.782,0,0,0,13.015.053,9.531,9.531,0,0,1,5.967-1.109,1.947,1.947,0,0,0,2.151-.905v6.834H348Z" transform="translate(0 -268.526)" fill="none"/>
    <path id="Path_10247" data-name="Path 10247" d="M399.357,389.334a16.518,16.518,0,0,1-2.586.707,3.742,3.742,0,0,1-3.1-1.168,42.735,42.735,0,0,0-8.638-6.475,36.132,36.132,0,0,1-6.855-5.36,5.9,5.9,0,0,1-.255-8.57c.079-.087.154-.178.227-.262a4.506,4.506,0,0,0-6.481-.531,38.933,38.933,0,0,0-2.929,2.929,4.275,4.275,0,0,0,.049,5.709c.733.806,1.545,1.539,2.295,2.331a7.232,7.232,0,0,1-2.114,11.689,7.094,7.094,0,0,1-7.9-1.318c-3.6-3.593-7.128-7.265-10.674-10.914a1.45,1.45,0,1,1,2.126-1.958q5.086,5.195,10.154,10.407a4.316,4.316,0,1,0,6.535-5.64c-.678-.757-1.429-1.449-2.143-2.174A7.272,7.272,0,0,1,367.1,368.1q1.05-1.058,2.108-2.107a7.539,7.539,0,0,1,10.714-.226c.106.1.216.188.178.155a18.726,18.726,0,0,1,3.2-1.616,5.506,5.506,0,0,1,5.653,1.593,35.764,35.764,0,0,1,5.638,7.187,43.717,43.717,0,0,0,6.4,8.517c1.473,1.508,1.544,3.337.312,5.538l3.67,3.672c.36.36.734.707,1.076,1.083a1.445,1.445,0,0,1,.023,2.087,1.462,1.462,0,0,1-2.088-.059c-1.437-1.407-2.85-2.839-4.274-4.259C399.557,389.512,399.395,389.369,399.357,389.334Zm-5.039-11.161c-.712-1.161-1.456-2.377-2.2-3.591a36.319,36.319,0,0,0-5.2-6.613,2.918,2.918,0,0,0-4.282-.091q-1.362,1.31-2.672,2.673a2.929,2.929,0,0,0,.03,4.183c3.007,3.122,6.686,5.316,10.294,7.48Zm1.934,2.568-3.413,3.408c.925.852,1.891,1.762,2.882,2.647a1.224,1.224,0,0,0,1.765,0,18.363,18.363,0,0,0,1.433-1.436,1.166,1.166,0,0,0,.045-1.651C398.064,382.669,397.113,381.677,396.251,380.741Z" transform="translate(-1.554)" fill="#f15a4f"/>
    <path id="Path_10248" data-name="Path 10248" d="M650.089,465.039c0-.823-.015-1.646,0-2.468a1.44,1.44,0,1,1,2.88-.077q.065,2.539,0,5.081a1.441,1.441,0,1,1-2.88-.068C650.073,466.685,650.089,465.862,650.089,465.039Z" transform="translate(-243.52 -78.549)" fill="#f15a4f"/>
    <path id="Path_10249" data-name="Path 10249" d="M673.849,495.465a5.781,5.781,0,0,1-1.118-.938,1.133,1.133,0,0,1,.126-1.482c1.257-1.309,2.532-2.6,3.848-3.85a1.356,1.356,0,0,1,1.9.132,1.392,1.392,0,0,1,.107,1.859c-1.248,1.317-2.543,2.589-3.848,3.85A3.639,3.639,0,0,1,673.849,495.465Z" transform="translate(-261.601 -100.944)" fill="#f15a4f"/>
    <path id="Path_10250" data-name="Path 10250" d="M536.293,540.793a1.44,1.44,0,0,1-1.417-1.447,1.477,1.477,0,0,1,1.446-1.435,1.447,1.447,0,0,1,1.44,1.5A1.411,1.411,0,0,1,536.293,540.793Z" transform="translate(-150.647 -140.484)" fill="#f15a4f"/>
    <path id="Path_10251" data-name="Path 10251" d="M407.2,634.254a4.634,4.634,0,1,1-4.637,4.589A4.628,4.628,0,0,1,407.2,634.254Zm-.043,6.353a1.72,1.72,0,1,0,.073-3.439,1.72,1.72,0,0,0-.073,3.439Z" transform="translate(-43.982 -218.149)" fill="#f15a4f"/>
    <path id="Path_10252" data-name="Path 10252" d="M637.826,634.252a4.634,4.634,0,0,1-.006,9.268,4.634,4.634,0,1,1,.006-9.268Zm1.72,4.636a1.7,1.7,0,0,0-1.683-1.722,1.72,1.72,0,1,0-.081,3.439A1.7,1.7,0,0,0,639.546,638.888Z" transform="translate(-229.885 -218.148)" fill="#f15a4f"/>
    <path id="Path_10253" data-name="Path 10253" d="M537.753,640.435a1.455,1.455,0,0,1-1.41,1.46,1.447,1.447,0,1,1-.018-2.894A1.435,1.435,0,0,1,537.753,640.435Z" transform="translate(-150.637 -221.976)" fill="#f15a4f"/>
  </g>
</svg>
