<svg xmlns="http://www.w3.org/2000/svg" width="72.571" height="100.075" viewBox="0 0 72.571 100.075">
  <g id="Group_8391" data-name="Group 8391" transform="translate(-355.714 -284)">
    <path id="Path_10467" data-name="Path 10467" d="M394.6,284c1.886.316,3.8.527,5.654.966a35.877,35.877,0,0,1,27.658,30.271c1.684,12.883-2.387,23.8-12.314,32.384-3.644,3.152-7.347,6.248-10.351,10.06-.463.588-.916,1.184-1.369,1.78a1.531,1.531,0,0,0-.13.288c2.021.417,4.047.72,6,1.268,2.372.665,4.7,1.5,7.02,2.337a1.483,1.483,0,0,1,1.022,2.08,1.53,1.53,0,0,1-2.179.6,50.983,50.983,0,0,0-13.174-3.43.883.883,0,0,0-1.065.573c-1.187,2.384-2.459,4.729-3.573,7.146-1.217,2.642-3.231,4.17-5.849,4.084a6.16,6.16,0,0,1-5.754-4.1c-1.081-2.432-2.328-4.791-3.547-7.159a1.119,1.119,0,0,0-.861-.537c-5.08.671-10.091,1.647-14.674,4.072a14.866,14.866,0,0,0-3.3,2.384c-1.6,1.539-1.567,3.273-.057,4.914a14.5,14.5,0,0,0,5.413,3.4,52.381,52.381,0,0,0,14.6,3.324,80.541,80.541,0,0,0,18.029-.174,45.2,45.2,0,0,0,13.928-3.565,19.452,19.452,0,0,0,4.371-2.872c1.556-1.344,1.613-2.531.683-4.357a1.469,1.469,0,0,1,.48-2.117,1.453,1.453,0,0,1,2.067.673,5.654,5.654,0,0,1,.015,6.436,11.806,11.806,0,0,1-4.332,3.859,37.887,37.887,0,0,1-12.518,4.186,80.14,80.14,0,0,1-32.088-.67,30.121,30.121,0,0,1-9.692-3.737,16.03,16.03,0,0,1-3.542-3.012,5.5,5.5,0,0,1,.021-7.646,17.746,17.746,0,0,1,4.471-3.542c4.159-2.341,8.774-3.372,13.442-4.153.224-.038.451-.061.675-.1.19-.035.376-.085.8-.181-1.408-1.655-2.631-3.3-4.07-4.737-2.884-2.87-5.888-5.618-8.839-8.421-3.878-3.683-7.265-7.718-9.328-12.74a36.312,36.312,0,0,1,30.341-49.671,4.185,4.185,0,0,0,.648-.163Zm30.8,35.691c-.123-1.207-.221-3.031-.505-4.826-3.174-20.031-23.949-32.795-43.138-26.264-12.4,4.219-20.039,12.978-22.548,25.888a30.711,30.711,0,0,0,3.879,22.184c2.279,3.821,5.515,6.82,8.758,9.794,3.985,3.654,8,7.274,11.125,11.746a54.573,54.573,0,0,1,5.951,10.947,3.306,3.306,0,0,0,2.2,2.176,3.129,3.129,0,0,0,3.9-2.061,49.092,49.092,0,0,1,9.775-15.523c2.892-3.032,6.026-5.849,9.189-8.6C421.551,338.565,425.173,330.233,425.408,319.691Z" fill="#f15a4f"/>
    <path id="Path_10468" data-name="Path 10468" d="M461.688,363.849c.012,15.233-12.372,27-26.991,26.159a25.136,25.136,0,0,1-17.463-8.269,2.41,2.41,0,0,1-.591-.877,1.356,1.356,0,0,1,.647-1.68,1.544,1.544,0,0,1,1.936.376,44.8,44.8,0,0,0,5.1,4.2c13.536,8.5,31.744.058,34.117-15.753a22.633,22.633,0,1,0-43.086,5.563c.065.149.138.3.191.449a1.473,1.473,0,0,1-.8,2.024,1.355,1.355,0,0,1-1.876-.9,41.327,41.327,0,0,1-2.058-6.987,25.466,25.466,0,0,1,18.661-28.393c14.529-4.04,29.866,6.006,31.89,20.9C461.543,361.923,461.624,363.191,461.688,363.849Z" transform="translate(-44.08 -44.105)" fill="#f15a4f"/>
    <path id="Path_10469" data-name="Path 10469" d="M492,405.107c0,1.172.012,2.345,0,3.517A3.2,3.2,0,0,1,488.629,412c-1.53.028-3.061.025-4.591,0-.627-.011-.862.209-.846.854.037,1.529.026,3.061.007,4.591a3.18,3.18,0,0,1-3.3,3.347c-2.377.033-4.754.029-7.131,0a3.178,3.178,0,0,1-3.355-3.3c-.051-1.529-.038-3.061,0-4.59.015-.676-.216-.926-.9-.91-1.5.036-3,.028-4.493,0a3.2,3.2,0,0,1-3.4-3.354q-.069-3.515,0-7.033a3.213,3.213,0,0,1,3.481-3.373c1.433-.011,2.867-.04,4.3.012.759.028,1.051-.2,1.022-.986-.051-1.4-.026-2.8-.011-4.2.025-2.36,1.286-3.616,3.629-3.622,2.247-.005,4.494-.011,6.74,0a3.212,3.212,0,0,1,3.428,3.416c.014,1.5.033,3-.01,4.493-.02.7.238.908.908.892,1.5-.036,3-.023,4.493-.007a3.212,3.212,0,0,1,3.4,3.441C492.009,402.827,492,403.967,492,405.107Zm-28.325-3.932a4.886,4.886,0,0,0-.126.736c-.009,2.117.011,4.234-.016,6.35-.008.653.256.842.872.829,1.465-.03,2.931-.023,4.4-.005a3.26,3.26,0,0,1,3.534,3.533c.022,1.433.032,2.867-.006,4.3-.018.694.169.99.928.974,2.051-.046,4.1-.039,6.155,0,.7.012.888-.255.869-.917-.041-1.432-.019-2.866-.011-4.3a3.3,3.3,0,0,1,3.587-3.587c1.4-.014,2.8-.048,4.2.014.838.037,1.045-.275,1.024-1.066-.051-1.92-.057-3.844,0-5.764.026-.838-.176-1.16-1.072-1.114-1.462.075-2.93.043-4.4.014a3.259,3.259,0,0,1-3.342-3.337c-.021-1.107,0-2.215,0-3.322,0-2.128,0-2.128-2.166-2.128H472.34c0,1.812.014,3.5,0,5.185a3.3,3.3,0,0,1-3.659,3.608C467.021,401.179,465.364,401.174,463.675,401.174Z" transform="translate(-84.296 -84.76)" fill="#f15a4f"/>
  </g>
</svg>
