<svg xmlns="http://www.w3.org/2000/svg" width="22" height="22.001" viewBox="0 0 22 22.001">
  <g id="Group_9776" data-name="Group 9776" transform="translate(-336.816 -336)">
    <path id="Path_10943" data-name="Path 10943" d="M347.6,336h.43a2.335,2.335,0,0,1,.852.624q4.652,4.658,9.31,9.31a2.334,2.334,0,0,1,.624.852v.43a3.34,3.34,0,0,1-.388.6q-4.89,4.909-9.8,9.8a1.4,1.4,0,0,1-.518.328,1.087,1.087,0,0,1-1.173-.378q-4.843-4.849-9.691-9.694a2.456,2.456,0,0,1-.214-.24,1.026,1.026,0,0,1-.008-1.257,2.819,2.819,0,0,1,.259-.287q4.731-4.733,9.462-9.466A2.334,2.334,0,0,1,347.6,336Zm2.412,8.8h-.293c-1.689,0-3.379,0-5.068,0a1.7,1.7,0,0,0-.608.092,1.035,1.035,0,0,0-.627,1.092c0,1.367,0,2.734,0,4.1,0,.063.008.125.012.2h2.188v-3.273h4.409v2.68l3.775-3.779-3.791-3.8Z" fill="#fff"/>
  </g>
</svg>
