<svg xmlns="http://www.w3.org/2000/svg" width="20.213" height="15.735" viewBox="0 0 20.213 15.735">
  <g id="Group_3519" data-name="Group 3519" transform="translate(-80.592 -377.306)">
    <g id="fi-rr-eye" transform="translate(80.592 377.306)">
      <path id="Path_98" data-name="Path 98" d="M19.591,8.349A11.15,11.15,0,0,0,10.1,2.655,11.15,11.15,0,0,0,.613,8.349a4.132,4.132,0,0,0,0,4.346A11.15,11.15,0,0,0,10.1,18.39,11.15,11.15,0,0,0,19.591,12.7,4.132,4.132,0,0,0,19.591,8.349Zm-1.435,3.464A9.525,9.525,0,0,1,10.1,16.706a9.525,9.525,0,0,1-8.053-4.892,2.457,2.457,0,0,1,0-2.583A9.525,9.525,0,0,1,10.1,4.339a9.518,9.518,0,0,1,8.053,4.892A2.457,2.457,0,0,1,18.155,11.814Z" transform="translate(0.004 -2.655)" fill="#707070"/>
      <path id="Path_99" data-name="Path 99" d="M11.209,7a4.209,4.209,0,1,0,4.209,4.209A4.209,4.209,0,0,0,11.209,7Zm0,6.735a2.526,2.526,0,1,1,2.526-2.526A2.526,2.526,0,0,1,11.209,13.735Z" transform="translate(-1.103 -3.342)" fill="#707070"/>
    </g>
  </g>
</svg>
