<svg xmlns="http://www.w3.org/2000/svg" width="77" height="76.981" viewBox="0 0 77 76.981">
  <g id="Group_8108" data-name="Group 8108" transform="translate(-231.333 -218.071)">
    <g id="Group_8119" data-name="Group 8119" transform="translate(-122.773 -135.782)">
      <path id="Path_10310" data-name="Path 10310" d="M399.748,414.768c2.31,2.959,1.931,5.952-1.031,8.242a11.944,11.944,0,0,1-4.37,2.1,1.531,1.531,0,0,0-1.1.943c-.454.985-.952,1.95-1.448,2.915a3.257,3.257,0,0,1-5.891,0c-.517-1.012-.986-2.051-1.551-3.035a2.235,2.235,0,0,0-.934-.781,35.81,35.81,0,0,1-4.288-2.085c-2.717-1.848-3.864-5.111-1.155-8.315a14.963,14.963,0,0,1-2.506-5.846,14.427,14.427,0,0,1,2.948-11.952c.827-1.059,1.766-2.029,2.626-3.062a12.257,12.257,0,0,0-4.1-18.872c-.232-.112-.475-.2-.742-.311l-.789,1.984c.121.071.244.153.375.218a7.45,7.45,0,0,1-3.413,14.207,18.621,18.621,0,1,1,2.689-37.1,7.276,7.276,0,0,1,6.309,6.91,7.46,7.46,0,0,1-5.384,7.543c-.12.037-.236.091-.307.119.247,1.1.468,2.18.744,3.241a.907.907,0,0,0,.509.47,14.777,14.777,0,0,1,5.589,23.676c-1.437,1.658-3,3.22-3.851,5.308a12.255,12.255,0,0,0,1.218,11.885,19.174,19.174,0,0,1,17.929,0l1.109-1.961a39.2,39.2,0,0,1-3.5-3.2,15.752,15.752,0,0,1-3.238-15.856,1.981,1.981,0,0,0,0-1.166,14.738,14.738,0,0,1,8.409-18.606,1.082,1.082,0,0,0,.772-.973c.148-.911.421-1.8.663-2.785-.089-.035-.264-.116-.445-.173a7.454,7.454,0,0,1,2.121-14.589,18.79,18.79,0,0,1,14.76,5.791,18.577,18.577,0,0,1,.441,25.185l-.532.609a16.028,16.028,0,0,1,4.017,5.76,15.789,15.789,0,0,1-.446,13.216.809.809,0,0,0,.177,1.122q3.787,3.73,7.52,7.515a4.752,4.752,0,0,1-2.682,8.1,4.664,4.664,0,0,1-4.141-1.488c-2.467-2.471-4.947-4.93-7.4-7.419a.97.97,0,0,0-1.314-.252,15.775,15.775,0,0,1-12.295.436c-.192-.07-.385-.135-.586-.2Zm-26.8-58.47a16.17,16.17,0,0,0-.407,32.337,4.957,4.957,0,0,0,.964-9.848c-1.588-.31-1.9-1.153-.909-2.43a6.136,6.136,0,0,0,.168-7.493c-.424-.581-1.018-1.1-.617-1.927.409-.841,1.191-.648,1.9-.655a4.989,4.989,0,0,0,4.853-4.468,4.936,4.936,0,0,0-3.805-5.3A18.22,18.22,0,0,0,372.944,356.3Zm27.248,26.612a16.242,16.242,0,0,1,16.189.929,2.315,2.315,0,0,0,.24-.2,15.587,15.587,0,0,0,4.251-13.914,15.745,15.745,0,0,0-13.237-13.116,15.494,15.494,0,0,0-5.227-.011,4.766,4.766,0,0,0-3.584,5.351,4.967,4.967,0,0,0,5.208,4.318c.631-.022,1.212.013,1.525.65a1.328,1.328,0,0,1-.259,1.5,6.126,6.126,0,0,0,0,8.158,1.247,1.247,0,0,1-.843,2.156c-.2.038-.407.074-.609.121A4.752,4.752,0,0,0,400.191,382.91Zm7.254.765a13.656,13.656,0,1,0,13.691,13.794A13.669,13.669,0,0,0,407.445,383.675ZM388.5,413.458c-.477.04-1.306.067-2.122.184a11.617,11.617,0,0,0-6.051,2.366c-1.9,1.6-1.867,3.347.057,4.932a1.98,1.98,0,0,0,.436.319c1.32.568,2.625,1.179,3.978,1.656a2.178,2.178,0,0,1,1.438,1.152q.852,1.824,1.812,3.6c.152.281.519.642.765.626a1.284,1.284,0,0,0,.844-.631c.612-1.106,1.179-2.239,1.7-3.389a2.259,2.259,0,0,1,1.7-1.382,8.971,8.971,0,0,0,4.922-2.6,2.442,2.442,0,0,0-.023-3.668,9.728,9.728,0,0,0-2.425-1.754A15.453,15.453,0,0,0,388.5,413.458Zm28.843-2.932c2.394,2.429,4.956,5.086,7.6,7.655a2.585,2.585,0,0,0,1.789.444,1.964,1.964,0,0,0,1.743-1.545,2.2,2.2,0,0,0-.648-2.33q-3.584-3.6-7.178-7.185a3.4,3.4,0,0,0-.3-.253Zm-15.833-35.8c-5.25,1.876-9.053,8.8-7.423,13.369.977-1.008,1.951-2.067,2.993-3.056a1.351,1.351,0,0,0,.484-1.119,7.3,7.3,0,0,1,4.27-6.981c.154-.079.3-.166.458-.25Z" fill="#f15a4f"/>
      <path id="Path_10311" data-name="Path 10311" d="M569.26,532.317a11.172,11.172,0,1,1,11.149-11.235A11.182,11.182,0,0,1,569.26,532.317Zm-8.717-11.179a8.691,8.691,0,1,0,8.755-8.682A8.707,8.707,0,0,0,560.543,521.138Z" transform="translate(-161.754 -123.818)" fill="#f15a4f"/>
    </g>
  </g>
</svg>
