<svg xmlns="http://www.w3.org/2000/svg" width="73.232" height="78.102" viewBox="0 0 73.232 78.102">
  <g id="Group_3555" data-name="Group 3555" transform="translate(-359.999 -348)">
    <path id="Path_10221" data-name="Path 10221" d="M419.341,348a3.892,3.892,0,0,1,2.851,3.138,12.56,12.56,0,0,1,.013,1.743c1.51,0,2.925,0,4.341,0a19.071,19.071,0,0,1,2.437.051,4.873,4.873,0,0,1,4.239,5.127q0,23.452,0,46.9c0,1.373.019,2.746-.007,4.118a4.847,4.847,0,0,1-4.828,4.8c-4.423.029-8.847.012-13.271.006-.883,0-1.433-.506-1.414-1.246.018-.715.547-1.167,1.4-1.19.178,0,.356,0,.534,0q6.216,0,12.432,0a2.458,2.458,0,0,0,2.715-2.683q.005-20.287,0-40.574v-.633H362.44v.787q0,20.135,0,40.269c0,1.912.934,2.834,2.87,2.834H381.4a4.293,4.293,0,0,1,.685.015,1.178,1.178,0,0,1,1.086,1.178,1.2,1.2,0,0,1-1.108,1.235,5.033,5.033,0,0,1-.61.012q-8.085,0-16.17,0A4.9,4.9,0,0,1,360,408.625q0-25.244,0-50.489a4.895,4.895,0,0,1,5.228-5.255c1.879,0,3.759,0,5.776,0-.293-2.371.565-4.078,2.878-4.881h1.525a1.583,1.583,0,0,0,.251.146,3.675,3.675,0,0,1,2.647,3.745c0,.318,0,.636,0,.945h36.646a12,12,0,0,1,.013-1.7A3.893,3.893,0,0,1,417.816,348Zm-56.9,17.033h68.33c0-2.514.034-4.977-.014-7.439a2.378,2.378,0,0,0-2.421-2.266c-1.321-.023-2.644-.006-3.965-.006H422.24c0,.846.007,1.581,0,2.316a3.662,3.662,0,1,1-7.32,0c-.008-.754,0-1.508,0-2.265H378.3c0,.787.006,1.521,0,2.255a3.662,3.662,0,1,1-7.32.019c-.008-.755,0-1.509,0-2.312-2.188,0-4.293-.048-6.395.019a2.3,2.3,0,0,0-2.129,2.229C362.417,360.047,362.446,362.511,362.446,365.033Zm13.417-10.3c0-.991.015-1.983,0-2.974a1.22,1.22,0,1,0-2.429.025q-.021,2.936,0,5.871a1.215,1.215,0,0,0,1.188,1.318,1.23,1.23,0,0,0,1.242-1.343C375.877,356.669,375.864,355.7,375.863,354.737Zm41.5-.018c0,.966-.012,1.932,0,2.9a1.225,1.225,0,1,0,2.432-.014q.019-2.9,0-5.795a1.225,1.225,0,1,0-2.432.014C417.348,352.787,417.359,353.753,417.359,354.718Z" transform="translate(0)" fill="#f15a4f"/>
    <path id="Path_10222" data-name="Path 10222" d="M459.171,550.394a26.363,26.363,0,0,1-3.974-1.219,12.43,12.43,0,0,1-7.453-11.488c-.078-2.259-.013-4.522-.013-6.841-.411-.089-.8-.17-1.188-.258a10.977,10.977,0,0,1-8.571-10.594q-.035-5.529,0-11.058a4.858,4.858,0,0,1,4.118-4.853,3.474,3.474,0,0,1,.758-.054,1.213,1.213,0,0,1,1.212,1.137A1.236,1.236,0,0,1,443,506.449c-2.019.364-2.589,1.035-2.589,3.052,0,3.483-.031,6.966.009,10.448a8.526,8.526,0,0,0,17.035.478c.119-3.86.05-7.727.029-11.591a2.409,2.409,0,0,0-2.25-2.369c-.961-.109-1.469-.605-1.388-1.353s.7-1.158,1.64-1.078a4.839,4.839,0,0,1,4.43,4.647c.05,3.94.1,7.883-.014,11.82a10.951,10.951,0,0,1-9.116,10.209c-.173.028-.345.06-.493.085-.046.074-.094.116-.093.157.036,2.767-.139,5.558.163,8.3.545,4.935,5.129,8.709,10.207,8.7a10.386,10.386,0,0,0,10.2-8.669,9.9,9.9,0,0,0,.138-1.363c.014-2.362.007-4.723.007-7.133a7.432,7.432,0,0,1-5.167-3.693,7.163,7.163,0,0,1-.767-5.086,7.326,7.326,0,1,1,8.38,8.776c0,1.626.036,3.273-.011,4.918a27.857,27.857,0,0,1-.3,4.473,12.671,12.671,0,0,1-10.71,10.083,2.625,2.625,0,0,0-.425.135Zm11.746-22.169c0-.688.041-1.325-.018-1.953a1.554,1.554,0,0,0-.384-.893,2.445,2.445,0,0,1-.108-3.539,2.434,2.434,0,1,1,3.327,3.548,1.082,1.082,0,0,0-.359.6c-.044.729-.017,1.462-.017,2.2A4.764,4.764,0,0,0,477,523.139a4.887,4.887,0,0,0-9.716-.2A4.849,4.849,0,0,0,470.917,528.225Z" transform="translate(-62.102 -124.292)" fill="#f15a4f"/>
  </g>
</svg>
