<svg xmlns="http://www.w3.org/2000/svg" xmlns:xlink="http://www.w3.org/1999/xlink" width="324.576" height="212.971" viewBox="0 0 324.576 212.971">
  <defs>
    <linearGradient id="linear-gradient" y1="0.5" x2="1" y2="0.5" gradientUnits="objectBoundingBox">
      <stop offset="0" stop-color="#00503e"/>
      <stop offset="1" stop-color="#023222"/>
    </linearGradient>
    <linearGradient id="linear-gradient-4" x1="0.26" y1="0.5" x2="0.74" y2="0.5" xlink:href="#linear-gradient"/>
    <linearGradient id="linear-gradient-6" y1="0.5" x2="1" y2="0.5" gradientUnits="objectBoundingBox">
      <stop offset="0" stop-color="#fb9a2b"/>
      <stop offset="1" stop-color="#e65925"/>
    </linearGradient>
  </defs>
  <g id="Group_9775" data-name="Group 9775" transform="translate(-1109.635 -439.03)">
    <path id="Path_10867" data-name="Path 10867" d="M1129.1,1311.49l284.712,54.241h37.327v-64.2c-36.761-10.68-97.832-27.637-122.775-30-36.8-3.486-135.183,4.261-161.91,12.008-15.535,4.5-26.279,15.615-35.031,20.9Z" transform="translate(-16.93 -713.731)" fill="#91312a"/>
    <path id="Path_10868" data-name="Path 10868" d="M1497.57,1310.788c9.027-4.989,18.8-9.96,28.328-14.258,22.056-9.76,36.259-13.946,57.512-18.995q8.283-1.894,15.93-3.307-2.791.1-5.636.226c-8.119,1.573-16.745,3.512-25.627,5.857a269.107,269.107,0,0,0-30.982,10.024l-2.632,1.05a381.153,381.153,0,0,0-40.348,19.373Z" transform="translate(-334.37 -716.82)" fill="#f15a4f"/>
    <path id="Path_10869" data-name="Path 10869" d="M2631.725,1279.39c-8.4,4.015-6.468,7.47-6.436,7.717,2.089,6.3,108.389,28.953,114.8,30.328l-7.926-.068c-24.318-5.494-52.554-12.178-73.278-17.749-7.022-1.889-24.668-5.6-31.121-9-.863-.455-2.927-2.111-3.39-3.672-.616-2.077,1.135-5.338,6.75-7.626Z" transform="translate(-1317.215 -721.245)" fill="#f15a4f"/>
    <path id="Path_10870" data-name="Path 10870" d="M2224.638,1271.617a118.7,118.7,0,0,0-26.938,14.355,74.008,74.008,0,0,0-21.623,23.269l-1.942-.016c5.537-9.67,13.36-17.6,22.9-24.192a118.714,118.714,0,0,1,26.668-13.441Z" transform="translate(-925.761 -714.526)" fill="#f15a4f"/>
    <g id="Group_9771" data-name="Group 9771" transform="translate(1338.069 475.877)">
      <path id="Path_10871" data-name="Path 10871" d="M2898.842,654.932a21.387,21.387,0,1,0,0,30.246A21.248,21.248,0,0,0,2898.842,654.932Zm-15.123,33.842a18.719,18.719,0,1,1,18.719-18.719A18.74,18.74,0,0,1,2883.719,688.774Z" transform="translate(-2862.332 -648.668)" fill="#f15a4f"/>
      <path id="Path_10872" data-name="Path 10872" d="M2995.687,716.15c0,2.814.008,2.723,0,3.229-.022,1.056,1.159,1.451,2.084,2.934a.824.824,0,0,1,.1.418c.006,2.178.014,4.357,0,6.535a1.3,1.3,0,0,1-1.082,1.29,2.5,2.5,0,0,1-1.349-.067,1.342,1.342,0,0,1-.881-1.189c-.022-.839-.053-1.679-.048-2.518,0-.521-.237-.585-.589-.641a3.192,3.192,0,0,0-.472,0c0,2.41,0,3.926.006,5.58a1.214,1.214,0,0,1-1.09,1.1c-3.367-.015-6.735-.007-10.1-.008a1.089,1.089,0,0,1-1.036-.941c-.059-2.288-.072-3.052-.052-17.7a1.194,1.194,0,0,1,.733-1.3c.208-.076-.506-.054,10.531-.052a1.071,1.071,0,0,1,1.01,1.007c.016.846-.058,1.123.135,1.33q.416.448.865.863C2994.633,716.191,2994.876,716.15,2995.687,716.15Zm-12.23,3.316h7.694v-4.4h-7.694Zm10,5.539c.366,0,.7,0,1.04,0a1.224,1.224,0,0,1,1.189,1.188q0,1.34,0,2.681a.487.487,0,0,0,.552.557c.323,0,.5-.2.5-.553,0-5.836.053-5.722-.153-6.024-1.052-1.543-2.082-1.821-2.085-3.04q0-.71,0-1.418h-1.046Z" transform="translate(-2965.676 -704.453)" fill="#f15a4f"/>
      <path id="Path_10873" data-name="Path 10873" d="M2972.578,889.661h-.016l-1,.478-.2-.923,1.393-.648h1.021v5.264h-1.19Z" transform="translate(-2957.146 -857.301)" fill="#f15a4f"/>
      <path id="Path_10874" data-name="Path 10874" d="M3018.127,888.3h.016c.294-.535.486-.762,1.085-1.668h1.482l-1.417,1.6,1.62,2.356H3019.4l-.955-1.628-.316.389v1.239H3016.9v-5.749h1.231Z" transform="translate(-2996.751 -854.06)" fill="#f15a4f"/>
      <path id="Path_10875" data-name="Path 10875" d="M3050.944,897.944h1.036l.057.534h.024a1.322,1.322,0,0,1,2.283.049h.016a1.487,1.487,0,0,1,1.263-.672c.761,0,1.336.534,1.336,1.717V901.9h-1.2V899.75c0-.575-.187-.907-.583-.907a.659.659,0,0,0-.615.745V901.9h-1.2v-2.219c0-1.238-1.19-.989-1.19-.089V901.9h-1.2C3050.965,899.382,3051,899.15,3050.944,897.944Z" transform="translate(-3026.362 -865.373)" fill="#f15a4f"/>
    </g>
    <path id="Path_10876" data-name="Path 10876" d="M1525.319,1410.6H1238.745l12.891-13.171,8.807-25.514,1.884-5.458,6.715-19.453,4.713-13.654,14.309-3.226,4.751-1.071,8.512-1.919,7.888-1.778h.05a14.511,14.511,0,0,0,4.689-.79,47.754,47.754,0,0,1,15.148-2.3q1.179,0,2.332.048a49.086,49.086,0,0,1,9.89,1.387q1.039.262,2.088.484a53.039,53.039,0,0,0,10.989,1.168l114.385.252,33.934,7.993,2.482,7.515,1.937,5.861,6.435,19.481.777,2.354,9.536,28.869Z" transform="translate(-112.283 -758.6)" fill="#6a1f19"/>
    <path id="Path_10877" data-name="Path 10877" d="M1803.364,1371H1659.727a7.031,7.031,0,0,0-6.19,3.7l-6.49,12.053a7.031,7.031,0,0,0,6.19,10.364h54.016a7.031,7.031,0,0,1,7.031,7.031l4.394,32.25c0,3.883-1.246,7.674,2.637,7.674h38.92c3.883,0,2.507-1.708,2.507-5.591l4.733-38.225c0-3.883,2.938-5.65,6.821-5.65h31.11a7.031,7.031,0,0,0,6.862-8.56c-.7-3.125-1.448-6.58-2.01-9.389A7.031,7.031,0,0,0,1803.364,1371Z" transform="translate(-466.63 -800.981)" fill="#f15a4f"/>
    <path id="Path_10878" data-name="Path 10878" d="M1815.87,1380.327a43.881,43.881,0,0,0-27.522,0,11.733,11.733,0,0,0-6.736,5.365,5.757,5.757,0,0,0,.055,6.175c2.241,3.259,7.56,3.887,11.368,2.637a28.929,28.929,0,0,1,18.147,0c3.838,1.26,9.14.6,11.368-2.637a5.7,5.7,0,0,0,.056-6.175A11.734,11.734,0,0,0,1815.87,1380.327Z" transform="translate(-583.66 -807.166)" fill="#91312a"/>
    <path id="Path_10879" data-name="Path 10879" d="M2265.659,1588.857a4.78,4.78,0,0,0-3.278-4.532,3.022,3.022,0,0,0-2.823-1.942h-31.25a3.021,3.021,0,0,0-2.751,1.771,4.771,4.771,0,0,0-.165,9.375,3.022,3.022,0,0,0,2.916,2.227h31.25a3.022,3.022,0,0,0,2.96-2.415A4.779,4.779,0,0,0,2265.659,1588.857Z" transform="translate(-967.032 -984.812)" fill="url(#linear-gradient)"/>
    <rect id="Rectangle_1857" data-name="Rectangle 1857" width="20.904" height="1.507" transform="translate(1266.141 599.274)" fill="#91312a"/>
    <rect id="Rectangle_1858" data-name="Rectangle 1858" width="24.859" height="6.654" transform="translate(1264.164 602.538)" fill="#91312a"/>
    <path id="Path_10880" data-name="Path 10880" d="M2234.74,1612.113h0a3.515,3.515,0,0,1-3.515-3.515h0a3.515,3.515,0,0,1,3.515-3.515h0a3.515,3.515,0,0,1,3.515,3.515h0A3.515,3.515,0,0,1,2234.74,1612.113Z" transform="translate(-975.409 -1004.553)" fill="#91312a"/>
    <path id="Path_10881" data-name="Path 10881" d="M2499.644,1612.113h0a3.515,3.515,0,0,1-3.515-3.515h0a3.515,3.515,0,0,1,3.515-3.515h0a3.515,3.515,0,0,1,3.515,3.515h0A3.515,3.515,0,0,1,2499.644,1612.113Z" transform="translate(-1205.788 -1004.553)" fill="#91312a"/>
    <path id="Rectangle_1859" data-name="Rectangle 1859" d="M7.094,0h5.4a7.093,7.093,0,0,1,7.093,7.093v0a7.093,7.093,0,0,1-7.093,7.093h-5.4A7.093,7.093,0,0,1,0,7.094v0A7.094,7.094,0,0,1,7.094,0Z" transform="translate(1277.158 577.805)" fill="url(#linear-gradient)"/>
    <rect id="Rectangle_1860" data-name="Rectangle 1860" width="19.586" height="14.187" rx="7.093" transform="translate(1251.923 577.805)" fill="url(#linear-gradient)"/>
    <rect id="Rectangle_1861" data-name="Rectangle 1861" width="16.447" height="31.513" rx="8.223" transform="translate(1253.806 551.942)" fill="#edfdfc"/>
    <path id="Rectangle_1862" data-name="Rectangle 1862" d="M6.968,0H22.034A6.968,6.968,0,0,1,29,6.968v0a6.968,6.968,0,0,1-6.968,6.968H6.968A6.968,6.968,0,0,1,0,6.968v0A6.968,6.968,0,0,1,6.968,0Z" transform="translate(1268.998 553.198) rotate(90)" fill="url(#linear-gradient-4)"/>
    <path id="Path_10882" data-name="Path 10882" d="M2240.489,1250.89h-8.657a2.08,2.08,0,0,0-2.078,2.078v3.324h12.813v-3.324A2.08,2.08,0,0,0,2240.489,1250.89Z" transform="translate(-974.131 -696.523)" fill="#f15a4f"/>
    <path id="Path_10883" data-name="Path 10883" d="M2229.754,1292.335v19.184a2.08,2.08,0,0,0,2.078,2.078h8.657a2.08,2.08,0,0,0,2.078-2.078v-19.184Z" transform="translate(-974.131 -732.567)" fill="#f15a4f"/>
    <path id="Path_10884" data-name="Path 10884" d="M2252.276,1300.651a5.871,5.871,0,0,0-3.246,4.69c-.449,3.527,3.489,5.253,4.449,5.619.172.377.557,1.421.984,2.637h1.2c-.092-.263-.189-.54-.287-.817-.252-.711-.462-1.282-.623-1.7-.32-.825-.425-1.027-.712-1.123-.043-.014-4.271-1.46-3.887-4.477a4.733,4.733,0,0,1,2.883-3.93l.4-.134-.325-9.086h-1.13Z" transform="translate(-990.864 -732.567)" fill="#edfdfc"/>
    <path id="Path_10885" data-name="Path 10885" d="M2264.779,1754.505l-34.007.429a1.908,1.908,0,0,1-1.761-2.7l.5-1.108a7.579,7.579,0,0,1,6.9-4.443h22.9a7.579,7.579,0,0,1,7.029,4.745l.183.453A1.908,1.908,0,0,1,2264.779,1754.505Z" transform="translate(-973.334 -1127.701)" fill="url(#linear-gradient)"/>
    <path id="Rectangle_1863" data-name="Rectangle 1863" d="M14.314,0H53.173a0,0,0,0,1,0,0V14.314a0,0,0,0,1,0,0H0a0,0,0,0,1,0,0v0A14.314,14.314,0,0,1,14.314,0Z" transform="translate(1300.821 584.952)" fill="#466eb6"/>
    <path id="Path_10886" data-name="Path 10886" d="M1627.664,1321.571h0l-.209-.233q-.559-.622-1.066-1.192l-.3-.336-.285-.321-.2-.221-.647-.731-.1-.111-.1-.117-.11-.125-.178-.2-.522-.6q-.077.457-.15.922h.264l3.875,5.274Zm0,0h0l-.209-.233q-.559-.622-1.066-1.192l-.3-.336-.285-.321-.2-.221-.647-.731-.1-.111-.1-.117-.11-.125-.178-.2-.522-.6q-.077.457-.15.922h.264l3.875,5.274Zm0,0h0l-.209-.233q-.559-.622-1.066-1.192l-.3-.336-.285-.321-.2-.221-.647-.731-.1-.111-.1-.117-.11-.125-.178-.2-.522-.6q-.077.457-.15.922h.264l3.875,5.274Zm0,0h0l-.209-.233q-.559-.622-1.066-1.192l-.3-.336-.285-.321-.2-.221-.647-.731-.1-.111-.1-.117-.11-.125-.178-.2-.522-.6q-.077.457-.15.922h.264l3.875,5.274Zm0,0h0l-.209-.233q-.559-.622-1.066-1.192l-.3-.336-.285-.321-.2-.221-.647-.731-.1-.111-.1-.117-.11-.125-.178-.2-.522-.6q-.077.457-.15.922h.264l3.875,5.274Zm0,0h0l-.209-.233q-.559-.622-1.066-1.192l-.3-.336-.285-.321-.2-.221-.647-.731-.1-.111-.1-.117-.11-.125-.178-.2-.522-.6q-.077.457-.15.922h.264l3.875,5.274Zm0,0h0l-.209-.233q-.559-.622-1.066-1.192l-.3-.336-.285-.321-.2-.221-.647-.731-.1-.111-.1-.117-.11-.125-.178-.2-.522-.6q-.077.457-.15.922h.264l3.875,5.274Zm0,0h0l-.209-.233q-.559-.622-1.066-1.192l-.3-.336-.285-.321-.2-.221-.647-.731-.1-.111-.1-.117-.11-.125-.178-.2-.522-.6q-.077.457-.15.922h.264l3.875,5.274Zm0,0h0l-.209-.233q-.559-.622-1.066-1.192l-.3-.336-.285-.321-.2-.221-.647-.731-.1-.111-.1-.117-.11-.125-.178-.2-.522-.6q-.077.457-.15.922h.264l3.875,5.274Zm0,0h0l-.209-.233q-.559-.622-1.066-1.192l-.3-.336-.285-.321-.2-.221-.647-.731-.1-.111-.1-.117-.11-.125-.178-.2-.522-.6q-.077.457-.15.922h.264l3.875,5.274Zm0,0h0l-.209-.233q-.559-.622-1.066-1.192l-.3-.336-.285-.321-.2-.221-.647-.731-.1-.111-.1-.117-.11-.125-.178-.2-.522-.6q-.077.457-.15.922h.264l3.875,5.274Zm0,0h0l-.209-.233q-.559-.622-1.066-1.192l-.3-.336-.285-.321-.2-.221-.647-.731-.1-.111-.1-.117-.11-.125-.178-.2-.522-.6q-.077.457-.15.922h.264l3.875,5.274Zm0,0h0l-.209-.233q-.559-.622-1.066-1.192l-.3-.336-.285-.321-.2-.221-.647-.731-.1-.111-.1-.117-.11-.125-.178-.2-.522-.6q-.077.457-.15.922h.264l3.875,5.274Zm0,0h0l-.209-.233q-.559-.622-1.066-1.192l-.3-.336-.285-.321-.2-.221-.647-.731-.1-.111-.1-.117-.11-.125-.178-.2-.522-.6q-.077.457-.15.922h.264l3.875,5.274Zm0,0h0l-.209-.233q-.559-.622-1.066-1.192l-.3-.336-.285-.321-.2-.221-.647-.731-.1-.111-.1-.117-.11-.125-.178-.2-.522-.6q-.077.457-.15.922h.264l3.875,5.274Zm44.141-22.925a33.912,33.912,0,0,0-61.287-17.741q-.68.935-1.3,1.923-.331.528-.643,1.073a34.184,34.184,0,0,0-4.447,14.749c-.005.087-.011.174-.016.262h0a33.867,33.867,0,0,0,25.193,34.673l.4.1a33.888,33.888,0,0,0,10.2.975q.791-.047,1.576-.127a33.985,33.985,0,0,0,25.526-16.227,33.565,33.565,0,0,0,2.257-4.47,34.136,34.136,0,0,0,1.578-4.772q.306-1.221.52-2.441A33.719,33.719,0,0,0,1671.8,1298.646Zm-22.667-24.477a28.33,28.33,0,0,1,9.354,6.3,29.2,29.2,0,0,1,4.252,5.509,28.826,28.826,0,0,1,3.662,9.777,113.881,113.881,0,0,0-49.243-12.047q-1.233-.019-2.467-.012c.066-.09.134-.18.2-.269a28.821,28.821,0,0,1,34.242-9.261Zm-26.049,49.24a31.718,31.718,0,0,1-6.934-5.1c-5.118-5.051-7.5-11.506-7.03-19.238,0-.031,0-.062.006-.094q.024-.385.058-.772l.5-.029a99.4,99.4,0,0,1,17.4.524q-.154,1.305-.329,2.544c-.26,1.862-.549,3.625-.851,5.343-.328,1.86-.671,3.665-1.011,5.483q-.17.911-.339,1.828c-.209,1.145-.414,2.3-.609,3.49q-.077.457-.15.922C1623.542,1319.935,1623.3,1321.621,1623.089,1323.41Zm29.874,2.083a28.872,28.872,0,0,1-11.221,3.954c1.594-4.122,3.045-7.63,4.495-11.137.072-.174.144-.348.216-.522,1.378-3.335,2.763-6.7,4.279-10.615a81.353,81.353,0,0,1,14.186,4.025,28.745,28.745,0,0,1-3.88,6.995l-.09.117A28.9,28.9,0,0,1,1652.963,1325.493Zm-25.3-3.922h0l-.209-.233q-.559-.622-1.066-1.192l-.3-.336-.285-.321-.2-.221-.647-.731-.1-.111-.1-.117-.11-.125-.178-.2-.522-.6q-.077.457-.15.922h.264l3.875,5.274Zm0,0h0l-.209-.233q-.559-.622-1.066-1.192l-.3-.336-.285-.321-.2-.221-.647-.731-.1-.111-.1-.117-.11-.125-.178-.2-.522-.6q-.077.457-.15.922h.264l3.875,5.274Zm0,0h0l-.209-.233q-.559-.622-1.066-1.192l-.3-.336-.285-.321-.2-.221-.647-.731-.1-.111-.1-.117-.11-.125-.178-.2-.522-.6q-.077.457-.15.922h.264l3.875,5.274Zm0,0h0l-.209-.233q-.559-.622-1.066-1.192l-.3-.336-.285-.321-.2-.221-.647-.731-.1-.111-.1-.117-.11-.125-.178-.2-.522-.6q-.077.457-.15.922h.264l3.875,5.274Zm0,0h0l-.209-.233q-.559-.622-1.066-1.192l-.3-.336-.285-.321-.2-.221-.647-.731-.1-.111-.1-.117-.11-.125-.178-.2-.522-.6q-.077.457-.15.922h.264l3.875,5.274Zm0,0h0l-.209-.233q-.559-.622-1.066-1.192l-.3-.336-.285-.321-.2-.221-.647-.731-.1-.111-.1-.117-.11-.125-.178-.2-.522-.6q-.077.457-.15.922h.264l3.875,5.274Zm0,0h0l-.209-.233q-.559-.622-1.066-1.192l-.3-.336-.285-.321-.2-.221-.647-.731-.1-.111-.1-.117-.11-.125-.178-.2-.522-.6q-.077.457-.15.922h.264l3.875,5.274Zm0,0h0l-.209-.233q-.559-.622-1.066-1.192l-.3-.336-.285-.321-.2-.221-.647-.731-.1-.111-.1-.117-.11-.125-.178-.2-.522-.6q-.077.457-.15.922h.264l3.875,5.274Zm0,0h0l-.209-.233q-.559-.622-1.066-1.192l-.3-.336-.285-.321-.2-.221-.647-.731-.1-.111-.1-.117-.11-.125-.178-.2-.522-.6q-.077.457-.15.922h.264l3.875,5.274Zm0,0h0l-.209-.233q-.559-.622-1.066-1.192l-.3-.336-.285-.321-.2-.221-.647-.731-.1-.111-.1-.117-.11-.125-.178-.2-.522-.6q-.077.457-.15.922h.264l3.875,5.274Zm0,0h0l-.209-.233q-.559-.622-1.066-1.192l-.3-.336-.285-.321-.2-.221-.647-.731-.1-.111-.1-.117-.11-.125-.178-.2-.522-.6q-.077.457-.15.922h.264l3.875,5.274Zm0,0h0l-.209-.233q-.559-.622-1.066-1.192l-.3-.336-.285-.321-.2-.221-.647-.731-.1-.111-.1-.117-.11-.125-.178-.2-.522-.6q-.077.457-.15.922h.264l3.875,5.274Zm0,0h0l-.209-.233q-.559-.622-1.066-1.192l-.3-.336-.285-.321-.2-.221-.647-.731-.1-.111-.1-.117-.11-.125-.178-.2-.522-.6q-.077.457-.15.922h.264l3.875,5.274Zm0,0h0l-.209-.233q-.559-.622-1.066-1.192l-.3-.336-.285-.321-.2-.221-.647-.731-.1-.111-.1-.117-.11-.125-.178-.2-.522-.6q-.077.457-.15.922h.264l3.875,5.274Zm0,0h0l-.209-.233q-.559-.622-1.066-1.192l-.3-.336-.285-.321-.2-.221-.647-.731-.1-.111-.1-.117-.11-.125-.178-.2-.522-.6q-.077.457-.15.922h.264l3.875,5.274Z" transform="translate(-429.986 -710.451)" fill="#002a24"/>
    <path id="Path_10887" data-name="Path 10887" d="M2214.24,1889.272h-52.573l5.289-16.594h.009l17.228.3,3,.053,3.224.057,3.1.054,17.658.311.01.054v0Z" transform="translate(-914.918 -1237.272)" fill="#f15a4f"/>
    <path id="Path_10888" data-name="Path 10888" d="M2245.989,1909.678a7.817,7.817,0,0,0-7.59-6.121l-9.663-.051-3.224-.018-10.206-.055a7.815,7.815,0,0,0-7.544,5.621l-2.038,6.965H2247.4Z" transform="translate(-953.232 -1264.019)" fill="#91312a"/>
    <path id="Path_10889" data-name="Path 10889" d="M2245.751,1909.407a7.856,7.856,0,0,0-7.626-6.152l-9.664-.051-3.224-.017-10.206-.055h-.042a7.87,7.87,0,0,0-6.678,3.715,7.888,7.888,0,0,0-.861,1.935l-2.042,6.975h.081l2.036-6.954a7.621,7.621,0,0,1,.886-1.957,7.824,7.824,0,0,1,6.578-3.637l10.248.055,3.224.017,9.663.051a7.738,7.738,0,0,1,6.472,3.513,7.852,7.852,0,0,1,1.079,2.577l1.407,6.333h.08Z" transform="translate(-952.957 -1263.757)" fill="#355389"/>
    <path id="Path_10890" data-name="Path 10890" d="M2354.942,1953.674H2350.5l.9-6.943h3.222l.02.422Z" transform="translate(-1079.141 -1301.674)" fill="#473b1e"/>
    <path id="Rectangle_1864" data-name="Rectangle 1864" d="M0,0H3.224a0,0,0,0,1,0,0V10.346a1.612,1.612,0,0,1-1.612,1.612h0A1.612,1.612,0,0,1,0,10.346V0A0,0,0,0,1,0,0Z" transform="translate(1272.28 635.309)" fill="#f15a4f"/>
    <path id="Path_10891" data-name="Path 10891" d="M2340.394,1811.359h-6.02a1.645,1.645,0,0,1-1.644-1.564l-.275-5.515c-.124-2.478,2.119-4.547,4.929-4.547h0c2.81,0,5.053,2.069,4.929,4.547l-.275,5.515A1.645,1.645,0,0,1,2340.394,1811.359Z" transform="translate(-1063.442 -1173.835)" fill="#91312a"/>
    <path id="Path_10892" data-name="Path 10892" d="M1594.489,1273.164s29-12.178,31.889-14.312,6.152-6.466,6.78-6.843,7.225-2.693,9.014-2.6,1.883,1.036,1.883,1.036,2.354,0,2.919.753a6.085,6.085,0,0,1,.753,1.224,2.823,2.823,0,0,1,2.26,1.13,4.024,4.024,0,0,1,.659,1.789s1.695.094,2.071.847-.565,2.636-.565,2.636-5.511,3.2-5.084,3.578c.85.76,1.974,1.771,1.974,1.771a8.1,8.1,0,0,1-3.292,1.148c-1.412,0-4.839-1.072-5.875-1.072s-33.835,20.088-33.835,20.088Z" transform="translate(-421.662 -695.233)" fill="#f7a491"/>
    <path id="Path_10893" data-name="Path 10893" d="M1524.511,1841.01h-82.523l.352-.363,17.621-18.132,5.073-5.219s9.328-.228,20.019-.036c1.323.024,2.668.054,4.018.092,4.247.118,8.551.313,12.442.62.849.068,1.679.14,2.485.22h0c5.973.582,10.594,1.484,11.873,2.869a22.342,22.342,0,0,1,3.236,5.294A117.047,117.047,0,0,1,1524.511,1841.01Z" transform="translate(-289.036 -1189.009)" fill="#5b1a15"/>
    <path id="Path_10894" data-name="Path 10894" d="M1745.726,1565.452s28.614,33.2,34.641,32.576c2.75-.286,33.406-7.34,36.671-7.466s5.273-1.507,7.031-2.385,3.264-1.256,4.52-.753,4.269,2.887,5.148,3.012-1.381-2.385-2.636-3.892,2.762,2.385,3.264,1.632-3.685-5.484-5.419-6.173c-4.265-1.693-15.794,2.848-15.794,2.848l-30.9-2.456-23.969-28.368Z" transform="translate(-553.187 -960.152)" fill="#f7a491"/>
    <path id="Path_10895" data-name="Path 10895" d="M1431.667,1409.778s-.457.608-1.214,1.571c-.609.773-1.413,1.776-2.331,2.878-.963,1.155-2.052,2.42-3.176,3.642a31.341,31.341,0,0,1-6.008,5.409,3.746,3.746,0,0,1-1.773.626l-3.234-4.4-3.875-5.274-.034-.047s0,.016.01.047c.144.685,1.83,8.774,1.747,11.065q-.055,1.524-.056,3.055c0,2.095.084,4.192.27,6.273.668,7.465,2.655,14.726,6.864,20.923l0,0a12.2,12.2,0,0,1-1.261,2.823h-47.889c-.149-.121-.292-.242-.429-.363A7.671,7.671,0,0,1,1367.6,1456a3.108,3.108,0,0,1,.021-3.34,85.023,85.023,0,0,0-1.329-14.179,143.585,143.585,0,0,1-2.154-18.8c-.109-2.007-.179-3.848-.229-5.458-.1-3.34-.118-5.683-.214-6.449-.191-1.535-4.133-7.493-5.35-13.052a15.361,15.361,0,0,1-.318-2.087c-.753-9.6,7.843-10.8,10-11.444,4.324-1.3,14.7-3.891,14.7-3.891a30.689,30.689,0,0,1,9.027.59c1.085.215,2.242.493,3.454.852a39.929,39.929,0,0,1,6.905,2.765q.9.458,1.8.981c6.9,3.983,15.793,13.365,21.624,20.012C1429.21,1406.681,1431.667,1409.778,1431.667,1409.778Z" transform="translate(-215.976 -806.369)" fill="#fff"/>
    <path id="Path_10896" data-name="Path 10896" d="M1519.812,1250.5s-.429,9.8-1.674,13.4,2.617,16.691,10.426,18.6.138-15.543.267-19.339,2.634-15.042,2.634-15.042Z" transform="translate(-355.061 -694.12)" fill="#f7a491"/>
    <path id="Path_10897" data-name="Path 10897" d="M1489.646,1059.328a13.355,13.355,0,0,0-7.215,5.78c-2.639,4.5-3.955,17.441,5.758,22.962s16.607-3.324,16.313-11.6S1501.883,1057.252,1489.646,1059.328Z" transform="translate(-322.547 -529.705)" fill="#f7a491"/>
    <path id="Path_10898" data-name="Path 10898" d="M1649.077,1141.858c-.7,2.035-2.234,3.354-3.419,2.944s-1.577-2.391-.874-4.427,2.234-3.354,3.419-2.944S1649.78,1139.823,1649.077,1141.858Z" transform="translate(-465.097 -597.787)" fill="#f7a491"/>
    <path id="Path_10899" data-name="Path 10899" d="M1461.443,1173.716c.79,2.115.272,4.263-1.157,4.8s-3.229-.747-4.019-2.862-.272-4.263,1.158-4.8S1460.652,1171.6,1461.443,1173.716Z" transform="translate(-301.132 -626.813)" fill="#f7a491"/>
    <path id="Path_10900" data-name="Path 10900" d="M1394.832,1033.013c2.739,5.095,4.767,7.03,10.042,9.425,3.541,1.607,6.114,7.66,4.908,12.213-3.056,11.532,5.1,8.485,11.588,14.687,15.621,14.94-10.279,29.045-13.981,31.421s-10.024,4.011-12.486,4.367c-7.421,1.074-17.985-3.521-24.108-12.054s-8.081-11.575-9.04-17.139-7.246-4.877-6.831-15.964c.449-11.995,3.229-24.656,8.607-29.663C1372.431,1022.022,1388.759,1021.717,1394.832,1033.013Z" transform="translate(-213.303 -499.456)" fill="url(#linear-gradient-6)"/>
    <path id="Path_10901" data-name="Path 10901" d="M2522.294,1373.975l12.05,33.515,7.908,36.527,50.837-5.649,19.958-7.155,7.908-49.331-15.063-10.167-23.724-7.155-29.373-1.13Z" transform="translate(-1228.543 -794.397)" fill="#edfdfc"/>
    <path id="Path_10902" data-name="Path 10902" d="M2564.25,1427.7l-11.045-30.719,26.942-9.313,28.382,1.092,22.884,6.9,13.008,8.781-7.3,45.521-17.865,6.4-47.656,5.3Z" transform="translate(-1255.425 -815.476)" fill="#f15a4f"/>
    <path id="Path_10903" data-name="Path 10903" d="M2652.245,1558.109l-3.389-28.243s-14.686-16.946-22.594-14.686c-4.227,1.208-8.346,8.44-11.265,14.912l2.992,8.322,7.353,33.962,43.282-4.809Z" transform="translate(-1309.163 -926.187)" fill="#91312a"/>
    <path id="Path_10904" data-name="Path 10904" d="M2674.106,1395.583l-.783-.03,2.656,10.744-13.5,13.74-11.692-9.669-14.594-2.37-5.4-8.005-1.167.4,5.867,8.7,14.784,2.4,19.331,15.985,5.33,15.644-16.458-1.682-.123-.013-23.21,13.621.168.775,23.211-13.622,16.679,1.7,6.725,19.739,1.214-.135-12.462-36.578-.054-.16-7.565-6.256,13.748-13.994Z" transform="translate(-1321.885 -822.332)" fill="#91312a"/>
    <path id="Path_10905" data-name="Path 10905" d="M2693.923,1418.681l17.934,3.843.8,3.087.425-.11-.746-2.874,2.371.508.092-.43-2.586-.554-6.831-26.3-.275-.186-.267-.081.057.148,6.835,26.318-17.9-3.837-11.338-29.37-.267-.08-.251-.01.05.1,11.327,29.341-24.4.739-14.86-31.252-.248-.01-.21.073.015.027,14.857,31.245-30.558,8.685v0l.093.427,30.584-8.692,4.2,39.169.437-.049-4.2-39.19,24.417-.74,4.566,35.918.424-.152Z" transform="translate(-1329.12 -815.476)" fill="#edfdfc"/>
    <path id="Path_10906" data-name="Path 10906" d="M3189.513,1871.836a11.168,11.168,0,0,1-1.058,2.738,68.338,68.338,0,0,1-5.57,8.558l-.088.118h-6.833l-3.1-7.461s.513-2.376,1.436-6.1c.275-1.112.588-2.344.932-3.669.024-.089.047-.177.071-.267l.381.105c1.133.31,2.254.6,3.353.893a27.539,27.539,0,0,1,8.308,3.344A15.3,15.3,0,0,1,3189.513,1871.836Z" transform="translate(-1794.321 -1231.25)" fill="#f8a492"/>
    <path id="Path_10907" data-name="Path 10907" d="M3116.953,1306.586l2.8,18.884s-10.66,9.136-16.875,7.209c-5.214-1.617-1.638-8.892-1.638-8.892s2.778-10.081,1.926-15.365S3116.953,1306.586,3116.953,1306.586Z" transform="translate(-1730.991 -743.999)" fill="#f7a491"/>
    <path id="Path_10908" data-name="Path 10908" d="M3133.878,1312.307a41.48,41.48,0,0,1-12.065,3.629,26.739,26.739,0,0,0,.284-7.5c-.393-2.438,2.514-3.015,5.759-2.931,4.246.388,8.031,1.1,8.031,1.1l.538,3.629A8.866,8.866,0,0,1,3133.878,1312.307Z" transform="translate(-1749.925 -744.011)" fill="#fe875e"/>
    <path id="Path_10909" data-name="Path 10909" d="M3121.191,1079.115c.44,0-4.214,21.1-11.416,24.725s-17.944,1.738-19.959-3.944c-2.229-6.284,5.9-27.806,16.033-30.54S3121.191,1079.115,3121.191,1079.115Z" transform="translate(-1721.775 -538.31)" fill="#f7a491"/>
    <path id="Path_10910" data-name="Path 10910" d="M3191.883,991.47a23.818,23.818,0,0,1,9.282,10.944c2.7,1.367,5.968,4.326,7.536,12.3,1.928,9.8-4.927,17.353-12.2,19.625s-8.5,7.406-8.5,7.406l-.719-5.524s1.617-4.81,4.048-7.217-1.152-5.916-1.467-8.777c-.243-2.2,1.278-6.482.948-10.1,0,0-4.039-6.533-8.02-8.147C3176.011,999.226,3184.5,986.926,3191.883,991.47Z" transform="translate(-1800.802 -470.047)" fill="#473b1e"/>
    <path id="Path_10911" data-name="Path 10911" d="M3242.148,1223.343c-.941,2.437-.557,4.855.859,5.4s3.327-.984,4.269-3.42.556-4.855-.86-5.4S3243.089,1220.906,3242.148,1223.343Z" transform="translate(-1854.129 -669.496)" fill="#f7a491"/>
    <path id="Path_10912" data-name="Path 10912" d="M3127.731,1418.076s-4.425,3.1-8.551,2.74-9.962-4.423-9.962-4.423l.811-2.934s10.676-1.66,10.945-1.48S3127.731,1418.076,3127.731,1418.076Z" transform="translate(-1738.972 -836.605)" fill="#f7a491"/>
    <path id="Path_10913" data-name="Path 10913" d="M2565.423,1576.875c.419-1.3,2.574-6.623,2.2-8.632-.215-1.146-1.514-.665-2.354.565-.632.926-.756,2.487-1.349,2.919-1.381,1-2.95,1.245-4.5-2.187l-3.264-9.123s-2.3.209-.585,10.965c.663,4.158,1.037,11.742,1.037,11.742s-1.508,23.913.4,34.586h7.407a89.688,89.688,0,0,0,4.466-12.053l-5.587-24.67A36.966,36.966,0,0,0,2565.423,1576.875Z" transform="translate(-1256.927 -965.709)" fill="#f8a492"/>
    <path id="Path_10914" data-name="Path 10914" d="M2873.695,1471.951q-.2,1.145-.445,2.354-.813,4.048-2.118,8.84a177.4,177.4,0,0,1-6.927,19.795,104.465,104.465,0,0,0-4.459,13.036c-.01.039-.02.079-.03.118H2801.3c.152-1.086.3-2.113.453-3.067q.1-.625.195-1.207c.032-.188.063-.372.094-.553.137-.8.325-1.7.556-2.679.858-3.631,2.317-8.434,4.072-13.771,1.11-3.375,2.339-6.963,3.61-10.6q.126-.365.256-.731l.288-.825q.545-1.553,1.1-3.108h0l.277-.786c.021-.058.041-.114.061-.171h0c.792-2.239,1.586-4.464,2.361-6.641l1.468-4.118c.052-.148.105-.3.158-.444.031-.091.064-.181.1-.272q.214-.6.425-1.2c1.673-4.713,3.165-8.981,4.26-12.35.018-.055.037-.11.054-.165.181-.555.35-1.087.506-1.591a41.93,41.93,0,0,0,1.246-4.628,3.016,3.016,0,0,1,1.715-2.083,6.843,6.843,0,0,1,.7-.329,10.8,10.8,0,0,1,1.483-.474c.141-.036.285-.07.432-.1a28.68,28.68,0,0,1,4.541-.55,92.629,92.629,0,0,1,9.777.138c1.791.1,3.579.231,5.3.372h0c2.469.2,4.8.433,6.787.647,3.8.407,6.382.758,6.382.758a37.354,37.354,0,0,1,4.16,1.045c2.579.8,5.751,2.1,7.651,4a7.446,7.446,0,0,1,1.318,1.837C2874.89,1455.923,2875.41,1462.193,2873.695,1471.951Z" transform="translate(-1471.182 -864.093)" fill="#707070"/>
    <path id="Path_10915" data-name="Path 10915" d="M2641.144,1654.529l-.35.727-.041.085-.361.75-2.951,6.13-6.089,12.645-1.606,3.337-.6,1.253-1.476,3.067h-24.845c2.011-3.011,4.8-7.357,7.379-12.006l.237-.428q.546-.994,1.077-2c.3-.562.622-1.172.977-1.823.618-1.139,1.318-2.4,2.073-3.753q.36-.64.734-1.3c1.88-3.334,4.034-7.073,6.121-10.661,2.762-4.75,5.406-9.235,7.141-12.167.314-.532.6-1.011.848-1.433l.326-.549c.55-.928.864-1.454.864-1.454l.564,1.048.213.4,1.073,1.992.967,1.8,4.8,8.91.487.9.432.8.864,1.605.551,1.024.034.062Z" transform="translate(-1298.575 -1030.522)" fill="#f8a492"/>
    <path id="Path_10916" data-name="Path 10916" d="M2718.351,1481.3s17.521,15.435,18.543,15.435c.658,0,25-19.112,30.621-34.813,3.106-8.68-1.34-18.06-8.782-18.028-5.158.022-9.521,1.109-19.747,10.312S2718.351,1481.3,2718.351,1481.3Z" transform="translate(-1399.047 -864.369)" fill="#707070"/>
    <rect id="Rectangle_1865" data-name="Rectangle 1865" width="3.264" height="19.083" transform="translate(1383.382 595.507) rotate(180)" fill="#fff"/>
    <rect id="Rectangle_1866" data-name="Rectangle 1866" width="3.264" height="19.083" transform="translate(1412 594.001) rotate(180)" fill="#fff"/>
    <path id="Path_10917" data-name="Path 10917" d="M3107.7,1295.874q-.28,3.039-.559,6.079a9.691,9.691,0,0,1-7.542,8.548q-8.485-.431-16.982-.338-8.492-.093-16.981.338-1.719.087-3.438.2a9.644,9.644,0,0,1-10.13-8.744q-.28-3.04-.559-6.079a9.588,9.588,0,0,1,9.184-10.293q10.951-.693,21.923-.582,7.953.079,15.9.582A9.589,9.589,0,0,1,3107.7,1295.874Z" transform="translate(-1688.747 -726.173)" fill="#91312a"/>
    <path id="Path_10918" data-name="Path 10918" d="M3153.938,1295.874q-.28,3.039-.559,6.079a9.644,9.644,0,0,1-10.13,8.744q-1.718-.109-3.438-.2-8.485-.431-16.981-.338-8.493-.093-16.981.338a9.691,9.691,0,0,1-7.542-8.548q-.28-3.04-.559-6.079a9.588,9.588,0,0,1,9.185-10.293q7.941-.5,15.9-.582,10.966-.111,21.924.582A9.589,9.589,0,0,1,3153.938,1295.874Z" transform="translate(-1728.958 -726.173)" fill="#f15a4f"/>
    <path id="Path_10919" data-name="Path 10919" d="M2818.495,1575.922h-46.179l.777-3.868.649-3.231,3.537-17.616.975-4.852.2-.99,2.367-11.787.1-.479q.135-.667.29-1.319.357-1.5.823-2.916c.055-.169.113-.338.17-.505a32.567,32.567,0,0,1,1.272-3.143q.2-.434.417-.854.125-.247.253-.491.5-.95,1.06-1.831.323-.512.663-1a19.586,19.586,0,0,1,8.167-7.007,14.746,14.746,0,0,1,1.637-.591l.151-.044a13.812,13.812,0,0,1,3.137-.509l5.856-.229.464-.018,6.247-.244h.3l1.922-.009.526,0,.824,0,3.395-.016v19.412l0,29.922v14.22Z" transform="translate(-1445.979 -923.922)" fill="#91312a"/>
    <path id="Path_10920" data-name="Path 10920" d="M2971.953,1531.151q-.047.786-.111,1.6l-4.617,42.544h-88.786l.739-5.4.439-3.208,1.334-9.757v0l.248-1.808.075-.549h0l.446-3.262,1-7.344.1-.747,1.518-11.088c.072-.328.148-.654.229-.976q.4-1.606.933-3.114.194-.55.406-1.086c.012-.032.024-.064.037-.1.047-.117.094-.234.141-.35,2.51-6.114,6.639-10.766,11.546-13.1.133-.063.267-.125.4-.184a16.729,16.729,0,0,1,6.08-1.456l.07,0,1.646,0h.206l.526,0,.824,0,3.395-.011,5.391-.018h.453l9.8-.033h0l4.113-.014,2.588-.008,7.032-.023.849,0v.087l19,.281C2970.616,1512.374,2972.647,1519.626,2971.953,1531.151Z" transform="translate(-1538.271 -923.294)" fill="#f15a4f"/>
    <rect id="Rectangle_1867" data-name="Rectangle 1867" width="3.264" height="19.083" transform="translate(1160.058 576.424)" fill="#fff"/>
    <rect id="Rectangle_1868" data-name="Rectangle 1868" width="3.264" height="19.083" transform="translate(1131.44 574.917)" fill="#fff"/>
    <path id="Path_10921" data-name="Path 10921" d="M1223.3,1295.874l.559,6.079a9.691,9.691,0,0,0,7.542,8.548q8.485-.431,16.981-.338,8.492-.093,16.981.338,1.719.087,3.438.2a9.644,9.644,0,0,0,10.13-8.744q.28-3.04.559-6.079a9.588,9.588,0,0,0-9.184-10.293q-10.951-.693-21.923-.582-7.953.079-15.9.582A9.589,9.589,0,0,0,1223.3,1295.874Z" transform="translate(-98.81 -726.173)" fill="#91312a"/>
    <path id="Path_10922" data-name="Path 10922" d="M1177.058,1295.874l.559,6.079a9.644,9.644,0,0,0,10.13,8.744q1.718-.109,3.438-.2,8.485-.431,16.982-.338,8.492-.093,16.981.338a9.691,9.691,0,0,0,7.542-8.548q.279-3.04.558-6.079a9.588,9.588,0,0,0-9.184-10.293q-7.941-.5-15.9-.582-10.966-.111-21.924.582A9.589,9.589,0,0,0,1177.058,1295.874Z" transform="translate(-58.598 -726.173)" fill="#f15a4f"/>
    <path id="Path_10923" data-name="Path 10923" d="M1579.885,1575.922v-18.5l0-25.647v-19.412l3.2.015h0l.43,0,.456,0h.491l2.087.01h.3l1.251.049.444.017,10.871.426a14.369,14.369,0,0,1,6.316,1.824,19.771,19.771,0,0,1,5.965,5.223l.092.12a30.937,30.937,0,0,1,5.379,11.723q.156.652.29,1.319l.467,2.324,2.528,12.585.43,2.145.549,2.732,4.626,23.038Z" transform="translate(-408.961 -923.922)" fill="#91312a"/>
    <path id="Path_10924" data-name="Path 10924" d="M1203.271,1575.294h-88.786l-4.617-42.544q-.063-.813-.111-1.6c-.694-11.526,1.337-18.777,11.947-19.138l19-.281v-.087l1.666.005,14.392.048,14.168.047,3.2.01h.43l.456,0h.491l2.017.006.07,0q.78.034,1.546.144c.147.02.294.043.44.068a19.69,19.69,0,0,1,11.915,7.448,28,28,0,0,1,3.419,5.483q.253.53.488,1.076a33.2,33.2,0,0,1,1.735,5.164c.081.322.156.648.229.976l.313,2.285h0l.275,2.012,1.368,10,.712,5.207Z" transform="translate(0 -923.294)" fill="#f15a4f"/>
    <rect id="Rectangle_1869" data-name="Rectangle 1869" width="5.085" height="11.3" transform="translate(1283.492 496.943) rotate(7.652)" fill="#002a24"/>
    <path id="Path_10925" data-name="Path 10925" d="M2269.938,883.018a312.172,312.172,0,0,0-47.292,0,5.849,5.849,0,0,1-6.276-5.23q-.266-2.813-.532-5.625a5.818,5.818,0,0,1,5.51-6.235,329.334,329.334,0,0,1,49.888,0,5.817,5.817,0,0,1,5.509,6.235q-.266,2.812-.532,5.625A5.849,5.849,0,0,1,2269.938,883.018Z" transform="translate(-962.006 -360.912)" fill="#002a24"/>
    <path id="Path_10926" data-name="Path 10926" d="M2278.766,890.158c-.117,0-.236,0-.354-.013-7.865-.6-15.853-.9-23.741-.9s-15.876.3-23.741.9c-.117.009-.236.013-.353.013a4.622,4.622,0,0,1-3.082-1.177,4.519,4.519,0,0,1-1.5-2.937l-.531-5.621a4.263,4.263,0,0,1,1-3.178,4.8,4.8,0,0,1,3.35-1.687c8.233-.625,16.593-.942,24.849-.942s16.617.317,24.849.942a4.8,4.8,0,0,1,3.35,1.687,4.261,4.261,0,0,1,1,3.174l-.532,5.629a4.517,4.517,0,0,1-1.5,2.933A4.623,4.623,0,0,1,2278.766,890.158Z" transform="translate(-970.385 -369.29)" fill="#f15a4f"/>
    <path id="Path_10927" data-name="Path 10927" d="M2250.213,877.332a104.2,104.2,0,0,1,9.806,13.885c3.772-.195,7.556-.322,11.327-.381a63.581,63.581,0,0,0-7.472-14.433c-4.184.157-8.365.394-12.514.709A5.079,5.079,0,0,0,2250.213,877.332Z" transform="translate(-991.923 -370.844)" fill="url(#linear-gradient)"/>
    <path id="Path_10928" data-name="Path 10928" d="M2494.625,891.684a4.59,4.59,0,0,0,4.578-4.11l.532-5.629a4.26,4.26,0,0,0-1-3.174,4.8,4.8,0,0,0-3.35-1.687c-4.186-.318-8.405-.556-12.627-.714-2.97,1.727-4.559,1.654-6.383,4.986-1.082,1.977-1.232,5.376-2.713,9.429C2485.87,890.909,2493.848,891.684,2494.625,891.684Z" transform="translate(-1186.244 -370.816)" fill="url(#linear-gradient-6)"/>
    <path id="Path_10929" data-name="Path 10929" d="M2561.945,918.236a8.556,8.556,0,0,0-4.769-2.455c-5.031-.751-9.924,3.337-11.759,9.435,3.766.15,7.528.367,11.262.651.118.009.237.013.354.013a4.623,4.623,0,0,0,3.082-1.177,4.518,4.518,0,0,0,1.5-2.933Z" transform="translate(-1248.653 -405.013)" fill="#f7a491"/>
    <path id="Path_10930" data-name="Path 10930" d="M2276.788,1420.093l.5,3.542,2.817-2.205Z" transform="translate(-1015.034 -843.673)" fill="url(#linear-gradient-6)"/>
    <g id="Group_9772" data-name="Group 9772" transform="translate(1260.598 439.03)">
      <path id="Path_10931" data-name="Path 10931" d="M2481.981,493.121a21.387,21.387,0,1,1,15.123-6.264A21.376,21.376,0,0,1,2481.981,493.121Zm0-40.106a18.719,18.719,0,1,0,18.719,18.719A18.74,18.74,0,0,0,2481.981,453.015Z" transform="translate(-2460.594 -450.347)" fill="#f15a4f"/>
      <path id="Path_10932" data-name="Path 10932" d="M2574.454,493.244a8.069,8.069,0,0,0-8.3,7.821c0,4.319,8.058,13.628,8.058,13.628s8.532-9.308,8.532-13.628A8.068,8.068,0,0,0,2574.454,493.244Zm0,10.949a3.134,3.134,0,1,1,3.318-3.128A3.228,3.228,0,0,1,2574.454,504.193Z" transform="translate(-2552.4 -487.653)" fill="#f15a4f"/>
      <path id="Path_10933" data-name="Path 10933" d="M2578.438,705.6h1.037l.057.534h.024a1.322,1.322,0,0,1,2.284.049h.016c.792-1.1,2.6-.963,2.6,1.045v2.332h-1.2v-2.154c0-.575-.186-.907-.583-.907a.659.659,0,0,0-.616.745v2.316h-1.2v-2.219c0-.5-.178-.842-.567-.842a.678.678,0,0,0-.624.753v2.308h-1.2C2578.459,707.04,2578.494,706.808,2578.438,705.6Z" transform="translate(-2563.079 -672.244)" fill="#f15a4f"/>
      <path id="Path_10934" data-name="Path 10934" d="M2632.486,694.291a.62.62,0,1,1,.008-1.239A.62.62,0,1,1,2632.486,694.291Zm-.607,4.446v-3.96h1.231v3.96Z" transform="translate(-2609.524 -661.42)" fill="#f15a4f"/>
      <path id="Path_10935" data-name="Path 10935" d="M2648.892,705.654h1.069l.057.543h.024a1.455,1.455,0,0,1,2.64,1.069v2.348h-1.231v-2.195c0-.51-.178-.858-.624-.858a.7.7,0,0,0-.672.769v2.284h-1.231C2648.913,707.092,2648.948,706.86,2648.892,705.654Z" transform="translate(-2624.351 -672.297)" fill="#f15a4f"/>
    </g>
    <g id="Group_9773" data-name="Group 9773" transform="translate(1199.014 475.877)">
      <path id="Path_10936" data-name="Path 10936" d="M2035.3,492.851a21.435,21.435,0,1,1,15.157-6.278A21.423,21.423,0,0,1,2035.3,492.851Zm0-40.195a18.76,18.76,0,1,0,18.76,18.76A18.782,18.782,0,0,0,2035.3,452.656Z" transform="translate(-2013.864 -449.982)" fill="#f15a4f"/>
      <path id="Path_10937" data-name="Path 10937" d="M2116.545,660.182h.016c.294-.535.486-.762,1.085-1.668h1.482l-1.417,1.6,1.62,2.356h-1.514l-.956-1.628-.316.389v1.239h-1.231v-5.749h1.231Z" transform="translate(-2102.092 -629.779)" fill="#f15a4f"/>
      <path id="Path_10938" data-name="Path 10938" d="M2149.36,669.828h1.037l.056.535h.024a1.322,1.322,0,0,1,2.284.048h.016a1.487,1.487,0,0,1,1.263-.672c.761,0,1.336.534,1.336,1.717v2.332h-1.2v-2.154c0-.575-.186-.907-.583-.907a.658.658,0,0,0-.615.745v2.316h-1.2v-2.219c0-1.225-1.19-1-1.19-.089v2.308h-1.2C2149.381,671.266,2149.416,671.034,2149.36,669.828Z" transform="translate(-2131.7 -641.093)" fill="#f15a4f"/>
      <path id="Path_10939" data-name="Path 10939" d="M2200.244,664.148l1.733-5.871h.818l-1.733,5.871Z" transform="translate(-2175.952 -631.129)" fill="#f15a4f"/>
      <path id="Path_10940" data-name="Path 10940" d="M2223.6,656.724h1.231v2.259h.016c.7-.922,2.51-.836,2.51,1.174v2.316h-1.231V660.3c0-.518-.178-.875-.64-.875a.655.655,0,0,0-.615.429,14.657,14.657,0,0,0-.04,2.624H2223.6Z" transform="translate(-2196.269 -629.779)" fill="#f15a4f"/>
      <path id="Path_10941" data-name="Path 10941" d="M2125.06,550.865h-.042c.241-1.077,1.092-2.055,3.005-2.211a5.929,5.929,0,0,1,.836-.028v-1.658a6.18,6.18,0,0,0-.865.014,5.519,5.519,0,0,0-3.558,1.361c-2.555,2.373-2.3,8.122,2.027,8.122a3.3,3.3,0,0,0,3.4-3.331A2.871,2.871,0,0,0,2125.06,550.865Zm1.375,4.011c-1.441,0-1.643-1.915-1.4-2.4a1.392,1.392,0,0,1,2.65.765C2127.683,554.182,2127.2,554.877,2126.435,554.877Z" transform="translate(-2108.601 -534.319)" fill="#f15a4f"/>
      <path id="Path_10942" data-name="Path 10942" d="M2186.953,546.811c-2.381,0-3.515,2.112-3.515,4.777.014,2.608,1.063,4.748,3.444,4.748,2.353,0,3.5-1.956,3.5-4.805C2190.383,549.008,2189.42,546.811,2186.953,546.811Zm-.014,7.9c-.836,0-1.347-1.006-1.333-3.118-.014-2.14.525-3.147,1.318-3.147.865,0,1.3,1.077,1.3,3.118C2188.229,553.657,2187.775,554.706,2186.939,554.706Z" transform="translate(-2161.337 -534.191)" fill="#f15a4f"/>
    </g>
  </g>
</svg>
