<svg xmlns="http://www.w3.org/2000/svg" width="75.949" height="66.533" viewBox="0 0 75.949 66.533">
  <g id="Group_3558" data-name="Group 3558" transform="translate(-368 -389.998)">
    <path id="Path_10230" data-name="Path 10230" d="M368,450.251V410.8a3.871,3.871,0,0,0,.13-.486,7.332,7.332,0,0,1,6.135-6.265,28.744,28.744,0,0,1,3.633-.025c.065-.305.128-.516.154-.73.263-2.157.546-4.312.774-6.473a7.372,7.372,0,0,1,8.528-6.748c3.259.41,6.524.765,9.788,1.134q9.46,1.071,18.921,2.131c6.9.78,13.788,1.59,20.687,2.34,4.481.487,7.613,4.031,7.156,8.284-.613,5.7-1.28,11.387-1.924,17.08-.736,6.5-1.485,13-2.205,19.509-.383,3.46-1.86,6.081-5.41,7.069a1.022,1.022,0,0,0-.9,1.266,6.6,6.6,0,0,1-1.712,4.9,8.237,8.237,0,0,1-6.535,2.75q-11.826-.023-23.652-.005-13.086,0-26.173,0a6.789,6.789,0,0,1-6.086-3.03A17.321,17.321,0,0,1,368,450.251Zm3.7-12.362c.387-.276.644-.456.9-.639q5.485-3.987,10.972-7.974a8.249,8.249,0,0,1,10.974.535q4.675,4.115,9.347,8.234a4.751,4.751,0,0,0,6.123.6q9.6-5.588,19.207-11.177a1.04,1.04,0,0,0,.6-1.048c-.018-4.746,0-9.491-.02-14.237a5.352,5.352,0,0,0-.21-1.53,4.184,4.184,0,0,0-4.353-2.983H375.624c-.2,0-.4,0-.593.008a3.017,3.017,0,0,0-2.168.979,4.472,4.472,0,0,0-1.169,3.256q.011,12.642,0,25.285Zm58.1-6.427c-.378.211-.612.337-.842.47q-8.431,4.876-16.864,9.75a11.534,11.534,0,0,1-1.715.865,8.456,8.456,0,0,1-9.019-1.765c-3.172-2.754-6.3-5.56-9.463-8.325-1.891-1.653-3.92-1.866-5.817-.494-4.7,3.4-9.368,6.86-14.035,10.311a.951.951,0,0,0-.335.662c-.023,2.249-.038,4.5,0,6.747a3.2,3.2,0,0,0,2.483,3.045,7.237,7.237,0,0,0,1.547.115q24.653.008,49.306,0c.321,0,.643-.01.962-.037a3.8,3.8,0,0,0,3.791-4.132q0-8.156,0-16.312ZM381.651,403.97h.964q21.319,0,42.638-.006a7.983,7.983,0,0,1,3.788.847,7.806,7.806,0,0,1,4.434,7.386q.016,15.461,0,30.922v.959a3.224,3.224,0,0,0,2.331-2.66c.658-5.568,1.291-11.139,1.939-16.708q1.224-10.525,2.453-21.049a3.6,3.6,0,0,0-3.127-4.147c-2.983-.421-5.982-.722-8.975-1.071q-9.935-1.159-19.872-2.314c-7.091-.82-14.184-1.621-21.274-2.447a3.732,3.732,0,0,0-4.478,3.267C382.14,399.242,381.93,401.555,381.651,403.97Z" fill="#f15a4f"/>
    <path id="Path_10231" data-name="Path 10231" d="M442.8,576.117v.9q0,8.156,0,16.312a3.8,3.8,0,0,1-3.791,4.132c-.319.027-.641.037-.962.037q-24.653,0-49.306,0a7.234,7.234,0,0,1-1.548-.115,3.2,3.2,0,0,1-2.482-3.045c-.038-2.248-.023-4.5,0-6.747a.951.951,0,0,1,.335-.662c4.668-3.452,9.331-6.909,14.035-10.311,1.9-1.372,3.926-1.159,5.817.494,3.163,2.765,6.29,5.571,9.463,8.325a8.456,8.456,0,0,0,9.019,1.765,11.551,11.551,0,0,0,1.715-.865q8.436-4.868,16.863-9.75C442.192,576.454,442.426,576.327,442.8,576.117Z" transform="translate(-13.001 -144.655)" fill="none"/>
    <path id="Path_10232" data-name="Path 10232" d="M514.67,511.628a7.74,7.74,0,1,1,7.72-7.751A7.79,7.79,0,0,1,514.67,511.628Zm-.044-11.778a4.048,4.048,0,1,0,4.086,4.015A4.06,4.06,0,0,0,514.625,499.85Z" transform="translate(-108.195 -82.681)" fill="#f15a4f"/>
  </g>
</svg>
