<svg xmlns="http://www.w3.org/2000/svg" width="72.519" height="72.953" viewBox="0 0 72.519 72.953">
  <g id="Group_3556" data-name="Group 3556" transform="translate(-361.553 -361.031)">
    <path id="Path_10223" data-name="Path 10223" d="M378.293,477.5c0-.952.041-1.917-.011-2.878a3.791,3.791,0,0,0-1.438-2.672c-2.512-2.218-4.99-4.476-7.523-6.669a7.763,7.763,0,0,1-2.507-4.062c-1.634-6.254-3.32-12.5-5.012-18.735a4.978,4.978,0,0,1,1.868-5.734,1,1,0,0,0,.293-.694,4.931,4.931,0,0,1,4.016-4.943,5.062,5.062,0,0,1,5.567,3.491q2.589,7.553,5.229,15.088a1.468,1.468,0,0,0,.6.713c3.4,2.02,6.82,4.014,10.231,6.019a11,11,0,0,1,5.77,10.113q-.006,5.483,0,10.951c1.073.452,1.218.663,1.219,1.774q0,4.457,0,8.914c0,1.193-.407,1.6-1.6,1.6q-8.15,0-16.3,0c-1.2,0-1.6-.4-1.606-1.593q0-4.457,0-8.914C377.086,478.148,377.233,477.932,378.293,477.5Zm14.642.043V477c0-3.633.038-7.267-.012-10.9a8.366,8.366,0,0,0-4.045-7.259c-.808-.524-1.656-.988-2.488-1.475-2.758-1.617-5.513-3.241-8.279-4.844a2.428,2.428,0,0,0-3.656,1.153,2.4,2.4,0,0,0,1.19,3.041c2.235,1.3,4.484,2.586,6.715,3.9a1.213,1.213,0,1,1-1.169,2.12c-2.4-1.373-4.815-2.726-7.17-4.175a4.419,4.419,0,0,1-1.972-5.164,4.7,4.7,0,0,0-.159-3.551c-.223-.593-.4-1.2-.595-1.807-.833-2.582-1.661-5.166-2.5-7.746a2.59,2.59,0,0,0-2.558-1.894,2.262,2.262,0,0,0-2.165,1.811,3.836,3.836,0,0,0,.092,1.641c1.686,6.349,3.409,12.688,5.1,19.035a4.613,4.613,0,0,0,1.443,2.357c2.571,2.269,5.112,4.572,7.694,6.829a6.434,6.434,0,0,1,2.346,5.227c-.017.75,0,1.5,0,2.251Zm1.165,9.761v-7.224H379.564v7.224Zm-27.627-51.4a5.271,5.271,0,0,1,4.88,4.376c.149.588.371,1.157.558,1.735l2.628,8.106,1.616-.489-2.452-7.1q-1.24-3.589-2.482-7.178a2.643,2.643,0,0,0-2.9-1.82A2.329,2.329,0,0,0,366.473,435.908Z" transform="translate(0 -55.795)" fill="#f15a4f"/>
    <path id="Path_10224" data-name="Path 10224" d="M564.3,477.494c1.049.4,1.218.637,1.218,1.7q0,4.5,0,8.99c0,1.148-.417,1.571-1.552,1.571q-8.188.005-16.376,0c-1.178,0-1.576-.413-1.578-1.621,0-2.921.017-5.841-.011-8.761-.009-.93.147-1.68,1.229-1.849,0-3.716,0-7.372,0-11.028a10.983,10.983,0,0,1,5.788-10.1c3.348-1.963,6.7-3.911,10.037-5.9a2.043,2.043,0,0,0,.819-.989c1.775-5.018,3.512-10.05,5.261-15.077a4.866,4.866,0,0,1,9.509,1.547,1.182,1.182,0,0,0,.364.81,4.892,4.892,0,0,1,1.812,5.546q-2.123,7.974-4.259,15.945c-.281,1.053-.578,2.1-.836,3.162a6.769,6.769,0,0,1-2.178,3.578c-2.5,2.194-4.947,4.449-7.474,6.61a4.505,4.505,0,0,0-1.782,3.983C564.336,476.22,564.3,476.831,564.3,477.494Zm-2.439.053c0-.852.006-1.634,0-2.416a6.325,6.325,0,0,1,2.277-5.026c2.594-2.281,5.162-4.592,7.753-6.877a4.608,4.608,0,0,0,1.45-2.353c1.7-6.4,3.425-12.788,5.133-19.184a2.462,2.462,0,0,0-1.572-3.241,2.581,2.581,0,0,0-3.108,1.884c-1.189,3.667-2.382,7.332-3.54,11.008a1.777,1.777,0,0,0,.069,1.134,4.769,4.769,0,0,1-1.61,5.964c-2.4,1.524-4.892,2.891-7.36,4.3a1.161,1.161,0,0,1-1.642-.457,1.2,1.2,0,0,1,.456-1.651c.125-.086.261-.156.393-.232q3.132-1.807,6.265-3.612a2.528,2.528,0,0,0,1.44-1.849,2.336,2.336,0,0,0-.978-2.4,2.368,2.368,0,0,0-2.723-.077q-5.259,3.071-10.507,6.161a8.451,8.451,0,0,0-4.384,7.679c-.018,3.506,0,7.012,0,10.518v.731Zm-13.358,2.49v7.224h14.537v-7.224Zm27.647-44.151a2.378,2.378,0,0,0-1.895-2.367,2.561,2.561,0,0,0-2.838,1.777q-1.75,5.021-3.484,10.048c-.493,1.423-.988,2.845-1.491,4.29l1.628.461c1.11-3.429,2.244-6.812,3.3-10.221A5.211,5.211,0,0,1,576.147,435.886Z" transform="translate(-146.976 -55.777)" fill="#f15a4f"/>
    <path id="Path_10225" data-name="Path 10225" d="M458.374,364.609a12.616,12.616,0,0,1,6.728-3.41,12.207,12.207,0,0,1,10.317,20.871q-7.915,7.919-15.832,15.836c-.963.963-1.47.964-2.426.008-5.384-5.387-10.811-10.733-16.14-16.174a12.18,12.18,0,0,1,16.722-17.687Zm-.066,31.056c.178-.144.261-.2.33-.269,5.134-5.137,10.3-10.239,15.388-15.425a9.739,9.739,0,0,0-13.786-13.754c-.313.3-.608.614-.924.907a1.233,1.233,0,0,1-1.882.013c-.354-.328-.68-.685-1.032-1.014A9.751,9.751,0,0,0,443,380.292q6.284,6.321,12.6,12.61C456.5,393.8,457.378,394.714,458.308,395.665Z" transform="translate(-60.555 0)" fill="#f15a4f"/>
    <path id="Path_10226" data-name="Path 10226" d="M510.215,414.148c0,1.212.009,2.325,0,3.438-.01.99-.455,1.43-1.454,1.437q-2.208.015-4.417,0c-.992-.007-1.43-.453-1.439-1.451-.01-1.112,0-2.224,0-3.424-1.141,0-2.224,0-3.306,0-1.149-.005-1.565-.415-1.57-1.552q-.008-2.095,0-4.189c0-1.152.413-1.568,1.546-1.574,1.085-.005,2.17,0,3.33,0,0-1.155,0-2.24,0-3.324.005-1.14.417-1.549,1.567-1.553,1.421,0,2.843-.007,4.264,0,1.042.006,1.473.44,1.481,1.487.009,1.09,0,2.181,0,3.389,1.081,0,2.135,0,3.189,0,1.3,0,1.686.378,1.688,1.664q0,2.018,0,4.037c0,1.2-.4,1.611-1.584,1.615C512.444,414.152,511.381,414.148,510.215,414.148Zm-9.717-2.439c1.115,0,2.176,0,3.236,0,1.2,0,1.6.4,1.6,1.592,0,1.081,0,2.161,0,3.225h2.438c0-1.124,0-2.188,0-3.252.005-1.148.414-1.56,1.552-1.566,1.083-.005,2.167,0,3.278,0V409.27c-1.105,0-2.165,0-3.225,0-1.2,0-1.6-.4-1.605-1.591,0-1.08,0-2.161,0-3.227h-2.438c0,1.123,0,2.187,0,3.251-.005,1.145-.418,1.561-1.554,1.567-1.083.005-2.167,0-3.285,0Z" transform="translate(-108.745 -32.606)" fill="#f15a4f"/>
  </g>
</svg>
