<svg xmlns="http://www.w3.org/2000/svg" width="71.578" height="76.267" viewBox="0 0 71.578 76.267">
  <g id="Group_3557" data-name="Group 3557" transform="translate(-348.288 -335.682)">
    <path id="Path_10227" data-name="Path 10227" d="M388.708,411.948a44.994,44.994,0,0,1-4.542-1.53,9.6,9.6,0,0,1-4.04-3.646,1.3,1.3,0,0,0-1.262-.647q-11.394.025-22.788.008a7.294,7.294,0,0,1-7.013-4.266,11.236,11.236,0,0,1-.72-2.555,5.923,5.923,0,0,1-.041-1.262c0-9.183.019-18.366-.016-27.549a8.9,8.9,0,0,1,1.878-5.661q3.371-4.4,6.651-8.875a2.362,2.362,0,0,0,.405-1.208c.058-.989,0-1.985.028-2.977a.745.745,0,0,0-.495-.787,4.267,4.267,0,0,1-2.48-3.937c-.031-2.307-.05-4.617,0-6.924a4.385,4.385,0,0,1,4.535-4.436q13.293-.034,26.586,0a4.446,4.446,0,0,1,4.6,4.621c.053,2.208.04,4.418,0,6.626a4.489,4.489,0,0,1-2.522,4.092c-.2.111-.3.423-.441.646-.022.036,0,.1,0,.147a7.617,7.617,0,0,0,2.081,6.487c1.829,2.081,3.351,4.429,5.046,6.631a8.607,8.607,0,0,1,1.817,5.461c-.016,3.8,0,7.595,0,11.392v.938c.325-.175.558-.293.785-.422,1.982-1.129,3.925-2.332,5.951-3.376a11.9,11.9,0,0,1,11.114,21.03c-5.926,3.471-11.9,6.871-17.838,10.315a15.072,15.072,0,0,1-4.9,1.663ZM351.315,394.2c.206.011.327.024.449.024q13.593,0,27.186-.02a1.219,1.219,0,0,0,.861-.493,11.056,11.056,0,0,1,3.468-3.528c3.019-1.812,6.068-3.574,9.119-5.332a1.041,1.041,0,0,0,.61-1.044c-.024-3.574-.013-7.149-.013-10.723v-.708H351.315Zm-.222-24.878H392.9a4.231,4.231,0,0,0-.991-2.39c-2.262-3.017-4.533-6.026-6.777-9.056a1.07,1.07,0,0,0-1-.446c-2.283.015-4.567.007-6.85.007-2.134,0-4.269.01-6.4,0-1.143-.008-1.81-.7-1.686-1.693.1-.816.739-1.278,1.8-1.279q6.105-.007,12.211,0h.812v-2.933h-23.8c0,1.282-.025,2.519.009,3.754a3.1,3.1,0,0,1-.681,2.059c-2.4,3.16-4.792,6.329-7.139,9.528A20.146,20.146,0,0,0,351.094,369.318Zm42.425,18.293c-2.935,1.713-5.829,3.3-8.616,5.056a8.758,8.758,0,0,0-3.695,9.362,8.92,8.92,0,0,0,13.274,5.671c2.53-1.42,5.028-2.9,7.539-4.35a5.059,5.059,0,0,0,.415-.3Zm-21.345-48.943q-6.554,0-13.108,0c-1.271,0-1.814.542-1.82,1.813-.011,2.035-.008,4.071,0,6.106,0,1.405.521,1.908,1.953,1.908q12.922,0,25.844,0c1.444,0,1.988-.533,1.993-1.965q.011-2.9,0-5.808c0-1.542-.517-2.056-2.051-2.056Q378.578,338.666,372.173,338.668Zm23.949,47.493,8.931,15.463c2.706-1.583,5.416-3.036,7.986-4.7a8.9,8.9,0,0,0-9.028-15.3c-2.608,1.371-5.123,2.918-7.679,4.387C396.271,386.047,396.216,386.094,396.122,386.161Zm-17.948,11.075H351.357c-.605,3.945,1.986,5.995,5.036,5.952,7.021-.1,14.045-.031,21.068-.031h.713Z" fill="#f15a4f"/>
    <path id="Path_10228" data-name="Path 10228" d="M445.247,562.748c0,1.3,0,2.561,0,3.82,0,1.352-.518,2.076-1.485,2.089s-1.492-.7-1.494-2.056c0-1.261,0-2.522,0-3.889h-3.449c-.347,0-.7.018-1.042-.013a1.463,1.463,0,0,1-1.451-1.488,1.439,1.439,0,0,1,1.472-1.462c1.19-.042,2.382-.014,3.573-.016h.9v-3.688c0-.174,0-.347,0-.521.026-1.061.567-1.711,1.441-1.736s1.512.659,1.531,1.74c.024,1.363.006,2.727.006,4.205h2.384c.62,0,1.241-.011,1.861,0a1.5,1.5,0,1,1-.024,2.972c-1.141.016-2.283,0-3.424.006C445.8,562.715,445.559,562.735,445.247,562.748Z" transform="translate(-71.618 -177.428)" fill="#f15a4f"/>
    <path id="Path_10229" data-name="Path 10229" d="M431.27,437.848a1.514,1.514,0,0,1-1.45,1.5,1.479,1.479,0,0,1-.046-2.958A1.515,1.515,0,0,1,431.27,437.848Z" transform="translate(-65.119 -81.927)" fill="#f15a4f"/>
  </g>
</svg>
