<svg xmlns="http://www.w3.org/2000/svg" width="12.036" height="12.139" viewBox="0 0 12.036 12.139">
  <g id="Group_8336" data-name="Group 8336" transform="translate(-361.428 -360.873)">
    <path id="Path_10223" data-name="Path 10223" d="M364.274,438.6c0-.155.007-.312,0-.468a.616.616,0,0,0-.234-.434c-.408-.361-.811-.727-1.223-1.084a1.262,1.262,0,0,1-.407-.66c-.266-1.017-.54-2.031-.815-3.045a.809.809,0,0,1,.3-.932.162.162,0,0,0,.048-.113.8.8,0,0,1,.653-.8.823.823,0,0,1,.9.567q.421,1.228.85,2.452a.238.238,0,0,0,.1.116c.553.328,1.108.652,1.663.978a1.787,1.787,0,0,1,.938,1.644q0,.891,0,1.78c.174.073.2.108.2.288q0,.724,0,1.449c0,.194-.066.26-.26.26h-2.649c-.195,0-.261-.065-.261-.259q0-.724,0-1.449C364.078,438.7,364.1,438.669,364.274,438.6Zm2.38.007v-.089c0-.59.006-1.181,0-1.771a1.36,1.36,0,0,0-.657-1.18c-.131-.085-.269-.16-.4-.24-.448-.263-.9-.527-1.346-.787a.4.4,0,0,0-.594.187.391.391,0,0,0,.193.494c.363.212.729.42,1.091.634a.2.2,0,1,1-.19.345c-.39-.223-.783-.443-1.165-.678a.718.718,0,0,1-.321-.839.764.764,0,0,0-.026-.577c-.036-.1-.065-.2-.1-.294-.135-.42-.27-.84-.406-1.259a.421.421,0,0,0-.416-.308.368.368,0,0,0-.352.294.623.623,0,0,0,.015.267c.274,1.032.554,2.062.829,3.094a.749.749,0,0,0,.235.383c.418.369.831.743,1.25,1.11a1.046,1.046,0,0,1,.381.849c0,.122,0,.244,0,.366Zm.189,1.586v-1.174h-2.362v1.174Zm-4.49-8.353a.857.857,0,0,1,.793.711c.024.1.06.188.091.282l.427,1.317.263-.079-.4-1.154q-.2-.583-.4-1.167a.43.43,0,0,0-.471-.3A.379.379,0,0,0,362.353,431.839Z" transform="translate(0 -67.707)" fill="#f15a4f" stroke="#f15a4f" stroke-width="0.25"/>
    <path id="Path_10224" data-name="Path 10224" d="M548.971,438.579c.17.065.2.1.2.277q0,.73,0,1.461c0,.187-.068.255-.252.255h-2.661c-.191,0-.256-.067-.256-.263,0-.475,0-.949,0-1.424,0-.151.024-.273.2-.3,0-.6,0-1.2,0-1.792a1.785,1.785,0,0,1,.941-1.642c.544-.319,1.09-.636,1.631-.959a.332.332,0,0,0,.133-.161c.288-.816.571-1.633.855-2.45a.791.791,0,0,1,1.545.251.193.193,0,0,0,.059.132.8.8,0,0,1,.295.9q-.345,1.3-.692,2.591c-.046.171-.094.342-.136.514a1.1,1.1,0,0,1-.354.582c-.406.357-.8.723-1.215,1.074a.732.732,0,0,0-.29.647C548.978,438.372,548.971,438.471,548.971,438.579Zm-.4.009c0-.138,0-.266,0-.393a1.028,1.028,0,0,1,.37-.817c.422-.371.839-.746,1.26-1.118a.748.748,0,0,0,.236-.382c.276-1.04.557-2.078.834-3.118a.4.4,0,0,0-.255-.527.419.419,0,0,0-.505.306c-.193.6-.387,1.192-.575,1.789a.289.289,0,0,0,.011.184.775.775,0,0,1-.262.969c-.389.248-.8.47-1.2.7a.189.189,0,0,1-.267-.074.2.2,0,0,1,.074-.268c.02-.014.043-.025.064-.038l1.018-.587a.411.411,0,0,0,.234-.3.38.38,0,0,0-.159-.391.385.385,0,0,0-.443-.012q-.855.5-1.708,1a1.374,1.374,0,0,0-.713,1.248c0,.57,0,1.14,0,1.709v.119Zm-2.171.4v1.174h2.362v-1.174Zm4.493-7.175a.386.386,0,0,0-.308-.385.416.416,0,0,0-.461.289q-.285.816-.566,1.633l-.242.7.265.075c.18-.557.365-1.107.536-1.661A.847.847,0,0,1,550.9,431.817Z" transform="translate(-178.355 -67.685)" fill="#f15a4f" stroke="#f15a4f" stroke-width="0.25"/>
    <path id="Path_10225" data-name="Path 10225" d="M440.931,361.612a2.05,2.05,0,0,1,1.093-.554,1.984,1.984,0,0,1,1.677,3.392l-2.573,2.574c-.156.156-.239.157-.394,0-.875-.875-1.757-1.744-2.623-2.629a1.979,1.979,0,0,1,2.718-2.874Zm-.011,5.047c.029-.023.042-.032.054-.044.834-.835,1.675-1.664,2.5-2.507a1.583,1.583,0,0,0-2.241-2.235c-.051.048-.1.1-.15.147a.2.2,0,0,1-.306,0c-.057-.053-.111-.111-.168-.165a1.585,1.585,0,0,0-2.178,2.3q1.021,1.027,2.048,2.049C440.626,366.357,440.769,366.505,440.92,366.66Z" transform="translate(-73.484 0)" fill="#f15a4f" stroke="#f15a4f" stroke-width="0.25"/>
    <path id="Path_10226" data-name="Path 10226" d="M500,403.932c0,.2,0,.378,0,.559,0,.161-.074.232-.236.234q-.359,0-.718,0c-.161,0-.232-.074-.234-.236,0-.181,0-.361,0-.556h-.537c-.187,0-.254-.067-.255-.252q0-.34,0-.681c0-.187.067-.255.251-.256h.541c0-.188,0-.364,0-.54s.068-.252.255-.252c.231,0,.462,0,.693,0,.169,0,.239.071.241.242s0,.354,0,.551h.518c.212,0,.274.061.274.27s0,.437,0,.656c0,.2-.066.262-.258.262Zm-1.579-.4h.526c.194,0,.26.066.261.259,0,.176,0,.351,0,.524h.4c0-.183,0-.356,0-.529s.067-.254.252-.254h.533v-.4h-.524c-.195,0-.26-.066-.261-.259,0-.176,0-.351,0-.525h-.4c0,.182,0,.355,0,.528s-.068.254-.253.255h-.534Z" transform="translate(-131.961 -39.568)" fill="#f15a4f" stroke="#f15a4f" stroke-width="0.25"/>
  </g>
</svg>
