<svg xmlns="http://www.w3.org/2000/svg" width="47.687" height="47.689" viewBox="0 0 47.687 47.689">
  <g id="Group_8320" data-name="Group 8320" transform="translate(-371.984 -371.977)">
    <path id="Path_10437" data-name="Path 10437" d="M465.906,407.669a23.536,23.536,0,0,1-2.792-.9,11.576,11.576,0,0,1-7.28-10.824c-.111-3.4-.025-6.813-.02-10.22a1.7,1.7,0,0,1,1.823-1.833q2.449-.01,4.9,0a1.7,1.7,0,1,1-.008,3.4c-1.047.009-2.094.005-3.141.009a.746.746,0,0,0-.143.04c-.008.156-.023.327-.023.5,0,2.626-.007,5.252,0,7.878a8.511,8.511,0,0,0,17.01.563c.09-2.925.021-5.855.022-8.782a1.258,1.258,0,0,0-.044-.2c-1.11,0-2.222.014-3.334,0a1.694,1.694,0,0,1-1.6-2.338A1.6,1.6,0,0,1,472.8,383.9q2.608-.029,5.217,0a1.645,1.645,0,0,1,1.636,1.635c.013,3.655.111,7.314-.032,10.964a11.791,11.791,0,0,1-9.715,11.014c-.388.069-.486.209-.472.58a8.2,8.2,0,0,0,2.084,5.338,4,4,0,0,0,2.871,1.222,10.167,10.167,0,0,0,7.171-2.6,17.393,17.393,0,0,0,5.057-7.626c1.817-5.052,2.292-10.195.408-15.31-2.827-7.678-8.371-12.217-16.453-13.535a19.754,19.754,0,0,0-11.8,1.833,2.489,2.489,0,0,1-1.216.245,1.62,1.62,0,0,1-1.408-1.4,1.7,1.7,0,0,1,.956-1.8,22.41,22.41,0,0,1,6.592-2.16,23.4,23.4,0,0,1,18.97,4.938,22.815,22.815,0,0,1,8.715,15.666,26.179,26.179,0,0,1-4.5,18.334,14.934,14.934,0,0,1-8.377,6.208,11.534,11.534,0,0,1-6.045.256,7.674,7.674,0,0,1-5.653-5.734C466.393,410.572,466.2,409.107,465.906,407.669Z" transform="translate(-71.901 0)" fill="#f15a4f"/>
    <path id="Path_10438" data-name="Path 10438" d="M387.337,453.458a6.8,6.8,0,0,1-13.568.649,6.536,6.536,0,0,1,1.457-4.913.571.571,0,0,0,.021-.782,23.831,23.831,0,0,1,3.389-28.526,1.7,1.7,0,1,1,2.448,2.351,20.482,20.482,0,0,0-3.016,24.27.568.568,0,0,0,.775.352A6.759,6.759,0,0,1,387.337,453.458Zm-3.428-.017a3.406,3.406,0,1,0-3.432,3.4A3.411,3.411,0,0,0,383.909,453.441Z" transform="translate(0 -40.578)" fill="#f15a4f"/>
  </g>
</svg>
