<svg xmlns="http://www.w3.org/2000/svg" width="16.613" height="9.597" viewBox="0 0 16.613 9.597">
  <g id="Group_8375" data-name="Group 8375" transform="translate(-367.263 -440.13)">
    <path id="Path_10460" data-name="Path 10460" d="M414.009,448.481l4.145-3.551-4.141-3.549c-.013.126-.027.217-.03.309-.006.168,0,.337-.01.5a.363.363,0,0,1-.724,0,4.8,4.8,0,0,1,.028-.862,1.451,1.451,0,0,1,1.4-1.2l.126,0h11.286a1.47,1.47,0,0,1,1.52,1.171,1.972,1.972,0,0,1,.032.412q0,3.217,0,6.435a1.475,1.475,0,0,1-1.576,1.578h-11.25a1.483,1.483,0,0,1-1.574-1.584c0-.138,0-.276,0-.415a.369.369,0,1,1,.737-.005c.007.15,0,.3,0,.45C413.985,448.262,414,448.349,414.009,448.481Zm.564-7.6c.076.069.114.106.154.141l5.383,4.6a.418.418,0,0,0,.663,0l5.4-4.618c.039-.034.076-.07.14-.131Zm0,8.093h11.744l-4.155-3.562c-.349.3-.681.6-1.021.884a1.06,1.06,0,0,1-1.3.071,1.781,1.781,0,0,1-.154-.125l-.958-.829Zm8.162-4.043,4.117,3.528c.082-.2.078-6.87,0-7.054Z" transform="translate(-43.767)" fill="#a9a9a9"/>
    <path id="Path_10461" data-name="Path 10461" d="M369.279,552.131c-.534,0-1.069,0-1.6,0a.371.371,0,0,1-.4-.449.381.381,0,0,1,.418-.294c.462,0,.925,0,1.387,0,.6,0,1.2,0,1.8,0,.25,0,.409.121.436.316a.374.374,0,0,1-.413.427C370.36,552.134,369.819,552.131,369.279,552.131Z" transform="translate(0 -105.907)" fill="#a9a9a9"/>
    <path id="Path_10462" data-name="Path 10462" d="M391.7,513c.348,0,.7,0,1.045,0,.262,0,.424.141.429.36s-.157.381-.426.383q-1.045.006-2.09,0a.384.384,0,0,1-.433-.379c0-.221.177-.363.448-.364C391.017,513,391.359,513,391.7,513Z" transform="translate(-21.86 -69.366)" fill="#a9a9a9"/>
  </g>
</svg>
