<svg xmlns="http://www.w3.org/2000/svg" width="78.287" height="105.504" viewBox="0 0 78.287 105.504">
  <g id="Group_8120" data-name="Group 8120" transform="translate(-83.356 -700.667)">
    <g id="Group_8121" data-name="Group 8121" transform="translate(-305.156 364.904)">
      <path id="Path_10312" data-name="Path 10312" d="M394.69,441.267c-2.325-.577-4.341-1.652-5.331-3.942a9.3,9.3,0,0,1-.809-3.562q-.067-39.5-.027-79.01a7.123,7.123,0,0,1,7.455-7.46c3.846-.028,7.691-.006,11.537-.006h1.04c.088-.129.119-.155.123-.183.511-3.87,1.545-4.773,5.472-4.773H421.2c0-.784-.012-1.492,0-2.2a4.044,4.044,0,0,1,4.382-4.357c1.442-.011,2.885-.02,4.327,0A4,4,0,0,1,434.1,339.9c.03.778,0,1.558,0,2.437,2.712,0,5.279-.015,7.845.011a6.374,6.374,0,0,1,1.921.243,3.707,3.707,0,0,1,2.573,2.953c.108.533.136,1.083.214,1.744h1.1c3.777,0,7.554-.008,11.331,0,4.73.013,7.7,2.992,7.7,7.74q.009,17.976,0,35.951a4.533,4.533,0,0,1-.064,1.023,1.513,1.513,0,0,1-2.992-.121,7.5,7.5,0,0,1-.032-1.131c0-11.846-.046-23.693.033-35.539.018-2.718-1.559-4.977-4.882-4.867-4.042.134-8.092.032-12.242.032.02,3.1-1.47,4.792-4.6,4.947v2.693h1.147q7,0,14.009,0c2.382,0,3.416,1.012,3.416,3.355q0,26.732.013,53.463a2.737,2.737,0,0,1-.855,2.1q-8.654,8.61-17.263,17.263a2.733,2.733,0,0,1-2.092.874q-21.169-.026-42.338-.014c-2.272,0-3.328-1.069-3.328-3.358q0-35.178,0-70.357c0-2.288,1.046-3.324,3.341-3.326q7-.006,14.01,0h1.2v-2.68c-3.023-.159-4.6-1.775-4.572-4.905-.351-.02-.652-.052-.953-.052q-5.82-.005-11.64,0c-2.889.007-4.507,1.637-4.507,4.55q-.005,39.351,0,78.7c0,2.89,1.649,4.541,4.53,4.542q13.289.009,26.577,0c.24,0,.481.007.721,0,.87-.031,1.672.083,2.034,1.032.372.973-.241,1.532-.9,2.06Zm3.187-80.126v70.744h41.47v-8.956H404.674c-.309,0-.619.013-.927,0a1.543,1.543,0,1,1-.042-3.08c.308-.02.618-.006.927-.006h34.7v-2.856H404.639c-.378,0-.758.014-1.132-.022a1.507,1.507,0,0,1-.171-2.988,6.591,6.591,0,0,1,1.331-.071q25.806.184,51.612.375c.369,0,.737,0,1.151,0V361.167H441.953c0,.735.015,1.415,0,2.095a3.372,3.372,0,0,1-3.665,3.656q-10.611.026-21.222,0a3.373,3.373,0,0,1-3.7-3.623c-.02-.708,0-1.417,0-2.155Zm29.874-15.713q-7.21,0-14.42,0c-1.252,0-1.493.248-1.5,1.51-.009,1.133,0,2.266,0,3.4,0,1.637.2,1.835,1.831,1.836q7.725,0,15.45,0,6.334,0,12.669,0c1.46,0,1.7-.241,1.71-1.646.005-1.2.009-2.4,0-3.605-.01-1.248-.256-1.491-1.52-1.493Q434.858,345.423,427.751,345.428Zm14.793,83.964,12.3-12.323h-12.3Zm-26.032-71.431h22.253v-2.631H416.512Zm22.225,3.2H416.451c0,.455,0,.858,0,1.261,0,1.407,0,1.409,1.376,1.409H436.67C439.14,363.834,439.195,363.765,438.737,361.164Zm-7.729-18.87c0-.877.02-1.661-.006-2.443a.95.95,0,0,0-1.078-.984c-1.511-.007-3.024-.052-4.53.033a1.336,1.336,0,0,0-1.01.752,16.451,16.451,0,0,0-.049,2.642Z" transform="translate(0)" fill="#f15a4f"/>
      <path id="Path_10313" data-name="Path 10313" d="M549.249,618.478c-.664-.528-1.276-1.089-.906-2.061.361-.947,1.164-1.035,2.033-1.035q13.539.011,27.078,0,4.758,0,4.754-4.727,0-16.833,0-33.667c0-1.6.466-2.344,1.494-2.381,1.065-.038,1.6.757,1.6,2.391q0,16.421,0,32.843c0,5.087-1.4,7.043-6.175,8.631Z" transform="translate(-118.502 -177.211)" fill="#f15a4f"/>
      <path id="Path_10314" data-name="Path 10314" d="M498.634,466.353a14.461,14.461,0,1,1-14.4,14.523A14.451,14.451,0,0,1,498.634,466.353Zm11.4,14.476a11.351,11.351,0,1,0-11.321,11.356A11.355,11.355,0,0,0,510.03,480.829Z" transform="translate(-71.022 -96.89)" fill="#f15a4f"/>
      <path id="Path_10315" data-name="Path 10315" d="M466.888,592.714q11.632,0,23.264,0a9.527,9.527,0,0,1,1.13.035,1.405,1.405,0,0,1,1.348,1.429,1.371,1.371,0,0,1-1.13,1.5,4.82,4.82,0,0,1-1.118.116q-23.521.008-47.042,0a4.506,4.506,0,0,1-1.118-.121,1.363,1.363,0,0,1-1.092-1.526,1.379,1.379,0,0,1,1.262-1.391,7.059,7.059,0,0,1,1.129-.046Q455.2,592.712,466.888,592.714Z" transform="translate(-39.037 -190.643)" fill="#f15a4f"/>
      <path id="Path_10316" data-name="Path 10316" d="M466.771,618.644H443.816c-.309,0-.618.008-.926,0-1.178-.051-1.791-.583-1.784-1.54s.628-1.477,1.806-1.542c.239-.013.48,0,.72,0q23.212,0,46.423,0a6.547,6.547,0,0,1,1.429.113,1.486,1.486,0,0,1-.117,2.91,8.148,8.148,0,0,1-1.231.062Q478.454,618.646,466.771,618.644Z" transform="translate(-39.021 -207.585)" fill="#f15a4f"/>
      <path id="Path_10317" data-name="Path 10317" d="M513.792,503.631c-.664,0-1.2.009-1.743,0-1.521-.031-2.217-.7-2.244-2.191-.02-1.1-.022-2.2,0-3.293a1.971,1.971,0,0,1,2.185-2.162c.544-.017,1.09,0,1.8,0,0-.588-.013-1.119,0-1.651.047-1.643.7-2.308,2.32-2.338,1.029-.019,2.059-.021,3.087,0,1.562.034,2.218.7,2.275,2.278.019.513,0,1.026,0,1.709.614,0,1.179-.012,1.743,0a1.992,1.992,0,0,1,2.245,2.207c.02,1.1.022,2.2,0,3.293a1.944,1.944,0,0,1-2.184,2.146c-.543.014-1.086,0-1.739,0-.023.471-.057.867-.06,1.262-.016,2.206-.6,2.783-2.841,2.785-.755,0-1.509,0-2.264,0-1.914-.014-2.57-.68-2.587-2.623C513.789,504.617,513.792,504.18,513.792,503.631Zm-.857-3.386c1.222.328,2.635.306,3.313,1s.627,2.11.908,3.263h.94c.316-1.213.284-2.626.974-3.309s2.1-.639,3.244-.925v-.911c-1.21-.322-2.621-.3-3.3-.99s-.615-2.1-.888-3.238h-.95c-.308,1.187-.275,2.6-.965,3.283s-2.1.635-3.278.928Z" transform="translate(-89.98 -115.902)" fill="#f15a4f"/>
    </g>
  </g>
</svg>
