<svg xmlns="http://www.w3.org/2000/svg" width="40.473" height="40.514" viewBox="0 0 40.473 40.514">
  <g id="Group_9778" data-name="Group 9778" transform="translate(-353.683 -352.839)">
    <path id="Path_10944" data-name="Path 10944" d="M380.506,380.419a9.8,9.8,0,1,1-.746-15.114c.029-.135.053-.259.082-.383a1.95,1.95,0,0,1,3.856.406c.012,2.308,0,4.616,0,6.925,0,1.751-.012,3.5.007,5.254a2.886,2.886,0,0,0,1.941,2.659,2.836,2.836,0,0,0,3.2-.871,3.125,3.125,0,0,0,.544-1.033c1.933-6.583.55-12.4-4.473-17.067a15.332,15.332,0,0,0-16.082-3.471,15.53,15.53,0,0,0-10.883,12.352,16.285,16.285,0,0,0,24.228,17.134,1.976,1.976,0,0,1,2.832.615,1.949,1.949,0,0,1-.763,2.7,19.3,19.3,0,0,1-5.866,2.346,20.272,20.272,0,1,1,15.391-23.53,19.51,19.51,0,0,1-.731,10.315,6.4,6.4,0,0,1-5.843,4.542,6.591,6.591,0,0,1-6.5-3.427C380.633,380.661,380.573,380.54,380.506,380.419Zm-12.448-7.24a5.866,5.866,0,1,0,5.912-5.881A5.876,5.876,0,0,0,368.059,373.179Z" transform="translate(0)" fill="#fff"/>
  </g>
</svg>
