<svg xmlns="http://www.w3.org/2000/svg" width="10.536" height="13.255" viewBox="0 0 10.536 13.255">
  <g id="Group_8337" data-name="Group 8337" transform="translate(-388.966 -353.623)">
    <path id="Path_10233" data-name="Path 10233" d="M391.417,356.059a.249.249,0,0,1-.036-.369c.038-.057.029-.143.056-.211a3.1,3.1,0,0,1,.216-.511.893.893,0,0,1,.884-.432c.042,0,.11-.014.126-.043a1.372,1.372,0,0,1,1.359-.742,3.975,3.975,0,0,1,2.23.714,1.453,1.453,0,0,1,.279.271,2.631,2.631,0,0,0,.431.49.6.6,0,0,1,.159.352.485.485,0,0,0,.086.23.949.949,0,0,1,.18.624,2.992,2.992,0,0,1-.309,1.3.183.183,0,0,0,0,.2.891.891,0,0,1-.184,1.1c-.02.016-.04.04-.063.044-.205.037-.235.193-.271.362a1.7,1.7,0,0,1-.437.8c-.106.114-.208.234-.325.337a.261.261,0,0,0-.092.284c.025.105.036.213.052.32a.663.663,0,0,0,.5.533c.453.1.906.193,1.357.3a2.342,2.342,0,0,1,1.724,1.9,4.147,4.147,0,0,1,.031.57c0,.507,0,1.014,0,1.522a.673.673,0,0,1-.748.747H393.62q-1.879,0-3.759,0a.763.763,0,0,1-.524-.153.634.634,0,0,1-.243-.5c0-.585-.01-1.171,0-1.756a2.351,2.351,0,0,1,1.642-2.124c.569-.168,1.136-.339,1.707-.5a.658.658,0,0,0,.422-.466,1.929,1.929,0,0,0,.079-.486.2.2,0,0,0-.049-.133c-.1-.111-.2-.217-.3-.321a1.93,1.93,0,0,1-.554-1.066c-.006-.035-.033-.089-.06-.1a.846.846,0,0,1-.422-1.2.231.231,0,0,0,0-.233c-.1-.239-.181-.484-.259-.73a.347.347,0,0,1,.037-.324.086.086,0,0,0,0-.08c-.149-.159-.056-.3.022-.45A.832.832,0,0,1,391.417,356.059Zm-.841,6.612a1.947,1.947,0,0,0-1.112,1.67c-.031.558-.01,1.118-.01,1.677,0,.261.111.374.371.374h8.818c.262,0,.373-.111.374-.372,0-.564,0-1.127,0-1.691a2,2,0,0,0-.285-1.065,1.952,1.952,0,0,0-.8-.749c-.032.144-.057.274-.092.4-.021.077,0,.112.072.151a1,1,0,0,1,.519,1.012c-.046.282-.117.559-.182.837a.171.171,0,0,1-.2.15,1.918,1.918,0,0,1-.341-.079.176.176,0,0,1,.077-.339c.047,0,.093.01.15.017.047-.211.1-.416.134-.624a.648.648,0,0,0-.42-.713.637.637,0,0,0-.823.322,5.889,5.889,0,0,0-.2.725c.052.013.081.019.11.028.119.038.173.119.148.221a.181.181,0,0,1-.233.129c-.072-.013-.144-.032-.215-.049-.169-.04-.217-.11-.18-.281.051-.237.1-.475.162-.709a1,1,0,0,1,.714-.74,2.533,2.533,0,0,1,.34-.055l.118-.545c-.5-.109-.986-.212-1.47-.325a.16.16,0,0,0-.2.091c-.208.335-.422.666-.637,1-.1.153-.213.16-.339.027-.1-.107-.2-.216-.3-.324l-.311-.331c-.207.223-.4.433-.6.641-.143.153-.251.144-.363-.03-.211-.328-.424-.654-.63-.986a.137.137,0,0,0-.187-.07c-.493.149-.988.29-1.482.435-.048.014-.1.033-.145.051l.141.633h.11a.838.838,0,1,1-.545.212c.037-.034.084-.092.078-.13C390.671,363.072,390.622,362.879,390.576,362.671Zm1.818-4.463h-.012q0,.357,0,.714a1.5,1.5,0,0,0,.385,1.048c.208.227.424.446.648.657a1.509,1.509,0,0,0,.7.4,1.1,1.1,0,0,0,.984-.293c.238-.2.451-.43.674-.647a1.608,1.608,0,0,0,.494-1.228,6.381,6.381,0,0,1,.022-.8,1.022,1.022,0,0,0-.919-1.145,3.758,3.758,0,0,1-1.527-.417,1,1,0,0,0-1.448.79A9.058,9.058,0,0,0,392.394,358.207Zm4.259-.456c.034-.058.058-.094.077-.131a2.634,2.634,0,0,0,.293-1.174.707.707,0,0,0-.214-.551.279.279,0,0,1-.059-.208.23.23,0,0,0-.132-.285.541.541,0,0,1-.188-.18,1.447,1.447,0,0,0-.6-.611,5.138,5.138,0,0,0-.764-.318,2.972,2.972,0,0,0-1.251-.174.962.962,0,0,0-.861.632c-.074.2-.116.222-.317.166a.577.577,0,0,0-.7.279,3.138,3.138,0,0,0-.179.524c-.016.051-.039.12-.019.16a.322.322,0,0,1-.105.484.365.365,0,0,1,.059.39.393.393,0,0,0-.009.313c.061.175.13.348.2.518a1.211,1.211,0,0,0,.112.175,1.3,1.3,0,0,0,.027-.322,1.382,1.382,0,0,1,2.02-1.248,3,3,0,0,0,1.056.34,3.608,3.608,0,0,1,.477.051A1.388,1.388,0,0,1,396.653,357.751Zm-3.367,3.242a1.729,1.729,0,0,1-.033.2.13.13,0,0,0,.068.169c.309.2.614.4.919.61a.123.123,0,0,0,.161.007c.315-.214.633-.422.949-.635a.127.127,0,0,0,.057-.088,2.359,2.359,0,0,0-.043-.261A1.5,1.5,0,0,1,393.286,360.993Zm1.788,1.792.531-.827c.1-.16.1-.16-.043-.315l-.957.636Zm-1.028-.5-.983-.653c-.032.082-.1.179-.08.219.186.316.389.621.593.939Zm-2.863,2.222a.48.48,0,0,0,.484-.474.487.487,0,0,0-.477-.484.482.482,0,0,0-.482.477A.474.474,0,0,0,391.183,364.5Zm5.615-6.315c-.26.139-.151.37-.173.581A.487.487,0,0,0,396.8,358.187Zm-4.778.585c0-.219.06-.434-.168-.567A.482.482,0,0,0,392.02,358.772Z" transform="translate(0 0)" fill="#f15a4f" stroke="#f15a4f" stroke-width="0.25"/>
    <path id="Path_10234" data-name="Path 10234" d="M436.2,637.162a.474.474,0,0,1-.475-.481.482.482,0,0,1,.482-.477.487.487,0,0,1,.477.484A.48.48,0,0,1,436.2,637.162Zm.362-.472a.354.354,0,0,0-.356-.365.359.359,0,0,0-.364.36.36.36,0,0,0,.72.006Z" transform="translate(-45.015 -272.659)" fill="#f15a4f" stroke="#f15a4f" stroke-width="0.25"/>
  </g>
</svg>
