<svg xmlns="http://www.w3.org/2000/svg" width="96.009" height="85.753" viewBox="0 0 96.009 85.753">
  <g id="Group_3560" data-name="Group 3560" transform="translate(-348 -368.484)">
    <path id="Path_10235" data-name="Path 10235" d="M411.171,399.8c.031,3.251,2.822,5.155,5.548,4.121,2.361-.9,4.688-1.882,7.021-2.85a2.5,2.5,0,0,1,2.146-.116,1.35,1.35,0,0,0,1.8-.727,1.407,1.407,0,0,0-.789-1.861,4.276,4.276,0,0,0-3.709-.108c-2.333.969-4.679,1.905-7.014,2.87-.6.247-1.175.465-1.749-.03s-.457-1.111-.293-1.731c.518-1.96,1.022-3.924,1.565-5.877a4.384,4.384,0,0,0-.846-4.13c-1.357-1.714-2.693-3.445-4.026-5.177-.9-1.17-.612-2.011.816-2.425,1.857-.539,3.71-1.09,5.573-1.609a4.567,4.567,0,0,0,2.763-2.088c1.2-1.937,2.431-3.855,3.658-5.776.818-1.282,1.781-1.293,2.591-.027,1.195,1.867,2.41,3.722,3.553,5.62a5.011,5.011,0,0,0,3.212,2.37c1.751.452,3.48.989,5.214,1.5,1.487.441,1.752,1.263.808,2.485-1.279,1.656-2.537,3.33-3.858,4.952a4.6,4.6,0,0,0-.909,4.544c.569,1.88,1.061,3.786,1.483,5.7a2.318,2.318,0,0,1-.3,1.619c-.378.567-1.047.376-1.623.123a14.2,14.2,0,0,0-1.392-.547,1.348,1.348,0,0,0-1.755.8,1.314,1.314,0,0,0,.679,1.739c.463.253.971.424,1.459.631a4.107,4.107,0,0,0,5.7-4.994c-.531-1.989-1.019-3.99-1.575-5.971a1.858,1.858,0,0,1,.378-1.818q2.042-2.566,4.028-5.176c2.023-2.647,1.031-5.765-2.149-6.738-1.729-.529-3.461-1.055-5.212-1.5a3.074,3.074,0,0,1-2-1.524c-1.094-1.819-2.255-3.6-3.4-5.382-1.9-2.954-5.361-2.95-7.257.007-1.163,1.813-2.34,3.619-3.454,5.461A2.91,2.91,0,0,1,416,377.589c-1.718.452-3.416.983-5.123,1.476-3.369.973-4.4,4.087-2.261,6.857,1.3,1.681,2.585,3.371,3.916,5.026a1.989,1.989,0,0,1,.406,1.989c-.394,1.314-.728,2.646-1.067,3.976C411.59,398,411.341,399.09,411.171,399.8Zm13.762,36.311H388.562c-.281,0-.564-.014-.843.007a1.4,1.4,0,0,0-.048,2.794,6.862,6.862,0,0,0,.75.011h73.023a4.911,4.911,0,0,0,.842-.023,1.335,1.335,0,0,0,1.235-1.411,1.318,1.318,0,0,0-1.28-1.364,7.955,7.955,0,0,0-.937-.013Zm-.055-5.773h36.275c.281,0,.563.008.844,0a1.432,1.432,0,0,0,1.541-1.408,1.456,1.456,0,0,0-1.479-1.395c-.218-.016-.437,0-.656,0H388.478c-1.439,0-2.124.443-2.148,1.384-.025.966.679,1.429,2.18,1.429Zm.034-11.368H388.734c-.344,0-.689-.011-1.03.021a1.406,1.406,0,0,0-1.374,1.379,1.421,1.421,0,0,0,1.367,1.4,7.881,7.881,0,0,0,.843.016h72.732a7.984,7.984,0,0,0,.936-.021,1.383,1.383,0,0,0,1.32-1.43A1.335,1.335,0,0,0,462.215,419c-.372-.034-.749-.026-1.124-.026Zm4.046-8.559H396.63a6.7,6.7,0,0,0-.936.02,1.287,1.287,0,0,0-1.2,1.23,1.268,1.268,0,0,0,.926,1.446,3.681,3.681,0,0,0,1.106.112q32.469.007,64.937,0a4.025,4.025,0,0,0,.932-.047,1.39,1.39,0,0,0-.171-2.752c-.31-.031-.624-.012-.937-.012Zm21.786-26.153-.144.234a2.787,2.787,0,0,0-2.608,1.68c-.991,1.866-2.182,3.28-4.5,3.719-2.721.515-3.46,2.849-1.578,4.9,1.57,1.708,2.123,3.382,1.115,5.5a2.033,2.033,0,0,0-.091.363,2.8,2.8,0,0,0,3.832,3.321c1.07-.434,2.126-.9,3.215-1.282a1.992,1.992,0,0,1,1.222,0c1.117.391,2.2.88,3.3,1.315a2.787,2.787,0,0,0,3.771-3.266c-.249-1.154-.959-2.386-.728-3.418.242-1.08,1.385-1.948,2.1-2.935,1.2-1.671.593-3.942-1.4-4.335a6.691,6.691,0,0,1-5.189-4.112.89.89,0,0,0-.266-.381C452.115,385.112,451.427,384.688,450.744,384.257Zm-51.689.234a2.708,2.708,0,0,0-2.536,1.713,6.318,6.318,0,0,1-4.789,3.78A2.647,2.647,0,0,0,390.3,394.6c1.685,1.807,2.288,3.592,1.241,5.911a2.481,2.481,0,0,0,.736,2.982,2.76,2.76,0,0,0,3.141.435c1.235-.518,2.493-1.367,3.739-1.363s2.476.935,3.747,1.356a3.782,3.782,0,0,0,1.9.181c1.718-.377,2.554-1.967,1.826-3.91-.766-2.043-.6-3.7,1.061-5.165a3.664,3.664,0,0,0,.57-.741c1.062-1.589.5-3.836-1.333-4.179a7.3,7.3,0,0,1-5.478-4.341A2.442,2.442,0,0,0,399.055,384.491Z" transform="translate(-28.745)" fill="none"/>
    <path id="Path_10236" data-name="Path 10236" d="M348,479.809c.144-.508.267-1.023.434-1.523a8.56,8.56,0,0,1,8.818-5.753,1.406,1.406,0,0,1,1.449,1.406c0,.834-.57,1.34-1.532,1.406a12.168,12.168,0,0,0-2.316.255,5.456,5.456,0,0,0-4.027,5.272q-.029,18.1,0,36.193a5.545,5.545,0,0,0,5.8,5.492c10.032.01,20.063-.017,30.1.014,4.034.012,2.7-.557,5.419,2.476,1.27,1.418,2.5,2.872,4,4.595a6.723,6.723,0,0,1,.56-.939c1.4-1.64,2.834-3.25,4.222-4.9a3.261,3.261,0,0,1,2.686-1.253c3.781.028,7.563,0,11.344.015,1.169,0,1.9.8,1.614,1.746a1.5,1.5,0,0,1-1.663,1.068c-3.563-.012-7.126.012-10.688-.021a1.743,1.743,0,0,0-1.512.686c-1.4,1.677-2.848,3.321-4.3,4.96a2.952,2.952,0,0,1-4.833-.026c-1.423-1.62-2.854-3.234-4.234-4.89a1.839,1.839,0,0,0-1.587-.731q-15.235.036-30.47.016c-5,0-7.845-2.169-9.168-6.984-.014-.052-.078-.09-.119-.135Z" transform="translate(0 -78.011)" fill="#f15a4f"/>
    <path id="Path_10237" data-name="Path 10237" d="M659.446,518.145c-.118.416-.232.833-.353,1.249a8.317,8.317,0,0,1-7.829,6.041c-4.781.053-9.562.02-14.343.014-1.026,0-1.646-.539-1.662-1.38-.017-.873.624-1.425,1.7-1.426q6.8-.01,13.594,0c3.754,0,6.073-2.322,6.074-6.082q0-17.532,0-35.065c0-3.681-2.25-5.985-5.907-6.071-1.12-.026-1.75-.514-1.768-1.367-.019-.9.651-1.435,1.8-1.446a8.44,8.44,0,0,1,8.514,6.752,5.148,5.148,0,0,0,.175.527Z" transform="translate(-215.437 -78.09)" fill="#f15a4f"/>
    <path id="Path_10238" data-name="Path 10238" d="M474.662,399.8c.17-.709.419-1.8.7-2.886.34-1.33.673-2.662,1.067-3.976a1.989,1.989,0,0,0-.406-1.989c-1.331-1.654-2.618-3.345-3.916-5.026-2.138-2.77-1.109-5.885,2.261-6.857,1.708-.493,3.405-1.023,5.123-1.476a2.91,2.91,0,0,0,1.858-1.424c1.114-1.843,2.291-3.648,3.454-5.461,1.9-2.956,5.357-2.96,7.257-.007,1.149,1.785,2.31,3.564,3.4,5.382a3.074,3.074,0,0,0,2,1.524c1.751.447,3.483.973,5.212,1.5,3.18.974,4.172,4.091,2.149,6.738q-1.991,2.605-4.028,5.176a1.857,1.857,0,0,0-.378,1.818c.556,1.982,1.045,3.982,1.575,5.971a4.107,4.107,0,0,1-5.7,4.994c-.488-.207-1-.378-1.459-.631a1.314,1.314,0,0,1-.679-1.739,1.348,1.348,0,0,1,1.755-.8,14.2,14.2,0,0,1,1.392.547c.576.253,1.245.443,1.623-.123a2.317,2.317,0,0,0,.3-1.619c-.422-1.917-.915-3.824-1.483-5.7a4.6,4.6,0,0,1,.909-4.544c1.321-1.622,2.579-3.3,3.858-4.952.944-1.222.679-2.044-.808-2.485-1.734-.514-3.463-1.051-5.214-1.5a5.011,5.011,0,0,1-3.212-2.37c-1.143-1.9-2.358-3.754-3.553-5.62-.81-1.266-1.773-1.255-2.591.027-1.226,1.921-2.458,3.839-3.658,5.776a4.567,4.567,0,0,1-2.763,2.088c-1.862.519-3.716,1.07-5.572,1.609-1.428.415-1.717,1.255-.816,2.425,1.334,1.732,2.669,3.464,4.026,5.177a4.384,4.384,0,0,1,.846,4.13c-.543,1.953-1.047,3.917-1.565,5.877-.164.62-.281,1.236.293,1.731s1.151.277,1.749.03c2.335-.964,4.681-1.9,7.014-2.87a4.276,4.276,0,0,1,3.709.108,1.407,1.407,0,0,1,.789,1.861,1.35,1.35,0,0,1-1.8.727,2.5,2.5,0,0,0-2.146.116c-2.333.968-4.66,1.954-7.021,2.85C477.484,404.955,474.693,403.05,474.662,399.8Z" transform="translate(-92.236)" fill="#f15a4f"/>
    <path id="Path_10239" data-name="Path 10239" d="M424.936,638.942h36.371a7.941,7.941,0,0,1,.937.013,1.318,1.318,0,0,1,1.28,1.364,1.335,1.335,0,0,1-1.235,1.411,4.918,4.918,0,0,1-.842.023H388.423a6.876,6.876,0,0,1-.75-.011,1.4,1.4,0,0,1,.048-2.794c.28-.021.562-.007.843-.007Z" transform="translate(-28.748 -202.832)" fill="#f15a4f"/>
    <path id="Path_10240" data-name="Path 10240" d="M424.878,607.424H388.509c-1.5,0-2.2-.463-2.18-1.429.024-.941.709-1.384,2.148-1.384H461.4c.219,0,.439-.011.656,0a1.456,1.456,0,0,1,1.479,1.395A1.432,1.432,0,0,1,462,607.419c-.281.013-.562,0-.844,0Z" transform="translate(-28.745 -177.087)" fill="#f15a4f"/>
    <path id="Path_10241" data-name="Path 10241" d="M424.918,570.4H461.1c.374,0,.751-.007,1.124.027a1.335,1.335,0,0,1,1.313,1.334,1.383,1.383,0,0,1-1.32,1.43,8,8,0,0,1-.936.021H388.546a7.882,7.882,0,0,1-.843-.016,1.421,1.421,0,0,1-1.367-1.4,1.406,1.406,0,0,1,1.374-1.379c.341-.033.686-.021,1.03-.021Z" transform="translate(-28.751 -151.433)" fill="#f15a4f"/>
    <path id="Path_10242" data-name="Path 10242" d="M453.42,536.154h32.328c.313,0,.627-.018.937.012a1.39,1.39,0,0,1,.171,2.752,4.024,4.024,0,0,1-.932.047q-32.469,0-64.937,0a3.678,3.678,0,0,1-1.106-.112,1.268,1.268,0,0,1-.926-1.446,1.287,1.287,0,0,1,1.2-1.23,6.7,6.7,0,0,1,.936-.02Z" transform="translate(-53.207 -125.744)" fill="#f15a4f"/>
    <path id="Path_10243" data-name="Path 10243" d="M614.334,431.57c.683.431,1.371.854,2.044,1.3a.89.89,0,0,1,.265.381,6.691,6.691,0,0,0,5.189,4.112c2,.392,2.607,2.663,1.4,4.335-.711.988-1.854,1.855-2.1,2.936-.231,1.032.48,2.264.728,3.418a2.787,2.787,0,0,1-3.771,3.266c-1.1-.435-2.185-.925-3.3-1.315a1.991,1.991,0,0,0-1.222,0c-1.089.378-2.145.849-3.215,1.282a2.8,2.8,0,0,1-3.832-3.321,2.035,2.035,0,0,1,.091-.362c1.008-2.117.455-3.791-1.115-5.5-1.882-2.048-1.143-4.382,1.578-4.9,2.321-.439,3.513-1.853,4.5-3.719a2.786,2.786,0,0,1,2.608-1.68Zm4.783,17.113c-.274-1.039-.463-1.914-.737-2.761a3.354,3.354,0,0,1,.713-3.478c.661-.76,1.242-1.59,2.07-2.664-3.779.049-5.55-2.291-7.022-5.14-1.348,3.031-3.294,5.094-6.88,5.209.81,1.049,1.408,1.883,2.068,2.664a3.266,3.266,0,0,1,.673,3.313c-.276.877-.463,1.781-.734,2.846,1.219-.488,2.275-.854,3.281-1.329a3.631,3.631,0,0,1,3.24-.021C616.827,447.793,617.9,448.189,619.117,448.683Z" transform="translate(-192.335 -47.313)" fill="#f15a4f"/>
    <path id="Path_10244" data-name="Path 10244" d="M408.339,432.5a2.442,2.442,0,0,1,2.4,1.271,7.3,7.3,0,0,0,5.478,4.341c1.834.343,2.395,2.59,1.333,4.179a3.665,3.665,0,0,1-.57.741c-1.665,1.46-1.827,3.121-1.061,5.165.728,1.943-.109,3.533-1.826,3.91a3.783,3.783,0,0,1-1.9-.181c-1.271-.421-2.5-1.352-3.747-1.356s-2.5.846-3.739,1.363a2.76,2.76,0,0,1-3.141-.435,2.481,2.481,0,0,1-.736-2.982c1.047-2.319.444-4.1-1.241-5.911A2.648,2.648,0,0,1,401.014,438a6.318,6.318,0,0,0,4.789-3.78A2.708,2.708,0,0,1,408.339,432.5Zm-6.845,8.043c.846,1.1,1.494,1.969,2.179,2.813a3.076,3.076,0,0,1,.6,2.979c-.273.943-.487,1.9-.77,3.029a28.647,28.647,0,0,0,2.756-1.115,4.4,4.4,0,0,1,4.37.015c.8.414,1.677.687,2.714,1.1-.314-1.2-.572-2.155-.815-3.115a3.036,3.036,0,0,1,.577-2.817c.7-.866,1.368-1.761,2.261-2.917-3.694-.048-5.571-2.242-6.968-5.224C407.065,438.319,405.119,440.434,401.493,440.546Z" transform="translate(-38.029 -48.012)" fill="#f15a4f"/>
  </g>
</svg>
