<svg xmlns="http://www.w3.org/2000/svg" width="11" height="11" viewBox="0 0 11 11">
  <g id="Group_8338" data-name="Group 8338" transform="translate(-832.5 -447.5)">
    <g id="Date_range_light" transform="translate(833 448)">
      <rect id="Rectangle_25" data-name="Rectangle 25" width="10" height="8" rx="2" transform="translate(0 2)" fill="none" stroke="#f15a4f" stroke-width="1"/>
      <path id="Rectangle_26" data-name="Rectangle 26" d="M2,0H8a2,2,0,0,1,2,2V2a0,0,0,0,1,0,0H0A0,0,0,0,1,0,2V2A2,2,0,0,1,2,0Z" transform="translate(0 2)" fill="rgba(241,90,79,0.97)"/>
      <path id="Line_1" data-name="Line 1" d="M0,0H1.821" transform="translate(2.72 0) rotate(90)" fill="none" stroke="#f15a4f" stroke-linecap="round" stroke-width="1"/>
      <path id="Line_2" data-name="Line 2" d="M0,0H1.821" transform="translate(7.461 0) rotate(90)" fill="none" stroke="#f15a4f" stroke-linecap="round" stroke-width="1"/>
      <rect id="Rectangle_27" data-name="Rectangle 27" width="2" height="1" rx="0.5" transform="translate(2 5)" fill="#f15a4f"/>
      <rect id="Rectangle_27-2" data-name="Rectangle 27" width="2" height="1" rx="0.5" transform="translate(6 5)" fill="#f15a4f"/>
      <rect id="Rectangle_27-3" data-name="Rectangle 27" width="2" transform="translate(2 8)" fill="#f15a4f"/>
      <rect id="Rectangle_27-4" data-name="Rectangle 27" width="2" transform="translate(6 8)" fill="#f15a4f"/>
    </g>
  </g>
</svg>
