<svg xmlns="http://www.w3.org/2000/svg" width="98.234" height="98.131" viewBox="0 0 98.234 98.131">
  <g id="Group_8392" data-name="Group 8392" transform="translate(-334.345 -334.568)">
    <path id="Path_10470" data-name="Path 10470" d="M431.329,386.237c-.313,2.21-.542,4.436-.954,6.627a46.715,46.715,0,0,1-7.155,17.288,3.672,3.672,0,0,1-5.1,1.083,3.747,3.747,0,0,1-1.218-5.005c1.5-2.893,3.294-5.683,4.388-8.724,4.523-12.571,3.276-24.684-4.039-35.871a40.275,40.275,0,1,0-66.222,45.8,40.246,40.246,0,0,0,51.426,11.81c.688-.361,1.352-.768,2.045-1.12a3.71,3.71,0,0,1,5.079,1.438,3.577,3.577,0,0,1-1.422,5,95.991,95.991,0,0,1-9.11,4.238,41.008,41.008,0,0,1-12.01,2.5,5.564,5.564,0,0,0-.724.148h-5.6c-.272-.054-.542-.119-.815-.161-2.608-.4-5.26-.622-7.818-1.235a47.864,47.864,0,0,1-35.549-55.367A46.48,46.48,0,0,1,351.1,348.5c11.075-10.086,24.161-14.108,38.99-12.224a45.661,45.661,0,0,1,24.9,11.38,46.821,46.821,0,0,1,15.6,27.739c.314,1.8.493,3.618.735,5.427Z" transform="translate(0 0)" fill="none" stroke="#f15a4f" stroke-width="2.5"/>
    <path id="Path_10471" data-name="Path 10471" d="M531.682,505.453q0,8.219,0,16.438a3.636,3.636,0,0,1-2.008,3.436,3.522,3.522,0,0,1-3.727-.16,3.684,3.684,0,0,1-1.732-3.32q0-5.183,0-10.367,0-11.161,0-22.322a3.813,3.813,0,0,1,2.473-3.889,3.728,3.728,0,0,1,4.988,3.652c.031,4.172.008,8.343.009,12.515Q531.682,503.445,531.682,505.453Z" transform="translate(-144.437 -114.314)" fill="none" stroke="#f15a4f" stroke-width="2"/>
    <path id="Path_10472" data-name="Path 10472" d="M531.7,424.9a3.729,3.729,0,1,1-3.768-3.714A3.749,3.749,0,0,1,531.7,424.9Z" transform="translate(-144.461 -65.39)" fill="none" stroke="#f15a4f" stroke-width="2"/>
  </g>
</svg>
