<svg xmlns="http://www.w3.org/2000/svg" width="101.537" height="100.532" viewBox="0 0 101.537 100.532">
  <g id="Group_3687" data-name="Group 3687" transform="translate(2374.333 -6652.966)">
    <g id="Group_3683" data-name="Group 3683" transform="translate(-2521 6199)">
      <g id="Group_3680" data-name="Group 3680" transform="translate(146.667 453.966)">
        <ellipse id="Ellipse_1362" data-name="Ellipse 1362" cx="50.243" cy="50.243" rx="50.243" ry="50.243" transform="translate(0 0)" fill="#f15a4f"/>
        <path id="Path_10411" data-name="Path 10411" d="M781.969,300.86a50.263,50.263,0,1,0,50.238,50.247A50.263,50.263,0,0,0,781.969,300.86Zm0,93.8A43.563,43.563,0,1,1,825.532,351.1,43.563,43.563,0,0,1,781.969,394.662Z" transform="translate(-730.67 -300.855)" opacity="0.1"/>
      </g>
    </g>
    <g id="Group_3684" data-name="Group 3684" transform="translate(-20.248 -64.031)">
      <path id="Path_10412" data-name="Path 10412" d="M584.4,522.3l-10.48,10.662a.189.189,0,0,0,0,.273l7.353,7.819a1.265,1.265,0,1,1-1.789,1.789l-7.315-7.791a.2.2,0,0,0-.28,0l-1.782,1.8a7.833,7.833,0,0,1-5.6,2.357,8,8,0,0,1-5.7-2.423l-1.712-1.751a.2.2,0,0,0-.28,0l-7.3,7.773a1.265,1.265,0,1,1-1.789-1.789l7.325-7.8a.21.21,0,0,0,0-.273l-10.48-10.662a.193.193,0,0,0-.329.137v21.335a3.123,3.123,0,0,0,3.113,3.113h34.269a3.123,3.123,0,0,0,3.113-3.113V522.439a.193.193,0,0,0-.336-.137Z" transform="translate(-2867.24 6234.942)" fill="#fff"/>
      <path id="Path_10413" data-name="Path 10413" d="M566.709,530.442a5.3,5.3,0,0,0,3.824-1.576L585.8,513.33a3.046,3.046,0,0,0-1.926-.7H549.576a3.025,3.025,0,0,0-1.926.7l15.267,15.536A5.28,5.28,0,0,0,566.709,530.442Z" transform="translate(-2869.456 6241.18)" fill="#fff"/>
    </g>
  </g>
</svg>
