<svg xmlns="http://www.w3.org/2000/svg" width="17.881" height="20.96" viewBox="0 0 17.881 20.96">
  <g id="Group_135" data-name="Group 135" transform="translate(0.15 0.15)" opacity="0.6">
    <g id="Group_134" data-name="Group 134">
      <g id="Group_133" data-name="Group 133">
        <path id="Path_316" data-name="Path 316" d="M67.765,8.48h-.659V5.085a5.535,5.535,0,0,0-11.032,0V8.48h-.659A2.523,2.523,0,0,0,52.8,10.892V18.25a2.523,2.523,0,0,0,2.616,2.412H67.765a2.523,2.523,0,0,0,2.616-2.412V10.892A2.526,2.526,0,0,0,67.765,8.48ZM57.643,5.085a3.96,3.96,0,0,1,7.894,0V8.48H57.643ZM68.813,18.242a1.013,1.013,0,0,1-1.047.966H55.416a1.013,1.013,0,0,1-1.047-.966V10.892a1.013,1.013,0,0,1,1.047-.966H67.765a1.013,1.013,0,0,1,1.047.966v7.351Z" transform="translate(-52.8 -0.006)" fill="#292929" stroke="#d9d9d9" stroke-width="0.3"/>
      </g>
    </g>
  </g>
</svg>
