<svg xmlns="http://www.w3.org/2000/svg" width="13.442" height="14.954" viewBox="0 0 13.442 14.954">
  <g id="Group_8374" data-name="Group 8374" transform="translate(-367.408 -348)">
    <path id="Path_10454" data-name="Path 10454" d="M367.616,362.954a.389.389,0,0,1-.208-.4c.011-.321,0-.642,0-.964,0-.255.045-.319.292-.409,0-.255,0-.513,0-.77,0-.282.1-.38.374-.381h.21v-.175q0-2.088,0-4.176a1.2,1.2,0,0,1,0-.16.291.291,0,0,1,.575,0,1.079,1.079,0,0,1,0,.16q0,2.081,0,4.162v.184h2.044v-.171q0-2.38,0-4.76a.6.6,0,0,1,.665-.666h5.1a.6.6,0,0,1,.664.668q0,2.373,0,4.746v.184h2.036v-8.214h-2.449a2.94,2.94,0,0,1-5.592-.006h-2.466v.757c0,.112,0,.224,0,.336a.293.293,0,1,1-.583,0c0-.36,0-.72,0-1.1h-.217c-.268,0-.367-.1-.367-.373q0-.511,0-1.022c0-.25.105-.356.354-.357h3.278c.012-.028.023-.054.033-.079a2.893,2.893,0,0,1,2.4-1.942.385.385,0,0,0,.067-.024h.584a.5.5,0,0,0,.082.025,2.83,2.83,0,0,1,1.992,1.195,8.472,8.472,0,0,1,.464.825h3.254c.218,0,.339.108.341.31q.006.569,0,1.138a.289.289,0,0,1-.3.3c-.09,0-.181,0-.267,0v8.237h.17c.313,0,.4.089.4.4,0,.253,0,.505,0,.755.247.089.292.153.292.409,0,.321-.008.642,0,.963a.39.39,0,0,1-.208.4Zm6.211-2.927v-5.005h-2.318v5.005Zm.6-5.011v5.005h2.318v-5.005Zm-.307-1.759a2.336,2.336,0,1,0-2.331-2.349A2.341,2.341,0,0,0,374.124,353.257ZM368,362.36h12.248v-.567H368Zm11.961-1.732H368.3v.566h11.669Zm-8.754-9.419v-.57H368.3v.57Zm8.749,0v-.567h-2.911v.567Z" fill="#a9a9a9"/>
    <path id="Path_10455" data-name="Path 10455" d="M390.327,500.945a.288.288,0,0,1,.282.29.291.291,0,1,1-.582,0A.288.288,0,0,1,390.327,500.945Z" transform="translate(-21.738 -146.989)" fill="#a9a9a9"/>
    <path id="Path_10456" data-name="Path 10456" d="M503.027,578.12c0,.092,0,.184,0,.276a.293.293,0,0,1-.295.3.289.289,0,0,1-.286-.289c-.006-.194-.005-.388,0-.581a.29.29,0,1,1,.581-.007C503.031,577.917,503.027,578.019,503.027,578.12Z" transform="translate(-129.774 -220.588)" fill="#a9a9a9"/>
    <path id="Path_10457" data-name="Path 10457" d="M563.027,578.108c0,.1,0,.194,0,.291a.29.29,0,1,1-.581,0q-.008-.291,0-.581a.291.291,0,1,1,.581,0C563.031,577.914,563.027,578.011,563.027,578.108Z" transform="translate(-187.438 -220.587)" fill="#a9a9a9"/>
    <path id="Path_10458" data-name="Path 10458" d="M497.588,380.579c0,.114,0,.211,0,.307a.581.581,0,0,1-.572.568c-.2.005-.4,0-.6,0a.583.583,0,0,1-.58-.589c0-.087,0-.175,0-.286-.095,0-.185,0-.275,0a.584.584,0,0,1-.6-.6c0-.19,0-.38,0-.569a.582.582,0,0,1,.586-.584c.091,0,.183,0,.29,0,0-.108,0-.2,0-.3a.582.582,0,0,1,.579-.576c.195,0,.389,0,.584,0a.582.582,0,0,1,.588.582c0,.092,0,.183,0,.294.1,0,.2,0,.3,0a.581.581,0,0,1,.579.576c0,.195,0,.389,0,.584a.583.583,0,0,1-.593.592C497.784,380.58,497.7,380.579,497.588,380.579Zm-1.151-2.041a.167.167,0,0,0-.014.039c0,.165,0,.331,0,.5a.3.3,0,0,1-.343.338c-.174,0-.347,0-.524,0v.572a.18.18,0,0,0,.036.01l.481,0c.24,0,.347.108.349.347,0,.173,0,.346,0,.519H497c0-.18,0-.35,0-.52,0-.238.109-.344.35-.345.173,0,.346,0,.514,0v-.584h-.507c-.25,0-.355-.106-.357-.354,0-.173,0-.345,0-.519Z" transform="translate(-122.583 -28.782)" fill="#a9a9a9"/>
  </g>
</svg>
