<svg xmlns="http://www.w3.org/2000/svg" width="48.5" height="48.5" viewBox="0 0 48.5 48.5">
  <g id="Group_8365" data-name="Group 8365" transform="translate(-347.5 -347.5)">
    <path id="Path_10442" data-name="Path 10442" d="M395.5,358.762a2.985,2.985,0,0,1-2.2,2.03c-.751.231-1.483.525-2.214.817-.136.054-.314.233-.316.355-.02,1.962-.014,3.924-.014,5.911.132.056.256.106.378.16a3.031,3.031,0,0,1,1.965,2.787c.046,1.1.028,2.195.01,3.292a1.541,1.541,0,0,1-1.581,1.594q-1.575.042-3.153,0a1.568,1.568,0,0,1-1.588-1.643c-.012-1.051-.035-2.1.007-3.153a3.043,3.043,0,0,1,1.989-2.867c.282-.118.4-.234.4-.558-.02-1.576-.008-3.153-.01-4.73,0-.12-.015-.239-.027-.42-.233.079-.433.141-.63.213-.985.362-1.964.739-2.956,1.082a.464.464,0,0,0-.362.533c.011,2.4.008,4.791.006,7.187a2.39,2.39,0,0,1-1.7,2.483c-3.579,1.35-7.163,2.687-10.743,4.036a2.81,2.81,0,0,1-2.074-.019q-5.3-2.006-10.617-3.984a2.438,2.438,0,0,1-1.779-2.567c0-2.349-.01-4.7.01-7.048a.582.582,0,0,0-.454-.663c-2.641-.955-5.265-1.955-7.912-2.891A2.929,2.929,0,0,1,348,358.762v-.928a2.752,2.752,0,0,1,1.715-1.856q6.8-2.49,13.6-5.013,3.99-1.476,7.976-2.965h.928c.212.085.422.175.636.254,6.847,2.529,13.69,5.068,20.547,7.57a3.051,3.051,0,0,1,2.1,2.01Zm-19-1.136c.156.04.288.081.423.108,4.056.816,8.115,1.623,12.168,2.454a2.431,2.431,0,0,0,1.521-.1c.823-.348,1.673-.638,2.517-.935.424-.149.774-.358.778-.856s-.343-.709-.766-.865q-10.447-3.853-20.9-7.7a1.524,1.524,0,0,0-.969-.006q-10.476,3.842-20.939,7.718c-.429.158-.763.374-.751.872.011.473.341.677.75.828q10.382,3.828,20.757,7.676a1.784,1.784,0,0,0,1.335-.006q5.769-2.152,11.55-4.274c.981-.363,1.961-.73,3.019-1.124-.135-.047-.185-.071-.238-.082q-5.357-1.084-10.715-2.159a.493.493,0,0,0-.367.108,5.831,5.831,0,0,1-4.847,1.326,5.2,5.2,0,0,1-2.9-1.213,2.394,2.394,0,0,1-.022-3.762,3.654,3.654,0,0,1,.831-.583,6.524,6.524,0,0,1,6.063.019A2.791,2.791,0,0,1,376.5,357.625Zm7.12,6.743c-.225.077-.385.127-.542.185q-5.168,1.906-10.334,3.819a2.719,2.719,0,0,1-1.984,0q-4.771-1.78-9.551-3.537c-.429-.158-.859-.311-1.337-.484v.528q0,3.177,0,6.354c0,.752.1.9.8,1.161,3.525,1.323,7.048,2.653,10.581,3.955a1.6,1.6,0,0,0,.973.008c.909-.294,1.8-.659,2.692-1q3.966-1.488,7.933-2.971c.418-.156.766-.359.767-.865C383.625,369.165,383.623,366.8,383.623,364.368Zm-11.77-5.292c.139-.009.4-.008.662-.047a3.635,3.635,0,0,0,2.055-.863.82.82,0,0,0,.011-1.325,1.807,1.807,0,0,0-.44-.335,4.924,4.924,0,0,0-4.825.036c-.98.541-.965,1.323-.018,1.915A4.683,4.683,0,0,0,371.853,359.076ZM391.532,374.1c0-1.043.008-2.058,0-3.074a1.58,1.58,0,0,0-1.565-1.657,1.6,1.6,0,0,0-1.595,1.687c-.009.911,0,1.823,0,2.734a2.354,2.354,0,0,0,.042.31Z" fill="#f15a4f" stroke="#f15a4f" stroke-width="1"/>
    <path id="Path_10443" data-name="Path 10443" d="M348,610.755c.24-.311.488-.617.715-.938a.836.836,0,0,0,.127-.375,16.846,16.846,0,0,1,1.026-4.219,1.583,1.583,0,0,1,2.029-1.143,99.388,99.388,0,0,0,15.537,1.469,1.139,1.139,0,0,0,.836-.28,5.458,5.458,0,0,1,6.961,0,1.141,1.141,0,0,0,.837.279,109.39,109.39,0,0,0,13.438-1.1c.763-.119,1.52-.272,2.282-.4a1.525,1.525,0,0,1,1.771,1,16.925,16.925,0,0,1,1.084,4.3,1.715,1.715,0,0,0,.322.607c.17.27.356.529.535.792v2.227a3.3,3.3,0,0,0-.08.4,19.917,19.917,0,0,1-1.119,5.031A2.086,2.086,0,0,1,393,619.846h-.742c-.037-.025-.071-.067-.111-.074-1.433-.224-2.859-.516-4.3-.652q-4.471-.423-8.955-.7c-1.3-.083-2.616-.014-3.939-.014-.179.9-.266,1.019-1.064,1.44h-.649L371.75,618.7l-1.485,1.148h-.649a1.517,1.517,0,0,1-1.045-1.536c-.152-.007-.273-.02-.393-.018a120.23,120.23,0,0,0-14.037,1.016c-.971.137-1.93.356-2.895.537H350.5a1.768,1.768,0,0,1-1.185-1.136c-.331-1.12-.68-2.236-.956-3.37-.181-.741-.246-1.51-.363-2.267Zm18.446.416H349.585a17.585,17.585,0,0,0,1.265,7.083,110.115,110.115,0,0,1,17.738-1.559c0-.836,0-1.622-.005-2.406a.393.393,0,0,0-.121-.277A5.755,5.755,0,0,1,366.446,611.171Zm10.615-.02a5.753,5.753,0,0,1-2,2.841.394.394,0,0,0-.146.264c-.011.8-.007,1.6-.007,2.44a111.118,111.118,0,0,1,17.75,1.553,17.908,17.908,0,0,0,1.25-7.1Zm-10.376-4.07c-.248,0-.508,0-.768,0a85.915,85.915,0,0,1-10.657-.865c-1.13-.162-2.253-.37-3.382-.536-.168-.025-.475.012-.512.1a13.422,13.422,0,0,0-.936,3.747h15.684Zm26.481,2.445c-.307-1.17-.616-2.281-.885-3.4-.109-.455-.33-.522-.757-.443a85.246,85.246,0,0,1-13.165,1.377c-.522.014-1.044,0-1.551,0l.577,2.466Zm-21.438,3.99a3.961,3.961,0,1,0-3.94-3.972A3.985,3.985,0,0,0,371.728,613.516Zm-1.542,4.394c.507-.464.871-.96,1.563-.966s1.061.529,1.559.936v-2.872h-3.122Z" transform="translate(0 -224.346)" fill="#f15a4f" stroke="#f15a4f" stroke-width="1"/>
    <path id="Path_10451" data-name="Path 10451" d="M525.547,632.028a2.372,2.372,0,1,1-2.333-2.383A2.387,2.387,0,0,1,525.547,632.028Zm-2.357.77a.783.783,0,0,0,.768-.81.781.781,0,0,0-1.561.026A.781.781,0,0,0,523.19,632.8Z" transform="translate(-151.428 -246.806)" fill="#f15a4f" stroke="#f15a4f" stroke-width="1"/>
  </g>
</svg>
