<svg xmlns="http://www.w3.org/2000/svg" width="99.909" height="91.168" viewBox="0 0 99.909 91.168">
  <g id="Group_8393" data-name="Group 8393" transform="translate(-372.563 -382.13)">
    <path id="Path_10473" data-name="Path 10473" d="M467.306,407.374c-2.446,1.917-4.67,3.657-6.891,5.4q-11.953,9.388-23.906,18.777c-3.906,3.063-7.384,3.039-11.271-.021q-10.787-8.491-21.594-16.957c-.631-.493-1.356-.867-2.257-1.435a39.638,39.638,0,0,0-3.646,2.157c-2.184,1.559-2.158,3.889-1.765,6.215a7.2,7.2,0,0,0,.905,2.31c3.327,5.789,6.7,11.55,10.033,17.339a8.193,8.193,0,0,0,3.524,3.3,4.949,4.949,0,0,0,5.27-.14c1.093-.713,2.255-1.319,3.388-1.97a9.074,9.074,0,0,1,10.848.845,14.89,14.89,0,0,1,2.347,2.263c3.494,4.433,6.715,9.044,8.319,14.547a11.921,11.921,0,0,1,.4,3.649,5.118,5.118,0,0,1-2.731,4.424c-11.917,7.026-23.462,5.99-34.635-1.68a40.182,40.182,0,0,1-11.675-12.356c-4.759-7.848-9.442-15.754-13.8-23.826a39.679,39.679,0,0,1-4.947-22.668c.885-9.915,5.492-17.663,13.991-22.993.43-.27.895-.487,1.315-.77,2.936-1.979,5.648-1.085,7.8.713a23.521,23.521,0,0,1,5.47,7q1.738,3.2,3.3,6.5c.312.656.739.669,1.3.669q9.428-.009,18.856,0,19.619,0,39.239-.009a7.9,7.9,0,0,1,5.209,1.548,5.579,5.579,0,0,1,2.271,4.5q.008,21.633-.008,43.265c-.007,3.488-2.966,6.1-6.864,6.113-7.048.027-14.1.008-21.145.008-.145,0-.291,0-.436-.008a2.358,2.358,0,0,1-2.312-2.291,2.3,2.3,0,0,1,2.219-2.361,11.752,11.752,0,0,1,1.2-.032q9.809,0,19.619,0a10.118,10.118,0,0,0,1.521-.074,1.6,1.6,0,0,0,1.545-1.765c-.005-.254,0-.509,0-.763V407.374Zm-45.437,60.719a24.655,24.655,0,0,0,11.836-2.8c3.189-1.734,3.282-2.051,1.928-5.5a43.963,43.963,0,0,0-6.142-10.359,17.553,17.553,0,0,0-2.654-2.718,4.054,4.054,0,0,0-5.3-.384c-1.151.755-2.4,1.36-3.576,2.076a9.345,9.345,0,0,1-8.471.7A11.989,11.989,0,0,1,403,443.761c-3.433-5.936-6.9-11.851-10.323-17.795-3.358-5.836-1.643-12.232,4.141-15.608,1.128-.658,2.251-1.326,3.392-1.961a3.6,3.6,0,0,0,1.891-3.641,8.159,8.159,0,0,0-.3-1.93,39.721,39.721,0,0,0-7.324-13.607,8.14,8.14,0,0,0-1.909-1.6,1.4,1.4,0,0,0-1.173-.041,20.886,20.886,0,0,0-3.106,1.793,24.573,24.573,0,0,0-10.49,19.964,39.014,39.014,0,0,0,5.37,20.383c3.821,6.841,7.813,13.587,11.8,20.335a41.836,41.836,0,0,0,7.979,9.742C408.407,464.754,414.628,467.973,421.869,468.093Zm42.928-64.72h-58.09a9.259,9.259,0,0,1-1.489,6.537c.556.416,1.056.774,1.539,1.153q10.534,8.267,21.066,16.539c2.55,2,3.6,1.989,6.138,0q10.614-8.343,21.236-16.675C458.33,408.462,461.46,406,464.8,403.373Z" transform="translate(0 0)" fill="#f15a4f" stroke="#fff" stroke-width="1"/>
  </g>
</svg>
