<svg xmlns="http://www.w3.org/2000/svg" width="59.148" height="54.152" viewBox="0 0 59.148 54.152">
  <g id="Group_3541" data-name="Group 3541" transform="translate(-76 -198.848)">
    <g id="Group_3540" data-name="Group 3540" transform="translate(-269 -163.598)">
      <path id="Path_10162" data-name="Path 10162" d="M406.055,380.047q9.3,0,18.61,0c.818,0,1.259-.328,1.278-.931.02-.627-.434-.981-1.28-1H387.674c-.957,0-1.43.325-1.429.969s.467.958,1.431.958Zm-4.381,7.637H415.6c1.076,0,1.522-.288,1.512-.975-.01-.664-.457-.952-1.487-.952H387.716c-1,0-1.485.326-1.471.984.013.639.476.942,1.446.942Zm4.378-19.5q3.64,0,7.28,0a4.146,4.146,0,0,0,.69-.042.941.941,0,0,0-.024-1.862,3.644,3.644,0,0,0-.576-.024q-7.4,0-14.791,0a4.119,4.119,0,0,0-.576.023.94.94,0,0,0-.832.95.9.9,0,0,0,.8.914,4.525,4.525,0,0,0,.69.042Q402.383,368.182,406.052,368.18ZM395.362,395.2q3.872,0,7.743,0a3.377,3.377,0,0,0,.633-.03.94.94,0,0,0,0-1.851,4.037,4.037,0,0,0-.691-.038q-7.656,0-15.313,0a4.332,4.332,0,0,0-.69.038.872.872,0,0,0-.783.925.881.881,0,0,0,.784.926,3.711,3.711,0,0,0,.634.03Q391.519,395.2,395.362,395.2Zm-2.772-28.059c0,1.233-.013,2.466.005,3.7a.97.97,0,1,0,1.931.031q.027-3.7,0-7.4a.951.951,0,0,0-.894-1.022c-.621-.043-1.032.374-1.04,1.106C392.578,364.75,392.589,365.944,392.59,367.139Zm25.086,0c0,1.191,0,2.383,0,3.574a1.072,1.072,0,0,0,.583,1.1c.679.318,1.347-.18,1.364-1.036.019-1.018.005-2.037.005-3.055,0-1.383.01-2.767,0-4.15-.008-.731-.415-1.152-1.028-1.121-.557.029-.908.436-.915,1.116C417.667,364.755,417.676,365.946,417.675,367.138Z" transform="translate(-34.984 0)" fill="#fff"/>
      <path id="Path_10163" data-name="Path 10163" d="M345,388.056a1.264,1.264,0,0,1,1.21-.608c2.331.017,4.662.007,6.993.009a2.213,2.213,0,0,1,.46.03.9.9,0,0,1,.771.943.869.869,0,0,1-.74.9,3.6,3.6,0,0,1-.689.052q-2.688.006-5.375,0h-.649V428.84h31.94c-1.356-4.965-.446-9.439,3.223-13.1s8.118-4.533,13.1-3.191V389.386h-.666q-3.294,0-6.589,0a3.979,3.979,0,0,1-.69-.047.872.872,0,0,1-.771-.935.894.894,0,0,1,.8-.92,2.9,2.9,0,0,1,.518-.026q4.046,0,8.091,0c1.027,0,1.3.276,1.3,1.3q0,12.021-.008,24.043a.953.953,0,0,0,.524.949,12.386,12.386,0,0,1,6.377,11.586,12.252,12.252,0,0,1-7.436,11.227,12.759,12.759,0,0,1-16.576-5.216.946.946,0,0,0-.961-.52q-16.414.016-32.828.016a1.379,1.379,0,0,1-1.336-.592Zm46.265,47.831A10.99,10.99,0,1,0,380.259,424.9,11.025,11.025,0,0,0,391.265,435.887Z" transform="translate(0 -21.206)" fill="#fff"/>
      <path id="Path_10164" data-name="Path 10164" d="M406.055,467.626H387.676c-.964,0-1.43-.313-1.431-.958s.472-.969,1.429-.969h36.989c.846.015,1.3.368,1.28,1-.019.6-.46.93-1.278.931Q415.36,467.628,406.055,467.626Z" transform="translate(-34.984 -87.579)" fill="#fff"/>
      <path id="Path_10165" data-name="Path 10165" d="M401.674,517.936H387.691c-.97,0-1.432-.3-1.446-.942-.014-.658.47-.984,1.471-.984h27.907c1.03,0,1.477.288,1.487.952.01.687-.436.975-1.512.975Z" transform="translate(-34.984 -130.253)" fill="#fff"/>
      <path id="Path_10166" data-name="Path 10166" d="M467.383,389.428q-3.669,0-7.337,0a4.529,4.529,0,0,1-.69-.042.9.9,0,0,1-.8-.914.94.94,0,0,1,.832-.95,4.115,4.115,0,0,1,.576-.023q7.4,0,14.791,0a3.637,3.637,0,0,1,.576.024.941.941,0,0,1,.024,1.862,4.15,4.15,0,0,1-.69.042Q471.023,389.43,467.383,389.428Z" transform="translate(-96.316 -21.248)" fill="#fff"/>
      <path id="Path_10167" data-name="Path 10167" d="M395.435,567.47q-3.843,0-7.685,0a3.711,3.711,0,0,1-.634-.03.881.881,0,0,1-.784-.926.872.872,0,0,1,.782-.925,4.319,4.319,0,0,1,.691-.038q7.656,0,15.313,0a4.05,4.05,0,0,1,.691.038.94.94,0,0,1,0,1.851,3.377,3.377,0,0,1-.633.03Q399.307,567.472,395.435,567.47Z" transform="translate(-35.058 -172.273)" fill="#fff"/>
      <path id="Path_10168" data-name="Path 10168" d="M428.016,367.14c0-1.194-.011-2.389,0-3.583.009-.732.419-1.149,1.04-1.106a.951.951,0,0,1,.894,1.022q.026,3.7,0,7.4a.97.97,0,1,1-1.931-.031C428,369.606,428.016,368.373,428.016,367.14Z" transform="translate(-70.411 -0.001)" fill="#fff"/>
      <path id="Path_10169" data-name="Path 10169" d="M593.285,367.138c0-1.191-.009-2.383,0-3.574.007-.68.358-1.087.915-1.116.613-.032,1.02.389,1.028,1.121.015,1.383,0,2.767,0,4.15,0,1.018.014,2.037,0,3.055-.016.856-.685,1.354-1.364,1.036a1.072,1.072,0,0,1-.583-1.1C593.287,369.52,593.285,368.329,593.285,367.138Z" transform="translate(-210.594 0)" fill="#fff"/>
      <path id="Path_10170" data-name="Path 10170" d="M645.528,589.62c1.435,0,2.781,0,4.127,0a6.686,6.686,0,0,1,.75.023.948.948,0,0,1,.893.954.972.972,0,0,1-.931.926c-.1.009-.193.009-.289.009-1.772,0-3.545,0-5.317,0-.866,0-1.178-.315-1.18-1.193q-.009-3.525,0-7.051c0-.753.369-1.2.954-1.217.6-.014.988.456.991,1.236.005,1.869,0,3.737,0,5.606Z" transform="translate(-253.254 -186.287)" fill="#fff"/>
    </g>
  </g>
</svg>
