<svg xmlns="http://www.w3.org/2000/svg" width="113.5" height="113.5" viewBox="0 0 113.5 113.5">
  <g id="Group_3554" data-name="Group 3554" transform="translate(22.642 7.746)">
    <circle id="Ellipse_3" data-name="Ellipse 3" cx="47.179" cy="47.179" r="47.179" transform="translate(-22.642 84.092) rotate(-76.728)" fill="#da0019"/>
    <path id="Path_10171" data-name="Path 10171" d="M114.089,84.623A44.362,44.362,0,1,1,69.727,40.261,44.363,44.363,0,0,1,114.089,84.623Z" transform="translate(-35.619 -35.619)" fill="#fff"/>
    <path id="Path_10172" data-name="Path 10172" d="M145.068,72.995a5.106,5.106,0,1,1-5.106-5.106A5.106,5.106,0,0,1,145.068,72.995Z" transform="translate(-116.856 -56.117)" fill="#da0019"/>
    <path id="Path_10173" data-name="Path 10173" d="M225.976,117.341a3.9,3.9,0,1,1-1.507-5.3A3.9,3.9,0,0,1,225.976,117.341Z" transform="translate(-179.047 -88.51)" fill="#e23734"/>
    <path id="Path_10174" data-name="Path 10174" d="M105.184,105.069s11.267,9.858,26.23,0c0,0-10.387,13.555-12.675,42.073C118.739,147.142,115.218,117.744,105.184,105.069Z" transform="translate(-94.841 -83.703)" fill="#da0019"/>
    <path id="Path_10175" data-name="Path 10175" d="M175.94,120.812s3.849,10.755,17.484,9.74c0,0-11.957,5.178-24.072,23.336C169.352,153.888,177.922,132.986,175.94,120.812Z" transform="translate(-142.45 -95.384)" fill="#e23734"/>
    <g id="Group_3544" data-name="Group 3544" transform="translate(12.758 39.986)">
      <g id="Group_3543" data-name="Group 3543" transform="translate(0 0)">
        <path id="Path_10176" data-name="Path 10176" d="M121.3,185.607h-2.966l-.412,1.556h-2.667l3.178-9.424h2.85l3.177,9.424h-2.736Zm-.542-2.038-.934-3.388-.923,3.388Z" transform="translate(-115.069 -177.607)" fill="#fff"/>
        <path id="Path_10177" data-name="Path 10177" d="M124.113,186.915h-3.021l-.423-1.555h-2.764l-.412,1.555h-2.953l3.267-9.688h3.04Zm-2.819-.264h2.451l-3.088-9.16H118l-3.089,9.16h2.382l.412-1.556h3.169Zm-.893-3.329h-2.2l1.1-4.019Zm-1.857-.264h1.511L119.3,180.3Z" transform="translate(-114.541 -177.227)" fill="#da0019"/>
      </g>
    </g>
    <g id="Group_3546" data-name="Group 3546" transform="translate(18.485 58.162)">
      <g id="Group_3545" data-name="Group 3545" transform="translate(0 0)">
        <path id="Path_10178" data-name="Path 10178" d="M137.247,248.176h3.829l1.477,5.734,1.466-5.734h3.827V257.6h-2.385v-7.187l-1.838,7.187h-2.159l-1.834-7.187V257.6h-2.385Z" transform="translate(-137.115 -248.044)" fill="#fff"/>
        <path id="Path_10179" data-name="Path 10179" d="M147.6,257.353H144.95v-6.269l-1.6,6.269h-2.364l-1.6-6.267v6.267h-2.649v-9.688H140.8L142.173,253l1.364-5.335H147.6Zm-2.385-.264h2.121v-9.16h-3.593l-1.568,6.133-1.58-6.133H137v9.16h2.121v-8.106l2.069,8.106h1.953l2.072-8.1Z" transform="translate(-136.735 -247.665)" fill="#da0019"/>
      </g>
    </g>
    <g id="Group_3548" data-name="Group 3548" transform="translate(30.793 60.737)">
      <g id="Group_3547" data-name="Group 3547">
        <path id="Path_10180" data-name="Path 10180" d="M187.137,260.008l-2.5-.264a2.815,2.815,0,0,1,.408-1.031,2.256,2.256,0,0,1,.768-.653,3.236,3.236,0,0,1,.99-.308,7.989,7.989,0,0,1,1.363-.109,10.833,10.833,0,0,1,1.89.132,2.426,2.426,0,0,1,1.189.549,1.924,1.924,0,0,1,.527.82,2.953,2.953,0,0,1,.193,1.012v3.014a3.635,3.635,0,0,0,.061.756,3.381,3.381,0,0,0,.267.7h-2.455a2.493,2.493,0,0,1-.193-.4,2.981,2.981,0,0,1-.09-.434,3.39,3.39,0,0,1-1.022.707,4.259,4.259,0,0,1-1.613.283,2.7,2.7,0,0,1-1.855-.566,1.8,1.8,0,0,1-.633-1.395,1.826,1.826,0,0,1,.456-1.279,3.085,3.085,0,0,1,1.684-.745q1.472-.3,1.909-.415a9.013,9.013,0,0,0,.926-.312.922.922,0,0,0-.2-.675,1,1,0,0,0-.7-.192,1.818,1.818,0,0,0-.964.205A1.13,1.13,0,0,0,187.137,260.008Zm2.269,1.376q-.54.193-1.125.341a2.594,2.594,0,0,0-1.009.418.669.669,0,0,0,0,.987.912.912,0,0,0,.634.2,1.631,1.631,0,0,0,.813-.212,1.286,1.286,0,0,0,.533-.517,1.733,1.733,0,0,0,.158-.794Z" transform="translate(-184.431 -257.642)" fill="#da0019"/>
        <path id="Path_10181" data-name="Path 10181" d="M219.7,257.8h2.436v1.112a3.628,3.628,0,0,1,1.105-.974,2.91,2.91,0,0,1,1.363-.293,2.234,2.234,0,0,1,1.7.646,2.812,2.812,0,0,1,.613,2v4.339h-2.629v-3.754a1.367,1.367,0,0,0-.238-.909.85.85,0,0,0-.669-.267.951.951,0,0,0-.772.36,2.1,2.1,0,0,0-.3,1.292v3.279H219.7Z" transform="translate(-210.602 -257.642)" fill="#da0019"/>
        <path id="Path_10182" data-name="Path 10182" d="M255.194,260.008l-2.5-.264a2.8,2.8,0,0,1,.408-1.031,2.252,2.252,0,0,1,.768-.653,3.232,3.232,0,0,1,.99-.308,7.991,7.991,0,0,1,1.363-.109,10.842,10.842,0,0,1,1.89.132,2.425,2.425,0,0,1,1.189.549,1.927,1.927,0,0,1,.528.82,2.957,2.957,0,0,1,.192,1.012v3.014a3.653,3.653,0,0,0,.061.756,3.415,3.415,0,0,0,.267.7h-2.455a2.5,2.5,0,0,1-.193-.4,2.99,2.99,0,0,1-.09-.434,3.391,3.391,0,0,1-1.022.707,4.262,4.262,0,0,1-1.614.283,2.7,2.7,0,0,1-1.854-.566,1.8,1.8,0,0,1-.633-1.395,1.827,1.827,0,0,1,.456-1.279,3.087,3.087,0,0,1,1.684-.745q1.472-.3,1.909-.415a9.051,9.051,0,0,0,.926-.312.922.922,0,0,0-.2-.675,1,1,0,0,0-.7-.192,1.821,1.821,0,0,0-.965.205A1.133,1.133,0,0,0,255.194,260.008Zm2.269,1.376q-.54.193-1.125.341a2.6,2.6,0,0,0-1.009.418.669.669,0,0,0,0,.987.91.91,0,0,0,.633.2,1.631,1.631,0,0,0,.813-.212,1.284,1.284,0,0,0,.533-.517,1.733,1.733,0,0,0,.158-.794Z" transform="translate(-234.926 -257.642)" fill="#da0019"/>
        <path id="Path_10183" data-name="Path 10183" d="M287.859,257.8h2.449v1.119a2.66,2.66,0,0,1,.729-1,1.54,1.54,0,0,1,.929-.273,2.768,2.768,0,0,1,1.267.36l-.81,1.864a2.062,2.062,0,0,0-.733-.193.9.9,0,0,0-.8.424,4.311,4.311,0,0,0-.4,2.238v2.288h-2.629Z" transform="translate(-261.17 -257.642)" fill="#da0019"/>
        <path id="Path_10184" data-name="Path 10184" d="M311.865,260.008l-2.5-.264a2.8,2.8,0,0,1,.408-1.031,2.252,2.252,0,0,1,.768-.653,3.234,3.234,0,0,1,.99-.308,7.985,7.985,0,0,1,1.362-.109,10.841,10.841,0,0,1,1.89.132,2.426,2.426,0,0,1,1.189.549,1.93,1.93,0,0,1,.527.82,2.957,2.957,0,0,1,.192,1.012v3.014a3.631,3.631,0,0,0,.061.756,3.4,3.4,0,0,0,.267.7h-2.455a2.511,2.511,0,0,1-.193-.4,2.99,2.99,0,0,1-.09-.434,3.391,3.391,0,0,1-1.022.707,4.26,4.26,0,0,1-1.614.283,2.7,2.7,0,0,1-1.854-.566,1.8,1.8,0,0,1-.633-1.395,1.826,1.826,0,0,1,.456-1.279,3.085,3.085,0,0,1,1.684-.745q1.472-.3,1.909-.415a9,9,0,0,0,.926-.312.92.92,0,0,0-.2-.675,1,1,0,0,0-.7-.192,1.82,1.82,0,0,0-.964.205A1.132,1.132,0,0,0,311.865,260.008Zm2.269,1.376q-.54.193-1.125.341a2.6,2.6,0,0,0-1.009.418.669.669,0,0,0,0,.987.909.909,0,0,0,.633.2,1.632,1.632,0,0,0,.813-.212,1.284,1.284,0,0,0,.533-.517,1.73,1.73,0,0,0,.158-.794Z" transform="translate(-276.973 -257.642)" fill="#da0019"/>
      </g>
    </g>
    <g id="Group_3550" data-name="Group 3550" transform="translate(-1.036 58.075)">
      <g id="Group_3549" data-name="Group 3549">
        <path id="Path_10185" data-name="Path 10185" d="M67.822,255.193H64.517l-.459,1.556H61.084l3.542-9.424H67.8l3.541,9.424H68.294Zm-.6-2.038-1.04-3.388-1.03,3.388Z" transform="translate(-61.084 -247.325)" fill="#da0019"/>
        <path id="Path_10186" data-name="Path 10186" d="M104.1,247.325h2.623v9.424H104.1Z" transform="translate(-93.004 -247.325)" fill="#da0019"/>
      </g>
    </g>
    <g id="Group_3551" data-name="Group 3551" transform="translate(25.885 39.825)">
      <path id="Path_10187" data-name="Path 10187" d="M165.965,183.583l2.77-.173a2.115,2.115,0,0,0,.366,1.029,1.54,1.54,0,0,0,1.286.572,1.423,1.423,0,0,0,.961-.292.876.876,0,0,0,.338-.678.864.864,0,0,0-.321-.655,3.727,3.727,0,0,0-1.492-.547,6.331,6.331,0,0,1-2.732-1.144,2.3,2.3,0,0,1-.823-1.819,2.468,2.468,0,0,1,.421-1.372,2.792,2.792,0,0,1,1.266-1.016,5.918,5.918,0,0,1,2.318-.37,4.742,4.742,0,0,1,2.754.672,2.9,2.9,0,0,1,1.128,2.137l-2.745.161a1.282,1.282,0,0,0-1.427-1.215,1.164,1.164,0,0,0-.765.215.659.659,0,0,0-.257.524.525.525,0,0,0,.212.405,2.386,2.386,0,0,0,.977.347,12.25,12.25,0,0,1,2.735.832,2.874,2.874,0,0,1,1.2,1.044,2.652,2.652,0,0,1,.376,1.4,2.988,2.988,0,0,1-.5,1.671,3.136,3.136,0,0,1-1.4,1.16,5.659,5.659,0,0,1-2.269.4,4.675,4.675,0,0,1-3.33-.926A3.648,3.648,0,0,1,165.965,183.583Z" transform="translate(-165.822 -176.984)" fill="#fff"/>
      <path id="Path_10188" data-name="Path 10188" d="M169.931,186.614a4.812,4.812,0,0,1-3.423-.964,3.8,3.8,0,0,1-1.086-2.435l-.012-.135,3.028-.189.016.122a1.994,1.994,0,0,0,.339.965,1.4,1.4,0,0,0,1.182.521,1.307,1.307,0,0,0,.875-.26.745.745,0,0,0,.292-.578.733.733,0,0,0-.278-.557,3.461,3.461,0,0,0-1.431-.516,6.49,6.49,0,0,1-2.79-1.173,2.439,2.439,0,0,1-.868-1.919,2.61,2.61,0,0,1,.443-1.445,2.936,2.936,0,0,1,1.324-1.064,6.071,6.071,0,0,1,2.37-.38,4.886,4.886,0,0,1,2.831.7,3.036,3.036,0,0,1,1.183,2.229l.017.14-3,.176-.02-.116a1.153,1.153,0,0,0-1.3-1.105,1.047,1.047,0,0,0-.68.185.528.528,0,0,0-.21.422.4.4,0,0,0,.166.3,2.182,2.182,0,0,0,.918.318,12.422,12.422,0,0,1,2.768.844,3.011,3.011,0,0,1,1.255,1.094,2.79,2.79,0,0,1,.4,1.463,3.13,3.13,0,0,1-.523,1.743,3.281,3.281,0,0,1-1.458,1.209A5.816,5.816,0,0,1,169.931,186.614Zm-4.233-3.287a3.5,3.5,0,0,0,1,2.136,4.579,4.579,0,0,0,3.236.887,5.561,5.561,0,0,0,2.216-.384,3.023,3.023,0,0,0,1.344-1.112,2.869,2.869,0,0,0,.48-1.6,2.531,2.531,0,0,0-.357-1.327,2.759,2.759,0,0,0-1.149-.995,12.193,12.193,0,0,0-2.7-.821,2.407,2.407,0,0,1-1.038-.379.65.65,0,0,1-.255-.5.788.788,0,0,1,.3-.625,1.3,1.3,0,0,1,.849-.246,1.61,1.61,0,0,1,1.052.319,1.536,1.536,0,0,1,.483.889l2.487-.146a2.719,2.719,0,0,0-1.054-1.906,4.637,4.637,0,0,0-2.678-.647,5.823,5.823,0,0,0-2.265.358,2.678,2.678,0,0,0-1.208.966,2.352,2.352,0,0,0-.4,1.3,2.157,2.157,0,0,0,.777,1.72,6.241,6.241,0,0,0,2.674,1.115,3.778,3.778,0,0,1,1.551.577,1,1,0,0,1,.365.754,1.006,1.006,0,0,1-.383.778,1.556,1.556,0,0,1-1.047.325,1.672,1.672,0,0,1-1.389-.622,2.128,2.128,0,0,1-.375-.971Z" transform="translate(-165.41 -176.605)" fill="#da0019"/>
    </g>
    <path id="Path_10189" data-name="Path 10189" d="M206.855,182.844l2.552.771a4.707,4.707,0,0,1-.81,1.794,3.518,3.518,0,0,1-1.373,1.086,5.126,5.126,0,0,1-2.086.367,6.057,6.057,0,0,1-2.51-.446,3.981,3.981,0,0,1-1.681-1.57,5.329,5.329,0,0,1-.707-2.879,4.891,4.891,0,0,1,1.244-3.594A4.731,4.731,0,0,1,205,177.116a4.782,4.782,0,0,1,2.8.72,4.233,4.233,0,0,1,1.514,2.211l-2.571.572a2.217,2.217,0,0,0-.283-.63,1.678,1.678,0,0,0-.6-.514,1.838,1.838,0,0,0-2.308.616,3.382,3.382,0,0,0-.4,1.856,3.526,3.526,0,0,0,.476,2.148,1.877,1.877,0,0,0,2.6.112A2.9,2.9,0,0,0,206.855,182.844Z" transform="translate(-165.368 -137.159)" fill="#fff"/>
    <path id="Path_10190" data-name="Path 10190" d="M204.759,186.614a6.207,6.207,0,0,1-2.565-.459,4.12,4.12,0,0,1-1.738-1.62,5.479,5.479,0,0,1-.727-2.949,5.038,5.038,0,0,1,1.282-3.686,4.879,4.879,0,0,1,3.613-1.3,4.93,4.93,0,0,1,2.876.744,4.375,4.375,0,0,1,1.563,2.278l.046.139-2.833.63-.036-.116a2.106,2.106,0,0,0-.263-.591,1.558,1.558,0,0,0-.551-.475,1.6,1.6,0,0,0-.731-.166,1.572,1.572,0,0,0-1.407.737,3.279,3.279,0,0,0-.377,1.783,3.433,3.433,0,0,0,.446,2.064,1.747,1.747,0,0,0,2.4.107,2.793,2.793,0,0,0,.589-1.3l.03-.14,2.808.849-.029.121a4.855,4.855,0,0,1-.833,1.844,3.671,3.671,0,0,1-1.424,1.126A5.275,5.275,0,0,1,204.759,186.614Zm-.135-9.745a4.627,4.627,0,0,0-3.425,1.217,4.786,4.786,0,0,0-1.206,3.5,5.225,5.225,0,0,0,.687,2.808,3.872,3.872,0,0,0,1.624,1.521,5.962,5.962,0,0,0,2.455.435,5.025,5.025,0,0,0,2.032-.355,3.407,3.407,0,0,0,1.322-1.046,4.523,4.523,0,0,0,.756-1.623l-2.3-.694a2.918,2.918,0,0,1-.62,1.284,2.007,2.007,0,0,1-2.8-.117,3.6,3.6,0,0,1-.506-2.231,3.465,3.465,0,0,1,.421-1.929,1.97,1.97,0,0,1,2.477-.66,1.816,1.816,0,0,1,.645.554,2.115,2.115,0,0,1,.264.553l2.311-.514a4.043,4.043,0,0,0-1.418-2.007A4.675,4.675,0,0,0,204.624,176.869Z" transform="translate(-164.989 -136.78)" fill="#da0019"/>
    <g id="Group_3553" data-name="Group 3553" transform="translate(6.038 71.039)">
      <g id="Group_3552" data-name="Group 3552" transform="translate(0 0)">
        <path id="Path_10191" data-name="Path 10191" d="M88.5,300.721l.566-.05a1.252,1.252,0,0,0,.187.559,1.023,1.023,0,0,0,.456.353,1.728,1.728,0,0,0,.7.135,1.668,1.668,0,0,0,.607-.1.84.84,0,0,0,.391-.28.649.649,0,0,0,.128-.388.592.592,0,0,0-.124-.373.916.916,0,0,0-.408-.268,8.014,8.014,0,0,0-.808-.221,4.145,4.145,0,0,1-.876-.283,1.226,1.226,0,0,1-.484-.422,1.034,1.034,0,0,1-.159-.565,1.153,1.153,0,0,1,.2-.642,1.21,1.21,0,0,1,.569-.453,2.159,2.159,0,0,1,.832-.155,2.271,2.271,0,0,1,.889.163,1.282,1.282,0,0,1,.593.478,1.375,1.375,0,0,1,.223.715l-.575.043a.929.929,0,0,0-.314-.65,1.222,1.222,0,0,0-.791-.22,1.268,1.268,0,0,0-.794.2.6.6,0,0,0-.249.481.516.516,0,0,0,.176.4,2.4,2.4,0,0,0,.905.323,5.963,5.963,0,0,1,1,.289,1.377,1.377,0,0,1,.585.463,1.127,1.127,0,0,1,.189.645,1.234,1.234,0,0,1-.207.682,1.364,1.364,0,0,1-.6.5,2.074,2.074,0,0,1-.874.178,2.61,2.61,0,0,1-1.032-.179,1.443,1.443,0,0,1-.653-.54A1.529,1.529,0,0,1,88.5,300.721Z" transform="translate(-88.5 -297.565)" fill="#da0019"/>
        <path id="Path_10192" data-name="Path 10192" d="M105.4,307.042V302.5h.508v.427a1.247,1.247,0,0,1,.405-.376,1.112,1.112,0,0,1,.548-.125,1.3,1.3,0,0,1,.743.216,1.328,1.328,0,0,1,.486.611,2.231,2.231,0,0,1,.164.865,2.2,2.2,0,0,1-.181.908,1.365,1.365,0,0,1-.526.619,1.349,1.349,0,0,1-.726.215,1.052,1.052,0,0,1-.5-.117,1.139,1.139,0,0,1-.363-.3v1.6Zm.5-2.884a1.43,1.43,0,0,0,.257.938.788.788,0,0,0,.622.3.806.806,0,0,0,.636-.314,1.492,1.492,0,0,0,.265-.973,1.452,1.452,0,0,0-.259-.941.777.777,0,0,0-.617-.312.8.8,0,0,0-.63.333A1.487,1.487,0,0,0,105.9,304.158Z" transform="translate(-101.036 -301.169)" fill="#da0019"/>
        <path id="Path_10193" data-name="Path 10193" d="M120.769,304.724l.575.071a1.405,1.405,0,0,1-.5.783,1.71,1.71,0,0,1-2.084-.166,1.736,1.736,0,0,1-.422-1.246,1.816,1.816,0,0,1,.427-1.287,1.445,1.445,0,0,1,1.108-.458,1.4,1.4,0,0,1,1.077.448,1.784,1.784,0,0,1,.418,1.263q0,.05,0,.149H118.91a1.263,1.263,0,0,0,.306.829.912.912,0,0,0,.687.288.853.853,0,0,0,.523-.161A1.07,1.07,0,0,0,120.769,304.724Zm-1.829-.9h1.835a1.113,1.113,0,0,0-.211-.622.854.854,0,0,0-.69-.322.885.885,0,0,0-.645.257A1.016,1.016,0,0,0,118.941,303.824Z" transform="translate(-110.635 -301.169)" fill="#da0019"/>
        <path id="Path_10194" data-name="Path 10194" d="M134.368,304.579l.548.071a1.42,1.42,0,0,1-.459.886,1.338,1.338,0,0,1-.908.32,1.411,1.411,0,0,1-1.085-.441,1.789,1.789,0,0,1-.41-1.264,2.29,2.29,0,0,1,.176-.931,1.231,1.231,0,0,1,.537-.6,1.594,1.594,0,0,1,.784-.2,1.362,1.362,0,0,1,.876.271,1.24,1.24,0,0,1,.436.769l-.541.084a.9.9,0,0,0-.274-.5.709.709,0,0,0-.475-.167.864.864,0,0,0-.684.3,1.431,1.431,0,0,0-.263.954,1.481,1.481,0,0,0,.254.963.826.826,0,0,0,.662.3.781.781,0,0,0,.548-.2A1,1,0,0,0,134.368,304.579Z" transform="translate(-120.814 -301.169)" fill="#da0019"/>
        <path id="Path_10195" data-name="Path 10195" d="M145,298.5v-.641h.557v.641Zm0,3.9v-3.286h.557V302.4Z" transform="translate(-130.423 -297.787)" fill="#da0019"/>
        <path id="Path_10196" data-name="Path 10196" d="M152.05,305.377a2.073,2.073,0,0,1-.6.371,1.725,1.725,0,0,1-.614.108,1.194,1.194,0,0,1-.832-.264.873.873,0,0,1-.291-.676.9.9,0,0,1,.11-.441.911.911,0,0,1,.288-.32,1.346,1.346,0,0,1,.4-.182,3.915,3.915,0,0,1,.495-.084A5.112,5.112,0,0,0,152,303.7q0-.115,0-.146a.614.614,0,0,0-.158-.479.931.931,0,0,0-.634-.189.984.984,0,0,0-.58.138.843.843,0,0,0-.277.487l-.545-.074a1.351,1.351,0,0,1,.245-.565,1.073,1.073,0,0,1,.492-.331,2.192,2.192,0,0,1,.746-.116,1.973,1.973,0,0,1,.684.1.9.9,0,0,1,.387.249.88.88,0,0,1,.173.379,3.138,3.138,0,0,1,.028.514v.743a7.883,7.883,0,0,0,.036.983,1.241,1.241,0,0,0,.141.395h-.582A1.188,1.188,0,0,1,152.05,305.377ZM152,304.133a4.089,4.089,0,0,1-.91.211,2.1,2.1,0,0,0-.486.111.485.485,0,0,0-.22.181.492.492,0,0,0,.091.636.725.725,0,0,0,.494.149,1.148,1.148,0,0,0,.572-.141.867.867,0,0,0,.368-.385,1.345,1.345,0,0,0,.09-.557Z" transform="translate(-133.92 -301.169)" fill="#da0019"/>
        <path id="Path_10197" data-name="Path 10197" d="M164.058,302.4v-4.537h.557V302.4Z" transform="translate(-144.56 -297.787)" fill="#da0019"/>
        <path id="Path_10198" data-name="Path 10198" d="M169.574,298.5v-.641h.557v.641Zm0,3.9v-3.286h.557V302.4Z" transform="translate(-148.653 -297.787)" fill="#da0019"/>
        <path id="Path_10199" data-name="Path 10199" d="M173.879,306v-.452l2.092-2.4q-.356.019-.628.019H174v-.452h2.686v.368l-1.779,2.086-.344.381q.375-.028.7-.028h1.519V306Z" transform="translate(-151.847 -301.382)" fill="#da0019"/>
        <path id="Path_10200" data-name="Path 10200" d="M189.014,304.724l.575.071a1.4,1.4,0,0,1-.5.783,1.71,1.71,0,0,1-2.084-.166,1.736,1.736,0,0,1-.422-1.246,1.816,1.816,0,0,1,.427-1.287,1.445,1.445,0,0,1,1.108-.458,1.406,1.406,0,0,1,1.077.448,1.783,1.783,0,0,1,.418,1.263c0,.033,0,.083,0,.149h-2.451a1.265,1.265,0,0,0,.306.829.913.913,0,0,0,.687.288.852.852,0,0,0,.523-.161A1.068,1.068,0,0,0,189.014,304.724Zm-1.829-.9h1.835a1.115,1.115,0,0,0-.21-.622.854.854,0,0,0-.69-.322.886.886,0,0,0-.645.257A1.018,1.018,0,0,0,187.185,303.824Z" transform="translate(-161.27 -301.169)" fill="#da0019"/>
        <path id="Path_10201" data-name="Path 10201" d="M202.51,302.4v-.415a1.022,1.022,0,0,1-.919.489,1.288,1.288,0,0,1-.723-.216,1.424,1.424,0,0,1-.51-.605,2.089,2.089,0,0,1-.181-.893,2.336,2.336,0,0,1,.164-.893,1.294,1.294,0,0,1,.492-.614,1.315,1.315,0,0,1,.734-.213,1.1,1.1,0,0,1,.907.452v-1.628h.554V302.4Zm-1.761-1.64a1.427,1.427,0,0,0,.266.944.8.8,0,0,0,.628.313.788.788,0,0,0,.621-.3,1.377,1.377,0,0,0,.255-.911,1.546,1.546,0,0,0-.26-.99.8.8,0,0,0-.641-.316.772.772,0,0,0-.62.3A1.5,1.5,0,0,0,200.75,300.761Z" transform="translate(-171.359 -297.787)" fill="#da0019"/>
        <path id="Path_10202" data-name="Path 10202" d="M221.642,302.4v-4.537h.9l1.074,3.212q.149.449.217.672.077-.248.241-.727l1.086-3.156h.808V302.4h-.579v-3.8l-1.318,3.8h-.541l-1.312-3.862V302.4Z" transform="translate(-187.285 -297.787)" fill="#da0019"/>
        <path id="Path_10203" data-name="Path 10203" d="M243.61,304.724l.575.071a1.4,1.4,0,0,1-.5.783,1.71,1.71,0,0,1-2.084-.166,1.736,1.736,0,0,1-.422-1.246,1.816,1.816,0,0,1,.427-1.287,1.445,1.445,0,0,1,1.108-.458,1.4,1.4,0,0,1,1.077.448,1.782,1.782,0,0,1,.418,1.263c0,.033,0,.083,0,.149h-2.451a1.265,1.265,0,0,0,.306.829.912.912,0,0,0,.687.288.853.853,0,0,0,.523-.161A1.07,1.07,0,0,0,243.61,304.724Zm-1.829-.9h1.835a1.113,1.113,0,0,0-.211-.622.853.853,0,0,0-.69-.322.885.885,0,0,0-.645.257A1.017,1.017,0,0,0,241.782,303.824Z" transform="translate(-201.778 -301.169)" fill="#da0019"/>
        <path id="Path_10204" data-name="Path 10204" d="M257.107,302.4v-.415a1.022,1.022,0,0,1-.919.489,1.288,1.288,0,0,1-.723-.216,1.425,1.425,0,0,1-.511-.605,2.093,2.093,0,0,1-.181-.893,2.342,2.342,0,0,1,.164-.893,1.3,1.3,0,0,1,.492-.614,1.315,1.315,0,0,1,.733-.213,1.1,1.1,0,0,1,.907.452v-1.628h.554V302.4Zm-1.761-1.64a1.427,1.427,0,0,0,.266.944.8.8,0,0,0,.628.313.788.788,0,0,0,.621-.3,1.377,1.377,0,0,0,.255-.911,1.546,1.546,0,0,0-.26-.99.8.8,0,0,0-.641-.316.771.771,0,0,0-.62.3A1.5,1.5,0,0,0,255.347,300.761Z" transform="translate(-211.867 -297.787)" fill="#da0019"/>
        <path id="Path_10205" data-name="Path 10205" d="M269.224,298.5v-.641h.557v.641Zm0,3.9v-3.286h.557V302.4Z" transform="translate(-222.589 -297.787)" fill="#da0019"/>
        <path id="Path_10206" data-name="Path 10206" d="M276.324,304.579l.548.071a1.418,1.418,0,0,1-.46.886,1.337,1.337,0,0,1-.908.32,1.411,1.411,0,0,1-1.085-.441,1.789,1.789,0,0,1-.41-1.264,2.29,2.29,0,0,1,.176-.931,1.23,1.23,0,0,1,.537-.6,1.6,1.6,0,0,1,.785-.2,1.362,1.362,0,0,1,.875.271,1.24,1.24,0,0,1,.436.769l-.541.084a.9.9,0,0,0-.274-.5.709.709,0,0,0-.475-.167.863.863,0,0,0-.684.3,1.431,1.431,0,0,0-.263.954,1.481,1.481,0,0,0,.254.963.825.825,0,0,0,.662.3.779.779,0,0,0,.548-.2A1,1,0,0,0,276.324,304.579Z" transform="translate(-226.139 -301.169)" fill="#da0019"/>
        <path id="Path_10207" data-name="Path 10207" d="M288.549,305.377a2.077,2.077,0,0,1-.6.371,1.725,1.725,0,0,1-.614.108,1.194,1.194,0,0,1-.832-.264.873.873,0,0,1-.291-.676.9.9,0,0,1,.11-.441.913.913,0,0,1,.288-.32,1.349,1.349,0,0,1,.4-.182,3.929,3.929,0,0,1,.5-.084,5.105,5.105,0,0,0,.993-.192q0-.115,0-.146a.614.614,0,0,0-.158-.479.932.932,0,0,0-.634-.189.983.983,0,0,0-.58.138.841.841,0,0,0-.277.487l-.545-.074a1.354,1.354,0,0,1,.244-.565,1.074,1.074,0,0,1,.492-.331,2.195,2.195,0,0,1,.746-.116,1.972,1.972,0,0,1,.684.1.9.9,0,0,1,.387.249.877.877,0,0,1,.173.379,3.141,3.141,0,0,1,.028.514v.743a7.872,7.872,0,0,0,.036.983,1.239,1.239,0,0,0,.141.395h-.582A1.182,1.182,0,0,1,288.549,305.377Zm-.047-1.244a4.082,4.082,0,0,1-.91.211,2.091,2.091,0,0,0-.486.111.485.485,0,0,0-.22.181.492.492,0,0,0,.091.636.726.726,0,0,0,.494.149,1.148,1.148,0,0,0,.572-.141.868.868,0,0,0,.369-.385,1.35,1.35,0,0,0,.09-.557Z" transform="translate(-235.196 -301.169)" fill="#da0019"/>
        <path id="Path_10208" data-name="Path 10208" d="M300.559,302.4v-4.537h.557V302.4Z" transform="translate(-245.838 -297.787)" fill="#da0019"/>
        <path id="Path_10209" data-name="Path 10209" d="M134.348,330.058l.6.152a2.021,2.021,0,0,1-.679,1.128,1.871,1.871,0,0,1-1.2.388,2.156,2.156,0,0,1-1.193-.3,1.864,1.864,0,0,1-.7-.865,3.086,3.086,0,0,1-.24-1.216,2.671,2.671,0,0,1,.271-1.236,1.854,1.854,0,0,1,.771-.8,2.249,2.249,0,0,1,1.1-.274,1.859,1.859,0,0,1,1.145.347,1.8,1.8,0,0,1,.647.975l-.591.139a1.4,1.4,0,0,0-.458-.721,1.22,1.22,0,0,0-.755-.226,1.466,1.466,0,0,0-.874.251,1.321,1.321,0,0,0-.493.673,2.708,2.708,0,0,0-.142.871,2.767,2.767,0,0,0,.169,1.01,1.254,1.254,0,0,0,.524.645,1.47,1.47,0,0,0,.771.214,1.292,1.292,0,0,0,.854-.291A1.488,1.488,0,0,0,134.348,330.058Z" transform="translate(-119.987 -319.43)" fill="#da0019"/>
        <path id="Path_10210" data-name="Path 10210" d="M150.785,334.194l.576.071a1.406,1.406,0,0,1-.5.783,1.709,1.709,0,0,1-2.084-.165,1.734,1.734,0,0,1-.422-1.246,1.817,1.817,0,0,1,.427-1.287,1.446,1.446,0,0,1,1.108-.458,1.406,1.406,0,0,1,1.077.448,1.783,1.783,0,0,1,.418,1.263q0,.05,0,.149h-2.451a1.263,1.263,0,0,0,.306.829.912.912,0,0,0,.687.288.851.851,0,0,0,.523-.161A1.068,1.068,0,0,0,150.785,334.194Zm-1.829-.9h1.835a1.113,1.113,0,0,0-.21-.622.854.854,0,0,0-.69-.322.886.886,0,0,0-.645.257A1.018,1.018,0,0,0,148.956,333.294Z" transform="translate(-132.906 -323.034)" fill="#da0019"/>
        <path id="Path_10211" data-name="Path 10211" d="M162.727,335.252v-3.286h.5v.467a1.181,1.181,0,0,1,1.046-.541,1.375,1.375,0,0,1,.546.107.86.86,0,0,1,.373.28,1.076,1.076,0,0,1,.173.412,3.189,3.189,0,0,1,.031.542v2.021h-.557v-2a1.508,1.508,0,0,0-.065-.509.535.535,0,0,0-.231-.269.733.733,0,0,0-.388-.1.9.9,0,0,0-.614.226,1.113,1.113,0,0,0-.259.857v1.795Z" transform="translate(-143.573 -323.034)" fill="#da0019"/>
        <path id="Path_10212" data-name="Path 10212" d="M176.72,331.667l.08.492a2.064,2.064,0,0,1-.421.049.951.951,0,0,1-.47-.1.537.537,0,0,1-.235-.252,1.993,1.993,0,0,1-.068-.658v-1.891H175.2v-.433h.408v-.814l.554-.334v1.148h.56v.433h-.56v1.922a.969.969,0,0,0,.029.306.232.232,0,0,0,.1.108.369.369,0,0,0,.19.04A1.808,1.808,0,0,0,176.72,331.667Z" transform="translate(-152.826 -319.947)" fill="#da0019"/>
        <path id="Path_10213" data-name="Path 10213" d="M184.924,334.194l.575.071a1.405,1.405,0,0,1-.5.783,1.709,1.709,0,0,1-2.084-.165,1.736,1.736,0,0,1-.422-1.246,1.817,1.817,0,0,1,.427-1.287,1.446,1.446,0,0,1,1.108-.458,1.4,1.4,0,0,1,1.077.448,1.782,1.782,0,0,1,.418,1.263q0,.05,0,.149h-2.451a1.262,1.262,0,0,0,.306.829.912.912,0,0,0,.687.288.852.852,0,0,0,.523-.161A1.069,1.069,0,0,0,184.924,334.194Zm-1.829-.9h1.835a1.115,1.115,0,0,0-.21-.622.854.854,0,0,0-.69-.322.886.886,0,0,0-.645.257A1.016,1.016,0,0,0,183.1,333.294Z" transform="translate(-158.235 -323.034)" fill="#da0019"/>
        <path id="Path_10214" data-name="Path 10214" d="M196.844,335.252v-3.286h.5v.5A1.363,1.363,0,0,1,197.7,332a.618.618,0,0,1,.357-.111,1.085,1.085,0,0,1,.573.179l-.192.517a.8.8,0,0,0-.408-.121.531.531,0,0,0-.328.11.6.6,0,0,0-.207.3,2.168,2.168,0,0,0-.093.65v1.72Z" transform="translate(-168.886 -323.034)" fill="#da0019"/>
        <path id="Path_10215" data-name="Path 10215" d="M212.049,331.87v-4.536h.6v4h2.234v.535Z" transform="translate(-180.168 -319.652)" fill="#da0019"/>
        <path id="Path_10216" data-name="Path 10216" d="M226.138,343.09v-.634h.634v.634Z" transform="translate(-190.621 -330.872)" fill="#da0019"/>
        <path id="Path_10217" data-name="Path 10217" d="M232.529,331.87v-4.536h.6v4h2.234v.535Z" transform="translate(-195.363 -319.652)" fill="#da0019"/>
        <path id="Path_10218" data-name="Path 10218" d="M246.62,343.09v-.634h.634v.634Z" transform="translate(-205.818 -330.872)" fill="#da0019"/>
        <path id="Path_10219" data-name="Path 10219" d="M255.846,330.058l.6.152a2.021,2.021,0,0,1-.679,1.128,1.87,1.87,0,0,1-1.2.388,2.156,2.156,0,0,1-1.193-.3,1.864,1.864,0,0,1-.7-.865,3.09,3.09,0,0,1-.24-1.216,2.671,2.671,0,0,1,.271-1.236,1.854,1.854,0,0,1,.771-.8,2.249,2.249,0,0,1,1.1-.274,1.858,1.858,0,0,1,1.145.347,1.8,1.8,0,0,1,.647.975l-.591.139a1.4,1.4,0,0,0-.458-.721,1.22,1.22,0,0,0-.755-.226,1.466,1.466,0,0,0-.874.251,1.323,1.323,0,0,0-.493.673,2.709,2.709,0,0,0-.142.871,2.766,2.766,0,0,0,.169,1.01,1.255,1.255,0,0,0,.524.645,1.47,1.47,0,0,0,.771.214,1.292,1.292,0,0,0,.854-.291A1.49,1.49,0,0,0,255.846,330.058Z" transform="translate(-210.133 -319.43)" fill="#da0019"/>
      </g>
    </g>
  </g>
</svg>
