<svg xmlns="http://www.w3.org/2000/svg" width="16.778" height="21.319" viewBox="0 0 16.778 21.319">
  <g id="humidity_light" transform="translate(1 1.319)">
    <g id="Ellipse_69" data-name="Ellipse 69" fill="none">
      <path d="M14.778,12.214C14.778,15.962,11.47,19,7.389,19S0,15.962,0,12.214C0,6.356,7.389,0,7.389,0S14.778,6.356,14.778,12.214Z" stroke="none"/>
      <path d="M 7.388889312744141 19 C 11.46965885162354 19 14.7777795791626 15.9619312286377 14.7777795791626 12.21429061889648 C 14.7777795791626 6.355530738830566 7.388889312744141 9.5367431640625e-07 7.388889312744141 9.5367431640625e-07 C 7.388889312744141 9.5367431640625e-07 -6.872558628856495e-07 6.355530738830566 -6.872558628856495e-07 12.21429061889648 C -6.872558628856495e-07 15.9619312286377 3.308119297027588 19 7.388889312744141 19 M 7.388889312744141 20 C 2.76323938369751 20 -1.000000715255737 16.50735092163086 -1.000000715255737 12.21429061889648 C -1.000000715255737 5.968461036682129 6.420879364013672 -0.4864090383052826 6.736789226531982 -0.7581290602684021 L 7.388889312744141 -1.319029092788696 L 8.040988922119141 -0.7581290602684021 C 8.356899261474609 -0.4864090383052826 15.7777795791626 5.968461036682129 15.7777795791626 12.21429061889648 C 15.7777795791626 16.50735092163086 12.01453971862793 20 7.388889312744141 20 Z" stroke="none" fill="#707070"/>
    </g>
  </g>
</svg>
