<svg xmlns="http://www.w3.org/2000/svg" width="25.991" height="25.991" viewBox="0 0 25.991 25.991">
  <g id="Icon_ionic-ios-close-circle-outline" data-name="Icon ionic-ios-close-circle-outline" opacity="0.2">
    <path id="Path_9854" data-name="Path 9854" d="M22.076,20.664l-3.293-3.293,3.293-3.293a1,1,0,0,0-1.412-1.412l-3.293,3.293-3.293-3.293a1,1,0,0,0-1.412,1.412l3.293,3.293-3.293,3.293a.965.965,0,0,0,0,1.412.992.992,0,0,0,1.412,0l3.293-3.293,3.293,3.293a1,1,0,0,0,1.412,0A.992.992,0,0,0,22.076,20.664Z" transform="translate(-4.376 -4.375)"/>
    <path id="Path_9855" data-name="Path 9855" d="M16.371,5.124A11.242,11.242,0,1,1,8.417,8.417a11.172,11.172,0,0,1,7.954-3.293m0-1.749a13,13,0,1,0,13,13,12.994,12.994,0,0,0-13-13Z" transform="translate(-3.375 -3.375)"/>
  </g>
</svg>
