<svg xmlns="http://www.w3.org/2000/svg" width="77.098" height="77.254" viewBox="0 0 77.098 77.254">
  <g id="physical-therapy" transform="translate(-0.025 0.5)">
    <path id="Path_10309" data-name="Path 10309" d="M69.921,62.85H65.3v-21.4l2.046-4.673c.333-.761.123-.123.183-13.711a9.693,9.693,0,0,0-9.676-9.677h-.464a8.926,8.926,0,1,0-15.459-.008,9.764,9.764,0,0,0-7.327,2.842A9.618,9.618,0,0,0,31.779,23.1c.13,13.592-.078,12.934.251,13.685l3,6.856L16.7,57.195H2.76a2.234,2.234,0,1,0,0,4.468H9.524V71.786H2.759a2.234,2.234,0,1,0,0,4.468H69.921a6.7,6.7,0,0,0,0-13.4ZM49.666,4.468a4.461,4.461,0,1,1-4.461,4.461A4.466,4.466,0,0,1,49.666,4.468ZM54.889,62.85,47.039,52.8A6.4,6.4,0,0,0,49.494,50L58.8,62.85Zm-20.017,0,8.119-7.972,6.229,7.972ZM57.546,53.5a6.416,6.416,0,0,0,3.29-2.281v6.823ZM41.459,17.853l16.4.008a5.219,5.219,0,0,1,5.21,5.211l0,12.346L57.5,48.134a1.943,1.943,0,0,1-3.414.269,1.918,1.918,0,0,1-.13-1.859l4.669-10.158c.358-.779.135-.377.211-11.662a2.234,2.234,0,0,0-2.233-2.236h0a2.234,2.234,0,0,0-2.234,2.232l-.007,10.243c-1.414,3.08-4.4,9.553-4.537,9.885a2.23,2.23,0,0,0-.252.05c-.168-.405.381.823-4.558-9.935l-.007-10.243a2.234,2.234,0,0,0-2.234-2.232h0a2.234,2.234,0,0,0-2.233,2.236c.077,11.278-.148,10.88.212,11.662l4.668,10.158a1.918,1.918,0,0,1-.13,1.859,1.943,1.943,0,0,1-3.414-.269L36.307,35.413l-.061-12.333a5.21,5.21,0,0,1,5.213-5.226ZM39.4,52.144l-3.41,3.348L31.96,51.466l4.909-3.63C37.624,49.348,37.859,50.777,39.4,52.144Zm-25.4,9.519c3.346,0,3.954.165,4.77-.438l9.565-7.073L32.8,58.623l-4.3,4.227H27.4a2.234,2.234,0,1,0,0,4.468H36.34v4.468H13.992ZM69.921,71.786H40.808V67.318H69.921a2.234,2.234,0,1,1,0,4.468Z" fill="#f15a4f" stroke="#fff" stroke-width="1"/>
  </g>
</svg>
