<svg xmlns="http://www.w3.org/2000/svg" width="9.286" height="10.986" viewBox="0 0 9.286 10.986">
  <path id="stopwatch" d="M8.215,3.377l.431-.431a.429.429,0,0,0-.606-.606l-.431.431A4.6,4.6,0,0,0,5.071,1.72V.857h.414a.429.429,0,0,0,0-.857H3.8a.429.429,0,0,0,0,.857h.414V1.72a4.643,4.643,0,1,0,4,1.657ZM4.642,10.128A3.786,3.786,0,1,1,8.428,6.343,3.79,3.79,0,0,1,4.642,10.128ZM6.629,4.357a.429.429,0,0,1,0,.606L4.946,6.646a.429.429,0,1,1-.606-.606L6.022,4.357A.429.429,0,0,1,6.629,4.357Zm0,0" transform="translate(0 0)" fill="#f15a4f"/>
</svg>
