<svg xmlns="http://www.w3.org/2000/svg" width="175.052" height="149.849" viewBox="0 0 175.052 149.849">
  <g id="undraw_Mailbox_re_dvds" transform="translate(0)">
    <path id="Path_9830" data-name="Path 9830" d="M363.195,595.26a11.342,11.342,0,0,0,4.069-9.777,9.169,9.169,0,0,0-6.816-7.784,7.718,7.718,0,0,0-8.788,4.884c-.6-6.773-1.294-13.83-4.895-19.6a20.755,20.755,0,0,0-15.029-9.628,18.622,18.622,0,0,0-16.382,6.687,16.9,16.9,0,0,0-2.078,17.4c1.969,4.086,5.6,7.126,9.4,9.6a60.664,60.664,0,0,0,41.49,9.077" transform="translate(-311.75 -446.974)" fill="#f2f2f2"/>
    <path id="Path_9831" data-name="Path 9831" d="M341.228,559.855a100.1,100.1,0,0,1,29.412,39.77c.281.687-.836.987-1.113.307a99.071,99.071,0,0,0-29.115-39.261C339.835,560.2,340.656,559.39,341.228,559.855Z" transform="translate(-331.572 -451.477)" fill="#fff"/>
    <path id="Path_9832" data-name="Path 9832" d="M478.069,595.26A11.342,11.342,0,0,1,474,585.482a9.169,9.169,0,0,1,6.816-7.784,7.718,7.718,0,0,1,8.788,4.884c.6-6.773,1.294-13.83,4.895-19.6a20.755,20.755,0,0,1,15.029-9.628,18.622,18.622,0,0,1,16.382,6.687,16.9,16.9,0,0,1,2.078,17.4c-1.969,4.086-5.6,7.126-9.4,9.6a60.664,60.664,0,0,1-41.49,9.077" transform="translate(-424.684 -446.974)" fill="#f2f2f2"/>
    <path id="Path_9833" data-name="Path 9833" d="M557.634,559.855a100.1,100.1,0,0,0-29.412,39.77c-.281.687.836.987,1.113.307a98.984,98.984,0,0,1,29.115-39.261c.576-.469-.245-1.282-.816-.816Z" transform="translate(-462.46 -451.477)" fill="#fff"/>
    <circle id="Ellipse_1182" data-name="Ellipse 1182" cx="9.413" cy="9.413" r="9.413" transform="translate(52.311 48.583)" fill="#f2f2f2"/>
    <path id="Path_9834" data-name="Path 9834" d="M361.357,287.388H426.21v3.548H369.636a25.33,25.33,0,0,0-25.33,25.33v40.311h-7.1a1.183,1.183,0,0,1-1.183-1.183V312.717a25.33,25.33,0,0,1,25.33-25.33Z" transform="translate(-328.656 -261.84)" fill="#f2f2f2"/>
    <path id="Path_9835" data-name="Path 9835" d="M460.527,568.647v-53.9h15.79v53.9a1.368,1.368,0,0,1-1.366,1.366H461.893A1.368,1.368,0,0,1,460.527,568.647Z" transform="translate(-415.352 -420.164)" fill="#3f3d56"/>
    <path id="Path_9836" data-name="Path 9836" d="M325.027,350.392V306.566a26.345,26.345,0,0,1,26.316-26.316h66.9v71.66h-91.7a1.52,1.52,0,0,1-1.518-1.518Zm92.612-69.535h-66.3a25.737,25.737,0,0,0-25.708,25.708v43.827a.912.912,0,0,0,.911.911h91.094Z" transform="translate(-320.996 -256.869)" fill="#3f3d56"/>
    <path id="Path_9837" data-name="Path 9837" d="M448.177,266.1a5.472,5.472,0,0,1-5.466-5.466v-39.17a.912.912,0,0,0-.911-.911H420.545a1.52,1.52,0,0,1-1.518-1.518V204.768a1.52,1.52,0,0,1,1.518-1.518h31.579a1.52,1.52,0,0,1,1.518,1.518v55.871A5.472,5.472,0,0,1,448.177,266.1Z" transform="translate(-386.453 -203.25)" fill="#f15a4f"/>
    <path id="Path_9838" data-name="Path 9838" d="M600.335,278.25h0a17.272,17.272,0,0,1,17.308,17.235v49.892h34.008a5.151,5.151,0,0,1,5.162,5.14H583.027V295.485A17.272,17.272,0,0,1,600.335,278.25Z" transform="translate(-500.655 -255.477)" fill="#3f3d56"/>
    <path id="Path_9839" data-name="Path 9839" d="M626.277,282.55l3.584,14.8,70.106-16.971-3.584-14.8a1.1,1.1,0,0,0-.716-.788,1.091,1.091,0,0,0-.405-.061l-40.524-20.983a1.118,1.118,0,0,0-1.414.34l-19.531,27.235-7.363,10.27a.156.156,0,0,0-.027.127A1.106,1.106,0,0,0,626.277,282.55Z" transform="translate(-530.751 -231.365)" fill="#fff"/>
    <path id="Path_9840" data-name="Path 9840" d="M626.758,281.72a.149.149,0,0,0,.062.1.17.17,0,0,0,.132.026.163.163,0,0,0,.091-.063l.025-.035.383-.536,6.962-9.706,19.525-27.229a.8.8,0,0,1,1.009-.242l40.21,20.82.361.187a.384.384,0,0,0,.045.016.492.492,0,0,1,.082-.008.156.156,0,0,0,.088-.074.159.159,0,0,0-.066-.215l-.05-.026-40.524-20.983a1.118,1.118,0,0,0-1.414.34l-19.53,27.235-7.363,10.27A.156.156,0,0,0,626.758,281.72Z" transform="translate(-531.104 -231.365)" fill="#3f3d56"/>
    <path id="Path_9841" data-name="Path 9841" d="M693.349,269.738l1.561.173,11.582,1.283,7.678.85.453.05,9.581-7.483.367-.287,2.263-1.767,8.051-6.287.048-.442,2.863-25.845a1.352,1.352,0,0,0-1.193-1.491l-38.216-4.233a1.353,1.353,0,0,0-1.491,1.193l-2.019,18.23-1.12,10.107-1,9.042-.464,4.2-.136,1.216a1.353,1.353,0,0,0,1.195,1.491Z" transform="translate(-576.641 -217.874)" fill="#e6e6e6"/>
    <path id="Path_9842" data-name="Path 9842" d="M726.638,290.363l16.554,1.833,5.871.65a1.986,1.986,0,1,0,.437-3.947l-7.3-.809-15.121-1.677a1.987,1.987,0,0,0-.438,3.949Z" transform="translate(-599.428 -261.153)" fill="#fff"/>
    <path id="Path_9843" data-name="Path 9843" d="M723.831,314.526c.043.008.085.015.129.019l19.216,2.129,3.208.356a1.986,1.986,0,1,0,.437-3.949l-4.639-.513-15.222-1.687L724.4,310.6a1.986,1.986,0,0,0-.568,3.928Z" transform="translate(-597.564 -277.994)" fill="#fff"/>
    <path id="Path_9844" data-name="Path 9844" d="M719.771,338.04a1.985,1.985,0,0,0,1.482.949l7.876.872,14.028,1.554h0l.449.05,2.263-1.767a1.963,1.963,0,0,0,0-.4,1.99,1.99,0,0,0-1.757-1.768l-1.949-.217-7.73-.855-5.562-.617-7.184-.8a1.986,1.986,0,0,0-1.919,3Z" transform="translate(-595.678 -295.014)" fill="#fff"/>
    <path id="Path_9845" data-name="Path 9845" d="M752.807,260.888l4.119.456,1.819.2,2.748.3a1.987,1.987,0,0,0,.437-3.949l-8.684-.961a1.986,1.986,0,1,0-.439,3.948Z" transform="translate(-617.651 -240.629)" fill="#fff"/>
    <path id="Path_9846" data-name="Path 9846" d="M645.856,281.61l5.021,20.743,8.381,1.594,7.753,1.476,8.318,1.583,2.658.506a1.115,1.115,0,0,0,.893-.216l2.132-1.665,1.35-1.054,9.581-7.483-6.092-25.164a1.337,1.337,0,0,0-.378-.656,1.351,1.351,0,0,0-1.253-.339l-37.37,9.046A1.351,1.351,0,0,0,645.856,281.61Z" transform="translate(-544.38 -250.356)" fill="#f15a4f"/>
    <path id="Path_9847" data-name="Path 9847" d="M683.736,342.728a1.988,1.988,0,0,0,2.4,1.463l21.928-5.308a1.989,1.989,0,0,0,1.463-2.4.663.663,0,0,0-.021-.075,1.986,1.986,0,0,0-2.376-1.388L685.2,340.331A1.988,1.988,0,0,0,683.736,342.728Z" transform="translate(-570.745 -294.971)" fill="#fff"/>
    <path id="Path_9848" data-name="Path 9848" d="M690.082,365.029l7.753,1.476,16.423-3.976a1.986,1.986,0,0,0-.935-3.861L691.4,363.977a1.993,1.993,0,0,0-1.313,1.052Z" transform="translate(-575.203 -311.438)" fill="#fff"/>
    <path id="Path_9849" data-name="Path 9849" d="M743.008,386.662l2.658.506a1.116,1.116,0,0,0,.893-.216l2.132-1.665Z" transform="translate(-612.058 -330.012)" fill="#fff"/>
    <path id="Path_9850" data-name="Path 9850" d="M698.286,313.556a1.988,1.988,0,0,0,2.4,1.463l8.493-2.056a1.989,1.989,0,0,0,1.463-2.4,1.962,1.962,0,0,0-.366-.755,1.987,1.987,0,0,0-2.032-.708l-8.493,2.056a1.986,1.986,0,0,0-1.463,2.4Z" transform="translate(-580.877 -276.922)" fill="#fff"/>
    <path id="Path_9851" data-name="Path 9851" d="M653.382,334.831l8.319,1.583,2.657.506a1.12,1.12,0,0,0,.892-.216l2.134-1.666-.749.181-1.581,1.233a.8.8,0,0,1-.637.154l-1.967-.374-8.319-1.583Zm24.85-8.666.081.335.369-.287Zm-24.85,8.666,8.319,1.583,2.657.506a1.12,1.12,0,0,0,.892-.216l2.134-1.666-.749.181-1.581,1.233a.8.8,0,0,1-.637.154l-1.967-.374-8.319-1.583Zm0,0,8.319,1.583,2.657.506a1.12,1.12,0,0,0,.892-.216l2.134-1.666-.749.181-1.581,1.233a.8.8,0,0,1-.637.154l-1.967-.374-8.319-1.583Zm-27.1-3.883,9.388,38.779a1.113,1.113,0,0,0,1.343.819L704.952,354.1a1.113,1.113,0,0,0,.819-1.343l-9.388-38.779a1.1,1.1,0,0,0-.716-.788,1.092,1.092,0,0,0-.405-.061,1.05,1.05,0,0,0-.46.121.962.962,0,0,0-.184.114l-5.576,4.354-8.1,6.326-2.713,2.119v0h0l-9.949,7.767-1.645,1.287-1.581,1.233a.8.8,0,0,1-.637.154l-1.967-.374-8.319-1.583-8.327-1.584L627.567,329.6a1.091,1.091,0,0,0-.47.01,1.114,1.114,0,0,0-.543.315,1.248,1.248,0,0,0-.15.2A1.106,1.106,0,0,0,626.277,330.948Zm27.1,3.883,8.319,1.583,2.657.506a1.12,1.12,0,0,0,.892-.216l2.134-1.666-.749.181-1.581,1.233a.8.8,0,0,1-.637.154l-1.967-.374-8.319-1.583Zm0,0,8.319,1.583,2.657.506a1.12,1.12,0,0,0,.892-.216l2.134-1.666-.749.181-1.581,1.233a.8.8,0,0,1-.637.154l-1.967-.374-8.319-1.583Zm0,0,8.319,1.583,2.657.506a1.12,1.12,0,0,0,.892-.216l2.134-1.666-.749.181-1.581,1.233a.8.8,0,0,1-.637.154l-1.967-.374-8.319-1.583Z" transform="translate(-530.751 -279.764)" fill="#fff"/>
    <path id="Path_9852" data-name="Path 9852" d="M653.382,334.831l8.319,1.583,2.657.506a1.12,1.12,0,0,0,.892-.216l2.134-1.666-.749.181-1.581,1.233a.8.8,0,0,1-.637.154l-1.967-.374-8.319-1.583Zm24.85-8.666.081.335.369-.287Zm-24.85,8.666,8.319,1.583,2.657.506a1.12,1.12,0,0,0,.892-.216l2.134-1.666-.749.181-1.581,1.233a.8.8,0,0,1-.637.154l-1.967-.374-8.319-1.583Zm0,0,8.319,1.583,2.657.506a1.12,1.12,0,0,0,.892-.216l2.134-1.666-.749.181-1.581,1.233a.8.8,0,0,1-.637.154l-1.967-.374-8.319-1.583Zm-26.668-4.689.041.031c.007-.011.019-.021.028-.033a.8.8,0,0,1,.724-.233l18.123,3.448,7.752,1.477,8.319,1.583,2.657.506a1.12,1.12,0,0,0,.892-.216l2.134-1.666-.749.181-1.581,1.233a.8.8,0,0,1-.637.154l-1.967-.374-8.319-1.583-8.327-1.584L627.567,329.6a1.091,1.091,0,0,0-.47.01Zm-.436.807,9.388,38.779a1.113,1.113,0,0,0,1.343.819L704.952,354.1a1.113,1.113,0,0,0,.819-1.343l-9.388-38.779a1.1,1.1,0,0,0-.716-.788,1.092,1.092,0,0,0-.405-.061,1.05,1.05,0,0,0-.46.121.962.962,0,0,0-.184.114l-5.576,4.354-8.1,6.326-2.713,2.119v0h0l-9.949,7.767-1.645,1.287-1.581,1.233a.8.8,0,0,1-.637.154l-1.967-.374-8.319-1.583-8.327-1.584L627.567,329.6a1.091,1.091,0,0,0-.47.01,1.114,1.114,0,0,0-.543.315,1.248,1.248,0,0,0-.15.2,1.106,1.106,0,0,0-.127.831Zm.31-.075a.789.789,0,0,1,.14-.665.1.1,0,0,1,.028-.036c.007-.011.019-.021.028-.033a.8.8,0,0,1,.724-.233l18.123,3.448,7.752,1.477,8.319,1.583,2.657.506a1.12,1.12,0,0,0,.892-.216l2.134-1.666,1.349-1.054,9.579-7.484.369-.287,2.261-1.766,8.052-6.288,5.821-4.546a.791.791,0,0,1,.3-.145.615.615,0,0,1,.093-.015.488.488,0,0,1,.082-.008.815.815,0,0,1,.273.045.8.8,0,0,1,.512.563l9.388,38.779a.8.8,0,0,1-.586.961l-67.944,16.448a.8.8,0,0,1-.959-.587Zm26.795,3.958,8.319,1.583,2.657.506a1.12,1.12,0,0,0,.892-.216l2.134-1.666-.749.181-1.581,1.233a.8.8,0,0,1-.637.154l-1.967-.374-8.319-1.583Zm0,0,8.319,1.583,2.657.506a1.12,1.12,0,0,0,.892-.216l2.134-1.666-.749.181-1.581,1.233a.8.8,0,0,1-.637.154l-1.967-.374-8.319-1.583Zm0,0,8.319,1.583,2.657.506a1.12,1.12,0,0,0,.892-.216l2.134-1.666-.749.181-1.581,1.233a.8.8,0,0,1-.637.154l-1.967-.374-8.319-1.583Z" transform="translate(-530.751 -279.764)" fill="#3f3d56"/>
    <path id="Path_9853" data-name="Path 9853" d="M826.97,411.221a2.468,2.468,0,0,1,1.816-2.976l8.575-2.076a2.465,2.465,0,1,1,1.16,4.792l-8.575,2.076A2.468,2.468,0,0,1,826.97,411.221Z" transform="translate(-670.478 -344.505)" fill="#4d8d6e"/>
    <circle id="Ellipse_1183" data-name="Ellipse 1183" cx="2.126" cy="2.126" r="2.126" transform="translate(59.599 55.264)" fill="#fff"/>
  </g>
</svg>
