<svg id="weight-scale" xmlns="http://www.w3.org/2000/svg" width="23.5" height="23.5" viewBox="0 0 23.5 23.5">
  <path id="Path_10239" data-name="Path 10239" d="M21.894,0H1.606A1.608,1.608,0,0,0,0,1.606V21.894A1.608,1.608,0,0,0,1.606,23.5H21.894A1.608,1.608,0,0,0,23.5,21.894V1.606A1.608,1.608,0,0,0,21.894,0Zm.229,21.894a.23.23,0,0,1-.229.229H1.606a.23.23,0,0,1-.229-.229V1.606a.23.23,0,0,1,.229-.229H21.894a.23.23,0,0,1,.229.229Z" fill="#707070"/>
  <path id="Path_10240" data-name="Path 10240" d="M121.44,61.184a15.808,15.808,0,0,0-12.1,0,1.149,1.149,0,0,0-.61,1.534l2.435,5.393a1.149,1.149,0,0,0,1.466.6,7.6,7.6,0,0,1,5.522,0,1.149,1.149,0,0,0,1.466-.6l2.435-5.394A1.149,1.149,0,0,0,121.44,61.184Zm-2.992,6.164a8.987,8.987,0,0,0-2.372-.512V63.973a.688.688,0,1,0-1.377,0v2.863a8.989,8.989,0,0,0-2.372.512l-2.249-4.98a14.337,14.337,0,0,1,10.618,0Z" transform="translate(-103.638 -57.226)" fill="#707070"/>
</svg>
