<svg id="weight-scale-1" xmlns="http://www.w3.org/2000/svg" width="75" height="75" viewBox="0 0 75 75">
  <path id="Path_10239" data-name="Path 10239" d="M69.873,0H5.127A5.133,5.133,0,0,0,0,5.127V69.873A5.133,5.133,0,0,0,5.127,75H69.873A5.133,5.133,0,0,0,75,69.873V5.127A5.133,5.133,0,0,0,69.873,0Zm.732,69.873a.733.733,0,0,1-.732.732H5.127a.733.733,0,0,1-.732-.732V5.127a.733.733,0,0,1,.732-.732H69.873a.733.733,0,0,1,.732.732Z" fill="#f15a4f"/>
  <path id="Path_10240" data-name="Path 10240" d="M149.528,63.824a50.45,50.45,0,0,0-38.633,0,3.666,3.666,0,0,0-1.946,4.895l7.772,17.213a3.668,3.668,0,0,0,4.677,1.9,24.245,24.245,0,0,1,17.625,0,3.668,3.668,0,0,0,4.677-1.9l7.772-17.213A3.667,3.667,0,0,0,149.528,63.824ZM139.979,83.5a28.68,28.68,0,0,0-7.57-1.633V72.726a2.2,2.2,0,1,0-4.395,0v9.138a28.686,28.686,0,0,0-7.57,1.633L113.268,67.6a45.756,45.756,0,0,1,33.887,0Z" transform="translate(-92.712 -51.193)" fill="#f15a4f"/>
</svg>
