<svg xmlns="http://www.w3.org/2000/svg" width="77.486" height="84.557" viewBox="0 0 77.486 84.557">
  <g id="XMLID_2107_" transform="translate(-21.408)">
    <g id="XMLID_777_" transform="translate(21.408 0)">
      <path id="XMLID_1087_" d="M212.417,333.577l-1.207-.908a3.855,3.855,0,0,0-3.478-.605,3.857,3.857,0,0,0-3.479.605l-1.207.908a1.651,1.651,0,0,0-.222,2.439l.458.5a6.049,6.049,0,0,0,8.9,0l.458-.5a1.651,1.651,0,0,0-.222-2.439Z" transform="translate(-172.499 -277.077)" fill="#f15a4f"/>
      <path id="XMLID_1091_" d="M151.818,280.008h0a9.421,9.421,0,0,1-1.123-.065,1.651,1.651,0,1,0-.386,3.28,12.877,12.877,0,0,0,1.5.088h.009a1.652,1.652,0,0,0,0-3.3Z" transform="translate(-127.802 -233.701)" fill="#f15a4f"/>
      <path id="XMLID_1093_" d="M201.184,264.464a13.006,13.006,0,0,0,1.132-1.007,1.651,1.651,0,0,0-2.335-2.336,9.61,9.61,0,0,1-.843.749,1.652,1.652,0,1,0,2.046,2.593Z" transform="translate(-169.261 -217.594)" fill="#f15a4f"/>
      <path id="XMLID_1094_" d="M226.251,151.929a1.652,1.652,0,0,0,1.652-1.651v-1.293a1.652,1.652,0,0,0-3.3,0v1.293A1.652,1.652,0,0,0,226.251,151.929Z" transform="translate(-191.043 -123.001)" fill="#f15a4f"/>
      <path id="XMLID_1095_" d="M226.251,204.117a1.652,1.652,0,0,0,1.652-1.651v-1.651a1.652,1.652,0,1,0-3.3,0v1.651A1.652,1.652,0,0,0,226.251,204.117Z" transform="translate(-191.043 -166.271)" fill="#f15a4f"/>
      <path id="XMLID_1098_" d="M98.411,74.323,81.093,57.005A29.407,29.407,0,0,0,91.825,34.676a28.954,28.954,0,0,0-7.9-19.615,36.3,36.3,0,0,0-19.588-10.7A1.651,1.651,0,1,0,63.694,7.6C78.08,10.441,88.522,21.826,88.522,34.676A25.725,25.725,0,0,1,80.971,52.6a27.71,27.71,0,0,0,.209-3.366V39.967a17.021,17.021,0,0,0-.373-3.549,14.994,14.994,0,0,0,3.111-5.772,1.651,1.651,0,0,0-3.18-.892A11.711,11.711,0,0,1,79.5,32.613a16.625,16.625,0,0,0-7.448-7.581c-.169-.086-.339-.167-.509-.25a13.026,13.026,0,0,0,1.613-6.317,1.651,1.651,0,0,0-3.3,0,9.747,9.747,0,0,1-1.364,5.007,34.21,34.21,0,0,0-23.749,0,9.747,9.747,0,0,1-1.364-5.007,1.651,1.651,0,1,0-3.3,0,13.026,13.026,0,0,0,1.613,6.317c-.17.083-.341.164-.509.25a16.625,16.625,0,0,0-7.448,7.581A11.713,11.713,0,0,1,32.5,29.753a1.651,1.651,0,0,0-3.18.892,15,15,0,0,0,3.111,5.772,17.019,17.019,0,0,0-.373,3.549V49.23a27.73,27.73,0,0,0,.206,3.367,25.679,25.679,0,0,1-7.548-17.921c0-12.85,10.442-24.235,24.828-27.071A1.651,1.651,0,1,0,48.9,4.364a36.3,36.3,0,0,0-19.589,10.7,28.953,28.953,0,0,0-7.9,19.615c0,9.018,4.411,17.538,12.115,23.446A27.592,27.592,0,0,0,45.536,72.915v1.01a11.479,11.479,0,0,1-8.125,11.019,1.652,1.652,0,1,0,.976,3.155A14.836,14.836,0,0,0,48.824,74.58a27.535,27.535,0,0,0,7.6,2.006,1.656,1.656,0,0,0,.379,0,27.475,27.475,0,0,0,7.65-2.035A14.836,14.836,0,0,0,74.894,88.1a1.652,1.652,0,1,0,.976-3.156,11.479,11.479,0,0,1-8.125-11.019V72.874a27.594,27.594,0,0,0,7.171-6.163L90.47,82.263a1.651,1.651,0,0,0,2.336,0l5.605-5.605a1.651,1.651,0,0,0,0-2.335ZM70.36,56.618,67.8,51.657l4.962,2.556Zm-12.092,16.4v-2.6a1.651,1.651,0,0,0-3.3,0v2.6A24.231,24.231,0,0,1,35.356,49.23V39.967a13.375,13.375,0,0,1,7.32-11.99,30.843,30.843,0,0,1,27.881,0,13.375,13.375,0,0,1,7.32,11.99V49.23a24.354,24.354,0,0,1-.365,4.194l-.811-.811a1.653,1.653,0,0,0-.412-.3L64.728,46.357A1.651,1.651,0,0,0,62.5,48.581L68.46,60.142a1.658,1.658,0,0,0,.3.412l3.81,3.81A24.307,24.307,0,0,1,58.268,73.017Zm33.37,5.743L72.263,59.386l3.27-3.27L94.907,75.491Z" transform="translate(-21.408 -3.617)" fill="#f15a4f"/>
      <path id="XMLID_1223_" d="M226.255,3.3A1.651,1.651,0,0,0,227.422.484a1.651,1.651,0,1,0-2.335,2.335A1.664,1.664,0,0,0,226.255,3.3Z" transform="translate(-191.046 0)" fill="#f15a4f"/>
    </g>
  </g>
</svg>
