<svg id="XMLID_235_" xmlns="http://www.w3.org/2000/svg" width="72.135" height="89.837" viewBox="0 0 72.135 89.837">
  <g id="XMLID_43_">
    <path id="XMLID_46_" d="M228.843,166.755a1.755,1.755,0,0,0-1.755,1.755.361.361,0,0,1-.361.361,1.755,1.755,0,1,0,0,3.509,3.875,3.875,0,0,0,3.87-3.87A1.755,1.755,0,0,0,228.843,166.755Z" transform="translate(-194.35 -137.496)" fill="#f15a4f"/>
    <g id="XMLID_80_">
      <path id="XMLID_1818_" d="M119.951,68.756a1.754,1.754,0,0,0-2.294.946c-4.135,9.944-16.238,16.625-30.117,16.625-.848,0-1.693-.028-2.535-.079l1.257-8.008c.425.019.85.031,1.278.031a25.588,25.588,0,0,0,15.189-4.688c4.236-3.14,6.568-7.364,6.568-11.895a1.755,1.755,0,1,0-3.509,0c0,4.665-3.428,8.766-8.574,11.08A12.374,12.374,0,0,0,86.478,61.913a2.38,2.38,0,0,1-1.387-.668,2.335,2.335,0,0,1,.8-3.826l3.227-1.264a18.653,18.653,0,0,0,9.925-8.932,17.685,17.685,0,0,0,1.793-5.957c7.926,2.784,14.111,8.017,16.77,14.3a1.755,1.755,0,0,0,3.231-1.369,27.053,27.053,0,0,0-8.17-10.44,35.043,35.043,0,0,0-6.418-4.02,21.726,21.726,0,0,0,2.809-14.549,29.351,29.351,0,0,0-8.454-16.489A28.976,28.976,0,0,0,82.918.1a20.606,20.606,0,0,0-16.8,5.678c-5.922,5.922-7.391,15.106-4,23.925a13.249,13.249,0,0,0-5.226,24.527,32.655,32.655,0,0,0,.89,10.389A7.528,7.528,0,0,0,65.45,77.581a25.7,25.7,0,0,0,6.942,4.527,7.664,7.664,0,0,0,.642,2.472,7.5,7.5,0,0,0,5.373,4.327,44.961,44.961,0,0,0,9.134.928,42,42,0,0,0,20.711-5.231c6-3.4,10.374-8.091,12.646-13.555A1.754,1.754,0,0,0,119.951,68.756ZM68.6,8.262A17.163,17.163,0,0,1,82.6,3.6a25.465,25.465,0,0,1,15.524,7.578c8.019,8.018,10,19.468,4.865,27.142q-1.149-.438-2.335-.81a5.912,5.912,0,0,0-4.625-3.951,13.061,13.061,0,0,0-3.006-13.751l-.477-.477a9.364,9.364,0,0,0-11.116-1.56,5.825,5.825,0,0,1-2.82.73H74.441a1.754,1.754,0,0,0-1.7,2.206A9.968,9.968,0,0,1,70.163,30.3s-.611.614-.648.659a13.148,13.148,0,0,0-3.553-1.15C62.376,21.875,63.382,13.481,68.6,8.262Zm8.021,31.664a13.088,13.088,0,0,0,12.584.974c-.975,3.337-4.818,6.273-10.009,7.454-1.228.279-2.57.624-3.953,1.01a13.191,13.191,0,0,0,1.378-9.438Zm.433-4.153-3.729-3.729a13.507,13.507,0,0,0,3.2-10.036h2.079a9.347,9.347,0,0,0,4.523-1.171,5.838,5.838,0,0,1,6.932.973l.477.477A9.536,9.536,0,1,1,77.055,35.774Zm-23.1,7.09a9.744,9.744,0,0,1,19.487-.19.991.991,0,0,1-1.153.489,1.755,1.755,0,1,0-.985,3.368,4.524,4.524,0,0,0,1.269.183l.081,0a9.745,9.745,0,0,1-18.7-3.848ZM61.662,75.1a4.022,4.022,0,1,1,4.022-4.022A4.027,4.027,0,0,1,61.662,75.1Zm11.732,2.566a7.829,7.829,0,0,0-.421.841,22.131,22.131,0,0,1-4.981-3.356,7.525,7.525,0,0,0-6.329-11.605c-.177,0-.353.008-.527.021a28.751,28.751,0,0,1-.8-7.88,13.226,13.226,0,0,0,8.19-.479,100.623,100.623,0,0,1,11.451-3.429,20.284,20.284,0,0,0,9.1-4.534,10.823,10.823,0,0,0,3.882-8A2.242,2.242,0,0,1,95.236,37a2.344,2.344,0,0,1,2.208,2.33,14.121,14.121,0,0,1-1.535,6.313,15.149,15.149,0,0,1-8.071,7.242l-3.227,1.264a5.845,5.845,0,0,0-2,9.575A5.907,5.907,0,0,0,86.044,65.4a8.858,8.858,0,0,1,7.74,8.578,25.1,25.1,0,0,1-12.039.11,7.637,7.637,0,0,0-8.352,3.58Zm8.116,8.227c-.8-.117-1.6-.255-2.389-.418a4.086,4.086,0,0,1-2.69-6.05A4.107,4.107,0,0,1,80.922,77.5c.608.147,1.225.271,1.847.376Z" transform="translate(-50.444 0)" fill="#f15a4f"/>
      <path id="XMLID_1867_" d="M153.453,314.629C153.428,314.638,153.478,314.621,153.453,314.629Z" transform="translate(-135.373 -259.422)" fill="#f15a4f"/>
    </g>
    <path id="XMLID_1869_" d="M443.294,347.308a1.755,1.755,0,0,0,0,3.509h.009a1.755,1.755,0,1,0-.009-3.509Z" transform="translate(-372.919 -286.37)" fill="#f15a4f"/>
  </g>
</svg>
